%TF.GenerationSoftware,KiCad,Pcbnew,9.0.6*%
%TF.CreationDate,2026-01-20T17:25:10-06:00*%
%TF.ProjectId,MobileArkhamAsylum,4d6f6269-6c65-4417-926b-68616d417379,rev?*%
%TF.SameCoordinates,Original*%
%TF.FileFunction,Legend,Top*%
%TF.FilePolarity,Positive*%
%FSLAX46Y46*%
G04 Gerber Fmt 4.6, Leading zero omitted, Abs format (unit mm)*
G04 Created by KiCad (PCBNEW 9.0.6) date 2026-01-20 17:25:10*
%MOMM*%
%LPD*%
G01*
G04 APERTURE LIST*
%ADD10C,0.150000*%
%ADD11C,0.300000*%
%ADD12C,0.200000*%
%ADD13C,0.120000*%
G04 APERTURE END LIST*
D10*
X219634398Y-108150414D02*
X219277255Y-108150414D01*
X219277255Y-108150414D02*
X219241541Y-108507557D01*
X219241541Y-108507557D02*
X219277255Y-108471842D01*
X219277255Y-108471842D02*
X219348684Y-108436128D01*
X219348684Y-108436128D02*
X219527255Y-108436128D01*
X219527255Y-108436128D02*
X219598684Y-108471842D01*
X219598684Y-108471842D02*
X219634398Y-108507557D01*
X219634398Y-108507557D02*
X219670112Y-108578985D01*
X219670112Y-108578985D02*
X219670112Y-108757557D01*
X219670112Y-108757557D02*
X219634398Y-108828985D01*
X219634398Y-108828985D02*
X219598684Y-108864700D01*
X219598684Y-108864700D02*
X219527255Y-108900414D01*
X219527255Y-108900414D02*
X219348684Y-108900414D01*
X219348684Y-108900414D02*
X219277255Y-108864700D01*
X219277255Y-108864700D02*
X219241541Y-108828985D01*
X219884398Y-108150414D02*
X220134398Y-108900414D01*
X220134398Y-108900414D02*
X220384398Y-108150414D01*
X219277255Y-110400414D02*
X219277255Y-109650414D01*
X219277255Y-109650414D02*
X219562969Y-109650414D01*
X219562969Y-109650414D02*
X219634398Y-109686128D01*
X219634398Y-109686128D02*
X219670112Y-109721842D01*
X219670112Y-109721842D02*
X219705826Y-109793271D01*
X219705826Y-109793271D02*
X219705826Y-109900414D01*
X219705826Y-109900414D02*
X219670112Y-109971842D01*
X219670112Y-109971842D02*
X219634398Y-110007557D01*
X219634398Y-110007557D02*
X219562969Y-110043271D01*
X219562969Y-110043271D02*
X219277255Y-110043271D01*
X219955826Y-109650414D02*
X220134398Y-110400414D01*
X220134398Y-110400414D02*
X220277255Y-109864700D01*
X220277255Y-109864700D02*
X220420112Y-110400414D01*
X220420112Y-110400414D02*
X220598684Y-109650414D01*
X220884398Y-110400414D02*
X220884398Y-109650414D01*
X220884398Y-109650414D02*
X221134398Y-110186128D01*
X221134398Y-110186128D02*
X221384398Y-109650414D01*
X221384398Y-109650414D02*
X221384398Y-110400414D01*
X92527255Y-103007557D02*
X92634398Y-103043271D01*
X92634398Y-103043271D02*
X92670112Y-103078985D01*
X92670112Y-103078985D02*
X92705826Y-103150414D01*
X92705826Y-103150414D02*
X92705826Y-103257557D01*
X92705826Y-103257557D02*
X92670112Y-103328985D01*
X92670112Y-103328985D02*
X92634398Y-103364700D01*
X92634398Y-103364700D02*
X92562969Y-103400414D01*
X92562969Y-103400414D02*
X92277255Y-103400414D01*
X92277255Y-103400414D02*
X92277255Y-102650414D01*
X92277255Y-102650414D02*
X92527255Y-102650414D01*
X92527255Y-102650414D02*
X92598684Y-102686128D01*
X92598684Y-102686128D02*
X92634398Y-102721842D01*
X92634398Y-102721842D02*
X92670112Y-102793271D01*
X92670112Y-102793271D02*
X92670112Y-102864700D01*
X92670112Y-102864700D02*
X92634398Y-102936128D01*
X92634398Y-102936128D02*
X92598684Y-102971842D01*
X92598684Y-102971842D02*
X92527255Y-103007557D01*
X92527255Y-103007557D02*
X92277255Y-103007557D01*
X92991541Y-103186128D02*
X93348684Y-103186128D01*
X92920112Y-103400414D02*
X93170112Y-102650414D01*
X93170112Y-102650414D02*
X93420112Y-103400414D01*
X93562969Y-102650414D02*
X93991541Y-102650414D01*
X93777255Y-103400414D02*
X93777255Y-102650414D01*
X94134398Y-102650414D02*
X94562970Y-102650414D01*
X94348684Y-103400414D02*
X94348684Y-102650414D01*
X94812970Y-103114700D02*
X95384399Y-103114700D01*
X95098684Y-103400414D02*
X95098684Y-102828985D01*
D11*
X103911653Y-129657971D02*
X103840225Y-129729400D01*
X103840225Y-129729400D02*
X103625939Y-129800828D01*
X103625939Y-129800828D02*
X103483082Y-129800828D01*
X103483082Y-129800828D02*
X103268796Y-129729400D01*
X103268796Y-129729400D02*
X103125939Y-129586542D01*
X103125939Y-129586542D02*
X103054510Y-129443685D01*
X103054510Y-129443685D02*
X102983082Y-129157971D01*
X102983082Y-129157971D02*
X102983082Y-128943685D01*
X102983082Y-128943685D02*
X103054510Y-128657971D01*
X103054510Y-128657971D02*
X103125939Y-128515114D01*
X103125939Y-128515114D02*
X103268796Y-128372257D01*
X103268796Y-128372257D02*
X103483082Y-128300828D01*
X103483082Y-128300828D02*
X103625939Y-128300828D01*
X103625939Y-128300828D02*
X103840225Y-128372257D01*
X103840225Y-128372257D02*
X103911653Y-128443685D01*
X104554510Y-129800828D02*
X104554510Y-128300828D01*
X105197368Y-129800828D02*
X105197368Y-129015114D01*
X105197368Y-129015114D02*
X105125939Y-128872257D01*
X105125939Y-128872257D02*
X104983082Y-128800828D01*
X104983082Y-128800828D02*
X104768796Y-128800828D01*
X104768796Y-128800828D02*
X104625939Y-128872257D01*
X104625939Y-128872257D02*
X104554510Y-128943685D01*
X105911653Y-129800828D02*
X105911653Y-128800828D01*
X105911653Y-128300828D02*
X105840225Y-128372257D01*
X105840225Y-128372257D02*
X105911653Y-128443685D01*
X105911653Y-128443685D02*
X105983082Y-128372257D01*
X105983082Y-128372257D02*
X105911653Y-128300828D01*
X105911653Y-128300828D02*
X105911653Y-128443685D01*
X107268797Y-128800828D02*
X107268797Y-130015114D01*
X107268797Y-130015114D02*
X107197368Y-130157971D01*
X107197368Y-130157971D02*
X107125939Y-130229400D01*
X107125939Y-130229400D02*
X106983082Y-130300828D01*
X106983082Y-130300828D02*
X106768797Y-130300828D01*
X106768797Y-130300828D02*
X106625939Y-130229400D01*
X107268797Y-129729400D02*
X107125939Y-129800828D01*
X107125939Y-129800828D02*
X106840225Y-129800828D01*
X106840225Y-129800828D02*
X106697368Y-129729400D01*
X106697368Y-129729400D02*
X106625939Y-129657971D01*
X106625939Y-129657971D02*
X106554511Y-129515114D01*
X106554511Y-129515114D02*
X106554511Y-129086542D01*
X106554511Y-129086542D02*
X106625939Y-128943685D01*
X106625939Y-128943685D02*
X106697368Y-128872257D01*
X106697368Y-128872257D02*
X106840225Y-128800828D01*
X106840225Y-128800828D02*
X107125939Y-128800828D01*
X107125939Y-128800828D02*
X107268797Y-128872257D01*
X108625940Y-129800828D02*
X108625940Y-129015114D01*
X108625940Y-129015114D02*
X108554511Y-128872257D01*
X108554511Y-128872257D02*
X108411654Y-128800828D01*
X108411654Y-128800828D02*
X108125940Y-128800828D01*
X108125940Y-128800828D02*
X107983082Y-128872257D01*
X108625940Y-129729400D02*
X108483082Y-129800828D01*
X108483082Y-129800828D02*
X108125940Y-129800828D01*
X108125940Y-129800828D02*
X107983082Y-129729400D01*
X107983082Y-129729400D02*
X107911654Y-129586542D01*
X107911654Y-129586542D02*
X107911654Y-129443685D01*
X107911654Y-129443685D02*
X107983082Y-129300828D01*
X107983082Y-129300828D02*
X108125940Y-129229400D01*
X108125940Y-129229400D02*
X108483082Y-129229400D01*
X108483082Y-129229400D02*
X108625940Y-129157971D01*
X109340225Y-129800828D02*
X109340225Y-128800828D01*
X109340225Y-129086542D02*
X109411654Y-128943685D01*
X109411654Y-128943685D02*
X109483083Y-128872257D01*
X109483083Y-128872257D02*
X109625940Y-128800828D01*
X109625940Y-128800828D02*
X109768797Y-128800828D01*
X110054511Y-128800828D02*
X110625939Y-128800828D01*
X110268796Y-128300828D02*
X110268796Y-129586542D01*
X110268796Y-129586542D02*
X110340225Y-129729400D01*
X110340225Y-129729400D02*
X110483082Y-129800828D01*
X110483082Y-129800828D02*
X110625939Y-129800828D01*
X111125939Y-129800828D02*
X111125939Y-128300828D01*
X111768797Y-129800828D02*
X111768797Y-129015114D01*
X111768797Y-129015114D02*
X111697368Y-128872257D01*
X111697368Y-128872257D02*
X111554511Y-128800828D01*
X111554511Y-128800828D02*
X111340225Y-128800828D01*
X111340225Y-128800828D02*
X111197368Y-128872257D01*
X111197368Y-128872257D02*
X111125939Y-128943685D01*
X113125940Y-129800828D02*
X113125940Y-129015114D01*
X113125940Y-129015114D02*
X113054511Y-128872257D01*
X113054511Y-128872257D02*
X112911654Y-128800828D01*
X112911654Y-128800828D02*
X112625940Y-128800828D01*
X112625940Y-128800828D02*
X112483082Y-128872257D01*
X113125940Y-129729400D02*
X112983082Y-129800828D01*
X112983082Y-129800828D02*
X112625940Y-129800828D01*
X112625940Y-129800828D02*
X112483082Y-129729400D01*
X112483082Y-129729400D02*
X112411654Y-129586542D01*
X112411654Y-129586542D02*
X112411654Y-129443685D01*
X112411654Y-129443685D02*
X112483082Y-129300828D01*
X112483082Y-129300828D02*
X112625940Y-129229400D01*
X112625940Y-129229400D02*
X112983082Y-129229400D01*
X112983082Y-129229400D02*
X113125940Y-129157971D01*
X113840225Y-128800828D02*
X113840225Y-129800828D01*
X113840225Y-128943685D02*
X113911654Y-128872257D01*
X113911654Y-128872257D02*
X114054511Y-128800828D01*
X114054511Y-128800828D02*
X114268797Y-128800828D01*
X114268797Y-128800828D02*
X114411654Y-128872257D01*
X114411654Y-128872257D02*
X114483083Y-129015114D01*
X114483083Y-129015114D02*
X114483083Y-129800828D01*
X116340225Y-129015114D02*
X116840225Y-129015114D01*
X117054511Y-129800828D02*
X116340225Y-129800828D01*
X116340225Y-129800828D02*
X116340225Y-128300828D01*
X116340225Y-128300828D02*
X117054511Y-128300828D01*
X117697368Y-128800828D02*
X117697368Y-129800828D01*
X117697368Y-128943685D02*
X117768797Y-128872257D01*
X117768797Y-128872257D02*
X117911654Y-128800828D01*
X117911654Y-128800828D02*
X118125940Y-128800828D01*
X118125940Y-128800828D02*
X118268797Y-128872257D01*
X118268797Y-128872257D02*
X118340226Y-129015114D01*
X118340226Y-129015114D02*
X118340226Y-129800828D01*
X118840226Y-128800828D02*
X119411654Y-128800828D01*
X119054511Y-128300828D02*
X119054511Y-129586542D01*
X119054511Y-129586542D02*
X119125940Y-129729400D01*
X119125940Y-129729400D02*
X119268797Y-129800828D01*
X119268797Y-129800828D02*
X119411654Y-129800828D01*
X120483083Y-129729400D02*
X120340226Y-129800828D01*
X120340226Y-129800828D02*
X120054512Y-129800828D01*
X120054512Y-129800828D02*
X119911654Y-129729400D01*
X119911654Y-129729400D02*
X119840226Y-129586542D01*
X119840226Y-129586542D02*
X119840226Y-129015114D01*
X119840226Y-129015114D02*
X119911654Y-128872257D01*
X119911654Y-128872257D02*
X120054512Y-128800828D01*
X120054512Y-128800828D02*
X120340226Y-128800828D01*
X120340226Y-128800828D02*
X120483083Y-128872257D01*
X120483083Y-128872257D02*
X120554512Y-129015114D01*
X120554512Y-129015114D02*
X120554512Y-129157971D01*
X120554512Y-129157971D02*
X119840226Y-129300828D01*
X121197368Y-129800828D02*
X121197368Y-128800828D01*
X121197368Y-129086542D02*
X121268797Y-128943685D01*
X121268797Y-128943685D02*
X121340226Y-128872257D01*
X121340226Y-128872257D02*
X121483083Y-128800828D01*
X121483083Y-128800828D02*
X121625940Y-128800828D01*
X122125939Y-128800828D02*
X122125939Y-130300828D01*
X122125939Y-128872257D02*
X122268797Y-128800828D01*
X122268797Y-128800828D02*
X122554511Y-128800828D01*
X122554511Y-128800828D02*
X122697368Y-128872257D01*
X122697368Y-128872257D02*
X122768797Y-128943685D01*
X122768797Y-128943685D02*
X122840225Y-129086542D01*
X122840225Y-129086542D02*
X122840225Y-129515114D01*
X122840225Y-129515114D02*
X122768797Y-129657971D01*
X122768797Y-129657971D02*
X122697368Y-129729400D01*
X122697368Y-129729400D02*
X122554511Y-129800828D01*
X122554511Y-129800828D02*
X122268797Y-129800828D01*
X122268797Y-129800828D02*
X122125939Y-129729400D01*
X123483082Y-129800828D02*
X123483082Y-128800828D01*
X123483082Y-129086542D02*
X123554511Y-128943685D01*
X123554511Y-128943685D02*
X123625940Y-128872257D01*
X123625940Y-128872257D02*
X123768797Y-128800828D01*
X123768797Y-128800828D02*
X123911654Y-128800828D01*
X124411653Y-129800828D02*
X124411653Y-128800828D01*
X124411653Y-128300828D02*
X124340225Y-128372257D01*
X124340225Y-128372257D02*
X124411653Y-128443685D01*
X124411653Y-128443685D02*
X124483082Y-128372257D01*
X124483082Y-128372257D02*
X124411653Y-128300828D01*
X124411653Y-128300828D02*
X124411653Y-128443685D01*
X125054511Y-129729400D02*
X125197368Y-129800828D01*
X125197368Y-129800828D02*
X125483082Y-129800828D01*
X125483082Y-129800828D02*
X125625939Y-129729400D01*
X125625939Y-129729400D02*
X125697368Y-129586542D01*
X125697368Y-129586542D02*
X125697368Y-129515114D01*
X125697368Y-129515114D02*
X125625939Y-129372257D01*
X125625939Y-129372257D02*
X125483082Y-129300828D01*
X125483082Y-129300828D02*
X125268797Y-129300828D01*
X125268797Y-129300828D02*
X125125939Y-129229400D01*
X125125939Y-129229400D02*
X125054511Y-129086542D01*
X125054511Y-129086542D02*
X125054511Y-129015114D01*
X125054511Y-129015114D02*
X125125939Y-128872257D01*
X125125939Y-128872257D02*
X125268797Y-128800828D01*
X125268797Y-128800828D02*
X125483082Y-128800828D01*
X125483082Y-128800828D02*
X125625939Y-128872257D01*
X126911654Y-129729400D02*
X126768797Y-129800828D01*
X126768797Y-129800828D02*
X126483083Y-129800828D01*
X126483083Y-129800828D02*
X126340225Y-129729400D01*
X126340225Y-129729400D02*
X126268797Y-129586542D01*
X126268797Y-129586542D02*
X126268797Y-129015114D01*
X126268797Y-129015114D02*
X126340225Y-128872257D01*
X126340225Y-128872257D02*
X126483083Y-128800828D01*
X126483083Y-128800828D02*
X126768797Y-128800828D01*
X126768797Y-128800828D02*
X126911654Y-128872257D01*
X126911654Y-128872257D02*
X126983083Y-129015114D01*
X126983083Y-129015114D02*
X126983083Y-129157971D01*
X126983083Y-129157971D02*
X126268797Y-129300828D01*
X127554511Y-129729400D02*
X127697368Y-129800828D01*
X127697368Y-129800828D02*
X127983082Y-129800828D01*
X127983082Y-129800828D02*
X128125939Y-129729400D01*
X128125939Y-129729400D02*
X128197368Y-129586542D01*
X128197368Y-129586542D02*
X128197368Y-129515114D01*
X128197368Y-129515114D02*
X128125939Y-129372257D01*
X128125939Y-129372257D02*
X127983082Y-129300828D01*
X127983082Y-129300828D02*
X127768797Y-129300828D01*
X127768797Y-129300828D02*
X127625939Y-129229400D01*
X127625939Y-129229400D02*
X127554511Y-129086542D01*
X127554511Y-129086542D02*
X127554511Y-129015114D01*
X127554511Y-129015114D02*
X127625939Y-128872257D01*
X127625939Y-128872257D02*
X127768797Y-128800828D01*
X127768797Y-128800828D02*
X127983082Y-128800828D01*
X127983082Y-128800828D02*
X128125939Y-128872257D01*
X130697368Y-129800828D02*
X129983082Y-129800828D01*
X129983082Y-129800828D02*
X129983082Y-128300828D01*
X130983083Y-128800828D02*
X131554511Y-128800828D01*
X131197368Y-128300828D02*
X131197368Y-129586542D01*
X131197368Y-129586542D02*
X131268797Y-129729400D01*
X131268797Y-129729400D02*
X131411654Y-129800828D01*
X131411654Y-129800828D02*
X131554511Y-129800828D01*
X132697369Y-129800828D02*
X132697369Y-128300828D01*
X132697369Y-129729400D02*
X132554511Y-129800828D01*
X132554511Y-129800828D02*
X132268797Y-129800828D01*
X132268797Y-129800828D02*
X132125940Y-129729400D01*
X132125940Y-129729400D02*
X132054511Y-129657971D01*
X132054511Y-129657971D02*
X131983083Y-129515114D01*
X131983083Y-129515114D02*
X131983083Y-129086542D01*
X131983083Y-129086542D02*
X132054511Y-128943685D01*
X132054511Y-128943685D02*
X132125940Y-128872257D01*
X132125940Y-128872257D02*
X132268797Y-128800828D01*
X132268797Y-128800828D02*
X132554511Y-128800828D01*
X132554511Y-128800828D02*
X132697369Y-128872257D01*
X133411654Y-129657971D02*
X133483083Y-129729400D01*
X133483083Y-129729400D02*
X133411654Y-129800828D01*
X133411654Y-129800828D02*
X133340226Y-129729400D01*
X133340226Y-129729400D02*
X133411654Y-129657971D01*
X133411654Y-129657971D02*
X133411654Y-129800828D01*
D10*
X96027255Y-107507557D02*
X95777255Y-107507557D01*
X95777255Y-107900414D02*
X95777255Y-107150414D01*
X95777255Y-107150414D02*
X96134398Y-107150414D01*
X97420112Y-107828985D02*
X97384398Y-107864700D01*
X97384398Y-107864700D02*
X97277255Y-107900414D01*
X97277255Y-107900414D02*
X97205827Y-107900414D01*
X97205827Y-107900414D02*
X97098684Y-107864700D01*
X97098684Y-107864700D02*
X97027255Y-107793271D01*
X97027255Y-107793271D02*
X96991541Y-107721842D01*
X96991541Y-107721842D02*
X96955827Y-107578985D01*
X96955827Y-107578985D02*
X96955827Y-107471842D01*
X96955827Y-107471842D02*
X96991541Y-107328985D01*
X96991541Y-107328985D02*
X97027255Y-107257557D01*
X97027255Y-107257557D02*
X97098684Y-107186128D01*
X97098684Y-107186128D02*
X97205827Y-107150414D01*
X97205827Y-107150414D02*
X97277255Y-107150414D01*
X97277255Y-107150414D02*
X97384398Y-107186128D01*
X97384398Y-107186128D02*
X97420112Y-107221842D01*
X97848684Y-107900414D02*
X97777255Y-107864700D01*
X97777255Y-107864700D02*
X97741541Y-107828985D01*
X97741541Y-107828985D02*
X97705827Y-107757557D01*
X97705827Y-107757557D02*
X97705827Y-107543271D01*
X97705827Y-107543271D02*
X97741541Y-107471842D01*
X97741541Y-107471842D02*
X97777255Y-107436128D01*
X97777255Y-107436128D02*
X97848684Y-107400414D01*
X97848684Y-107400414D02*
X97955827Y-107400414D01*
X97955827Y-107400414D02*
X98027255Y-107436128D01*
X98027255Y-107436128D02*
X98062970Y-107471842D01*
X98062970Y-107471842D02*
X98098684Y-107543271D01*
X98098684Y-107543271D02*
X98098684Y-107757557D01*
X98098684Y-107757557D02*
X98062970Y-107828985D01*
X98062970Y-107828985D02*
X98027255Y-107864700D01*
X98027255Y-107864700D02*
X97955827Y-107900414D01*
X97955827Y-107900414D02*
X97848684Y-107900414D01*
X98420112Y-107400414D02*
X98420112Y-107900414D01*
X98420112Y-107471842D02*
X98455826Y-107436128D01*
X98455826Y-107436128D02*
X98527255Y-107400414D01*
X98527255Y-107400414D02*
X98634398Y-107400414D01*
X98634398Y-107400414D02*
X98705826Y-107436128D01*
X98705826Y-107436128D02*
X98741541Y-107507557D01*
X98741541Y-107507557D02*
X98741541Y-107900414D01*
X99098683Y-107400414D02*
X99098683Y-107900414D01*
X99098683Y-107471842D02*
X99134397Y-107436128D01*
X99134397Y-107436128D02*
X99205826Y-107400414D01*
X99205826Y-107400414D02*
X99312969Y-107400414D01*
X99312969Y-107400414D02*
X99384397Y-107436128D01*
X99384397Y-107436128D02*
X99420112Y-107507557D01*
X99420112Y-107507557D02*
X99420112Y-107900414D01*
X93670112Y-104186128D02*
X93598684Y-104150414D01*
X93598684Y-104150414D02*
X93491541Y-104150414D01*
X93491541Y-104150414D02*
X93384398Y-104186128D01*
X93384398Y-104186128D02*
X93312969Y-104257557D01*
X93312969Y-104257557D02*
X93277255Y-104328985D01*
X93277255Y-104328985D02*
X93241541Y-104471842D01*
X93241541Y-104471842D02*
X93241541Y-104578985D01*
X93241541Y-104578985D02*
X93277255Y-104721842D01*
X93277255Y-104721842D02*
X93312969Y-104793271D01*
X93312969Y-104793271D02*
X93384398Y-104864700D01*
X93384398Y-104864700D02*
X93491541Y-104900414D01*
X93491541Y-104900414D02*
X93562969Y-104900414D01*
X93562969Y-104900414D02*
X93670112Y-104864700D01*
X93670112Y-104864700D02*
X93705826Y-104828985D01*
X93705826Y-104828985D02*
X93705826Y-104578985D01*
X93705826Y-104578985D02*
X93562969Y-104578985D01*
X94027255Y-104900414D02*
X94027255Y-104150414D01*
X94027255Y-104150414D02*
X94455826Y-104900414D01*
X94455826Y-104900414D02*
X94455826Y-104150414D01*
X94812969Y-104900414D02*
X94812969Y-104150414D01*
X94812969Y-104150414D02*
X94991540Y-104150414D01*
X94991540Y-104150414D02*
X95098683Y-104186128D01*
X95098683Y-104186128D02*
X95170112Y-104257557D01*
X95170112Y-104257557D02*
X95205826Y-104328985D01*
X95205826Y-104328985D02*
X95241540Y-104471842D01*
X95241540Y-104471842D02*
X95241540Y-104578985D01*
X95241540Y-104578985D02*
X95205826Y-104721842D01*
X95205826Y-104721842D02*
X95170112Y-104793271D01*
X95170112Y-104793271D02*
X95098683Y-104864700D01*
X95098683Y-104864700D02*
X94991540Y-104900414D01*
X94991540Y-104900414D02*
X94812969Y-104900414D01*
X219134398Y-118150414D02*
X218777255Y-118150414D01*
X218777255Y-118150414D02*
X218741541Y-118507557D01*
X218741541Y-118507557D02*
X218777255Y-118471842D01*
X218777255Y-118471842D02*
X218848684Y-118436128D01*
X218848684Y-118436128D02*
X219027255Y-118436128D01*
X219027255Y-118436128D02*
X219098684Y-118471842D01*
X219098684Y-118471842D02*
X219134398Y-118507557D01*
X219134398Y-118507557D02*
X219170112Y-118578985D01*
X219170112Y-118578985D02*
X219170112Y-118757557D01*
X219170112Y-118757557D02*
X219134398Y-118828985D01*
X219134398Y-118828985D02*
X219098684Y-118864700D01*
X219098684Y-118864700D02*
X219027255Y-118900414D01*
X219027255Y-118900414D02*
X218848684Y-118900414D01*
X218848684Y-118900414D02*
X218777255Y-118864700D01*
X218777255Y-118864700D02*
X218741541Y-118828985D01*
X219384398Y-118150414D02*
X219634398Y-118900414D01*
X219634398Y-118900414D02*
X219884398Y-118150414D01*
X219241541Y-96686128D02*
X219598684Y-96686128D01*
X219170112Y-96900414D02*
X219420112Y-96150414D01*
X219420112Y-96150414D02*
X219670112Y-96900414D01*
X219920112Y-96900414D02*
X219920112Y-96150414D01*
X219920112Y-96150414D02*
X220098683Y-96150414D01*
X220098683Y-96150414D02*
X220205826Y-96186128D01*
X220205826Y-96186128D02*
X220277255Y-96257557D01*
X220277255Y-96257557D02*
X220312969Y-96328985D01*
X220312969Y-96328985D02*
X220348683Y-96471842D01*
X220348683Y-96471842D02*
X220348683Y-96578985D01*
X220348683Y-96578985D02*
X220312969Y-96721842D01*
X220312969Y-96721842D02*
X220277255Y-96793271D01*
X220277255Y-96793271D02*
X220205826Y-96864700D01*
X220205826Y-96864700D02*
X220098683Y-96900414D01*
X220098683Y-96900414D02*
X219920112Y-96900414D01*
X221098683Y-96828985D02*
X221062969Y-96864700D01*
X221062969Y-96864700D02*
X220955826Y-96900414D01*
X220955826Y-96900414D02*
X220884398Y-96900414D01*
X220884398Y-96900414D02*
X220777255Y-96864700D01*
X220777255Y-96864700D02*
X220705826Y-96793271D01*
X220705826Y-96793271D02*
X220670112Y-96721842D01*
X220670112Y-96721842D02*
X220634398Y-96578985D01*
X220634398Y-96578985D02*
X220634398Y-96471842D01*
X220634398Y-96471842D02*
X220670112Y-96328985D01*
X220670112Y-96328985D02*
X220705826Y-96257557D01*
X220705826Y-96257557D02*
X220777255Y-96186128D01*
X220777255Y-96186128D02*
X220884398Y-96150414D01*
X220884398Y-96150414D02*
X220955826Y-96150414D01*
X220955826Y-96150414D02*
X221062969Y-96186128D01*
X221062969Y-96186128D02*
X221098683Y-96221842D01*
X222348684Y-96150414D02*
X221991541Y-96150414D01*
X221991541Y-96150414D02*
X221955827Y-96507557D01*
X221955827Y-96507557D02*
X221991541Y-96471842D01*
X221991541Y-96471842D02*
X222062970Y-96436128D01*
X222062970Y-96436128D02*
X222241541Y-96436128D01*
X222241541Y-96436128D02*
X222312970Y-96471842D01*
X222312970Y-96471842D02*
X222348684Y-96507557D01*
X222348684Y-96507557D02*
X222384398Y-96578985D01*
X222384398Y-96578985D02*
X222384398Y-96757557D01*
X222384398Y-96757557D02*
X222348684Y-96828985D01*
X222348684Y-96828985D02*
X222312970Y-96864700D01*
X222312970Y-96864700D02*
X222241541Y-96900414D01*
X222241541Y-96900414D02*
X222062970Y-96900414D01*
X222062970Y-96900414D02*
X221991541Y-96864700D01*
X221991541Y-96864700D02*
X221955827Y-96828985D01*
X222598684Y-96150414D02*
X222848684Y-96900414D01*
X222848684Y-96900414D02*
X223098684Y-96150414D01*
X219670112Y-107186128D02*
X219598684Y-107150414D01*
X219598684Y-107150414D02*
X219491541Y-107150414D01*
X219491541Y-107150414D02*
X219384398Y-107186128D01*
X219384398Y-107186128D02*
X219312969Y-107257557D01*
X219312969Y-107257557D02*
X219277255Y-107328985D01*
X219277255Y-107328985D02*
X219241541Y-107471842D01*
X219241541Y-107471842D02*
X219241541Y-107578985D01*
X219241541Y-107578985D02*
X219277255Y-107721842D01*
X219277255Y-107721842D02*
X219312969Y-107793271D01*
X219312969Y-107793271D02*
X219384398Y-107864700D01*
X219384398Y-107864700D02*
X219491541Y-107900414D01*
X219491541Y-107900414D02*
X219562969Y-107900414D01*
X219562969Y-107900414D02*
X219670112Y-107864700D01*
X219670112Y-107864700D02*
X219705826Y-107828985D01*
X219705826Y-107828985D02*
X219705826Y-107578985D01*
X219705826Y-107578985D02*
X219562969Y-107578985D01*
X220027255Y-107900414D02*
X220027255Y-107150414D01*
X220027255Y-107150414D02*
X220455826Y-107900414D01*
X220455826Y-107900414D02*
X220455826Y-107150414D01*
X220812969Y-107900414D02*
X220812969Y-107150414D01*
X220812969Y-107150414D02*
X220991540Y-107150414D01*
X220991540Y-107150414D02*
X221098683Y-107186128D01*
X221098683Y-107186128D02*
X221170112Y-107257557D01*
X221170112Y-107257557D02*
X221205826Y-107328985D01*
X221205826Y-107328985D02*
X221241540Y-107471842D01*
X221241540Y-107471842D02*
X221241540Y-107578985D01*
X221241540Y-107578985D02*
X221205826Y-107721842D01*
X221205826Y-107721842D02*
X221170112Y-107793271D01*
X221170112Y-107793271D02*
X221098683Y-107864700D01*
X221098683Y-107864700D02*
X220991540Y-107900414D01*
X220991540Y-107900414D02*
X220812969Y-107900414D01*
X219241541Y-97686128D02*
X219598684Y-97686128D01*
X219170112Y-97900414D02*
X219420112Y-97150414D01*
X219420112Y-97150414D02*
X219670112Y-97900414D01*
X219920112Y-97900414D02*
X219920112Y-97150414D01*
X219920112Y-97150414D02*
X220098683Y-97150414D01*
X220098683Y-97150414D02*
X220205826Y-97186128D01*
X220205826Y-97186128D02*
X220277255Y-97257557D01*
X220277255Y-97257557D02*
X220312969Y-97328985D01*
X220312969Y-97328985D02*
X220348683Y-97471842D01*
X220348683Y-97471842D02*
X220348683Y-97578985D01*
X220348683Y-97578985D02*
X220312969Y-97721842D01*
X220312969Y-97721842D02*
X220277255Y-97793271D01*
X220277255Y-97793271D02*
X220205826Y-97864700D01*
X220205826Y-97864700D02*
X220098683Y-97900414D01*
X220098683Y-97900414D02*
X219920112Y-97900414D01*
X221098683Y-97828985D02*
X221062969Y-97864700D01*
X221062969Y-97864700D02*
X220955826Y-97900414D01*
X220955826Y-97900414D02*
X220884398Y-97900414D01*
X220884398Y-97900414D02*
X220777255Y-97864700D01*
X220777255Y-97864700D02*
X220705826Y-97793271D01*
X220705826Y-97793271D02*
X220670112Y-97721842D01*
X220670112Y-97721842D02*
X220634398Y-97578985D01*
X220634398Y-97578985D02*
X220634398Y-97471842D01*
X220634398Y-97471842D02*
X220670112Y-97328985D01*
X220670112Y-97328985D02*
X220705826Y-97257557D01*
X220705826Y-97257557D02*
X220777255Y-97186128D01*
X220777255Y-97186128D02*
X220884398Y-97150414D01*
X220884398Y-97150414D02*
X220955826Y-97150414D01*
X220955826Y-97150414D02*
X221062969Y-97186128D01*
X221062969Y-97186128D02*
X221098683Y-97221842D01*
X221920112Y-97150414D02*
X222384398Y-97150414D01*
X222384398Y-97150414D02*
X222134398Y-97436128D01*
X222134398Y-97436128D02*
X222241541Y-97436128D01*
X222241541Y-97436128D02*
X222312970Y-97471842D01*
X222312970Y-97471842D02*
X222348684Y-97507557D01*
X222348684Y-97507557D02*
X222384398Y-97578985D01*
X222384398Y-97578985D02*
X222384398Y-97757557D01*
X222384398Y-97757557D02*
X222348684Y-97828985D01*
X222348684Y-97828985D02*
X222312970Y-97864700D01*
X222312970Y-97864700D02*
X222241541Y-97900414D01*
X222241541Y-97900414D02*
X222027255Y-97900414D01*
X222027255Y-97900414D02*
X221955827Y-97864700D01*
X221955827Y-97864700D02*
X221920112Y-97828985D01*
X222598684Y-97150414D02*
X222848684Y-97900414D01*
X222848684Y-97900414D02*
X223098684Y-97150414D01*
X223277255Y-97150414D02*
X223741541Y-97150414D01*
X223741541Y-97150414D02*
X223491541Y-97436128D01*
X223491541Y-97436128D02*
X223598684Y-97436128D01*
X223598684Y-97436128D02*
X223670113Y-97471842D01*
X223670113Y-97471842D02*
X223705827Y-97507557D01*
X223705827Y-97507557D02*
X223741541Y-97578985D01*
X223741541Y-97578985D02*
X223741541Y-97757557D01*
X223741541Y-97757557D02*
X223705827Y-97828985D01*
X223705827Y-97828985D02*
X223670113Y-97864700D01*
X223670113Y-97864700D02*
X223598684Y-97900414D01*
X223598684Y-97900414D02*
X223384398Y-97900414D01*
X223384398Y-97900414D02*
X223312970Y-97864700D01*
X223312970Y-97864700D02*
X223277255Y-97828985D01*
X219670112Y-99686128D02*
X219598684Y-99650414D01*
X219598684Y-99650414D02*
X219491541Y-99650414D01*
X219491541Y-99650414D02*
X219384398Y-99686128D01*
X219384398Y-99686128D02*
X219312969Y-99757557D01*
X219312969Y-99757557D02*
X219277255Y-99828985D01*
X219277255Y-99828985D02*
X219241541Y-99971842D01*
X219241541Y-99971842D02*
X219241541Y-100078985D01*
X219241541Y-100078985D02*
X219277255Y-100221842D01*
X219277255Y-100221842D02*
X219312969Y-100293271D01*
X219312969Y-100293271D02*
X219384398Y-100364700D01*
X219384398Y-100364700D02*
X219491541Y-100400414D01*
X219491541Y-100400414D02*
X219562969Y-100400414D01*
X219562969Y-100400414D02*
X219670112Y-100364700D01*
X219670112Y-100364700D02*
X219705826Y-100328985D01*
X219705826Y-100328985D02*
X219705826Y-100078985D01*
X219705826Y-100078985D02*
X219562969Y-100078985D01*
X220991541Y-99686128D02*
X220920113Y-99650414D01*
X220920113Y-99650414D02*
X220812970Y-99650414D01*
X220812970Y-99650414D02*
X220705827Y-99686128D01*
X220705827Y-99686128D02*
X220634398Y-99757557D01*
X220634398Y-99757557D02*
X220598684Y-99828985D01*
X220598684Y-99828985D02*
X220562970Y-99971842D01*
X220562970Y-99971842D02*
X220562970Y-100078985D01*
X220562970Y-100078985D02*
X220598684Y-100221842D01*
X220598684Y-100221842D02*
X220634398Y-100293271D01*
X220634398Y-100293271D02*
X220705827Y-100364700D01*
X220705827Y-100364700D02*
X220812970Y-100400414D01*
X220812970Y-100400414D02*
X220884398Y-100400414D01*
X220884398Y-100400414D02*
X220991541Y-100364700D01*
X220991541Y-100364700D02*
X221027255Y-100328985D01*
X221027255Y-100328985D02*
X221027255Y-100078985D01*
X221027255Y-100078985D02*
X220884398Y-100078985D01*
X221348684Y-100400414D02*
X221348684Y-99650414D01*
X221348684Y-99650414D02*
X221634398Y-99650414D01*
X221634398Y-99650414D02*
X221705827Y-99686128D01*
X221705827Y-99686128D02*
X221741541Y-99721842D01*
X221741541Y-99721842D02*
X221777255Y-99793271D01*
X221777255Y-99793271D02*
X221777255Y-99900414D01*
X221777255Y-99900414D02*
X221741541Y-99971842D01*
X221741541Y-99971842D02*
X221705827Y-100007557D01*
X221705827Y-100007557D02*
X221634398Y-100043271D01*
X221634398Y-100043271D02*
X221348684Y-100043271D01*
X222098684Y-100400414D02*
X222098684Y-99650414D01*
X222598684Y-99650414D02*
X222741541Y-99650414D01*
X222741541Y-99650414D02*
X222812970Y-99686128D01*
X222812970Y-99686128D02*
X222884398Y-99757557D01*
X222884398Y-99757557D02*
X222920113Y-99900414D01*
X222920113Y-99900414D02*
X222920113Y-100150414D01*
X222920113Y-100150414D02*
X222884398Y-100293271D01*
X222884398Y-100293271D02*
X222812970Y-100364700D01*
X222812970Y-100364700D02*
X222741541Y-100400414D01*
X222741541Y-100400414D02*
X222598684Y-100400414D01*
X222598684Y-100400414D02*
X222527256Y-100364700D01*
X222527256Y-100364700D02*
X222455827Y-100293271D01*
X222455827Y-100293271D02*
X222420113Y-100150414D01*
X222420113Y-100150414D02*
X222420113Y-99900414D01*
X222420113Y-99900414D02*
X222455827Y-99757557D01*
X222455827Y-99757557D02*
X222527256Y-99686128D01*
X222527256Y-99686128D02*
X222598684Y-99650414D01*
X219170112Y-119686128D02*
X219098684Y-119650414D01*
X219098684Y-119650414D02*
X218991541Y-119650414D01*
X218991541Y-119650414D02*
X218884398Y-119686128D01*
X218884398Y-119686128D02*
X218812969Y-119757557D01*
X218812969Y-119757557D02*
X218777255Y-119828985D01*
X218777255Y-119828985D02*
X218741541Y-119971842D01*
X218741541Y-119971842D02*
X218741541Y-120078985D01*
X218741541Y-120078985D02*
X218777255Y-120221842D01*
X218777255Y-120221842D02*
X218812969Y-120293271D01*
X218812969Y-120293271D02*
X218884398Y-120364700D01*
X218884398Y-120364700D02*
X218991541Y-120400414D01*
X218991541Y-120400414D02*
X219062969Y-120400414D01*
X219062969Y-120400414D02*
X219170112Y-120364700D01*
X219170112Y-120364700D02*
X219205826Y-120328985D01*
X219205826Y-120328985D02*
X219205826Y-120078985D01*
X219205826Y-120078985D02*
X219062969Y-120078985D01*
X219527255Y-120400414D02*
X219527255Y-119650414D01*
X219527255Y-119650414D02*
X219955826Y-120400414D01*
X219955826Y-120400414D02*
X219955826Y-119650414D01*
X220312969Y-120400414D02*
X220312969Y-119650414D01*
X220312969Y-119650414D02*
X220491540Y-119650414D01*
X220491540Y-119650414D02*
X220598683Y-119686128D01*
X220598683Y-119686128D02*
X220670112Y-119757557D01*
X220670112Y-119757557D02*
X220705826Y-119828985D01*
X220705826Y-119828985D02*
X220741540Y-119971842D01*
X220741540Y-119971842D02*
X220741540Y-120078985D01*
X220741540Y-120078985D02*
X220705826Y-120221842D01*
X220705826Y-120221842D02*
X220670112Y-120293271D01*
X220670112Y-120293271D02*
X220598683Y-120364700D01*
X220598683Y-120364700D02*
X220491540Y-120400414D01*
X220491540Y-120400414D02*
X220312969Y-120400414D01*
D12*
X185274435Y-84867219D02*
X185893482Y-84867219D01*
X185893482Y-84867219D02*
X185560149Y-85248171D01*
X185560149Y-85248171D02*
X185703006Y-85248171D01*
X185703006Y-85248171D02*
X185798244Y-85295790D01*
X185798244Y-85295790D02*
X185845863Y-85343409D01*
X185845863Y-85343409D02*
X185893482Y-85438647D01*
X185893482Y-85438647D02*
X185893482Y-85676742D01*
X185893482Y-85676742D02*
X185845863Y-85771980D01*
X185845863Y-85771980D02*
X185798244Y-85819600D01*
X185798244Y-85819600D02*
X185703006Y-85867219D01*
X185703006Y-85867219D02*
X185417292Y-85867219D01*
X185417292Y-85867219D02*
X185322054Y-85819600D01*
X185322054Y-85819600D02*
X185274435Y-85771980D01*
X186179197Y-84867219D02*
X186512530Y-85867219D01*
X186512530Y-85867219D02*
X186845863Y-84867219D01*
X187083959Y-84867219D02*
X187703006Y-84867219D01*
X187703006Y-84867219D02*
X187369673Y-85248171D01*
X187369673Y-85248171D02*
X187512530Y-85248171D01*
X187512530Y-85248171D02*
X187607768Y-85295790D01*
X187607768Y-85295790D02*
X187655387Y-85343409D01*
X187655387Y-85343409D02*
X187703006Y-85438647D01*
X187703006Y-85438647D02*
X187703006Y-85676742D01*
X187703006Y-85676742D02*
X187655387Y-85771980D01*
X187655387Y-85771980D02*
X187607768Y-85819600D01*
X187607768Y-85819600D02*
X187512530Y-85867219D01*
X187512530Y-85867219D02*
X187226816Y-85867219D01*
X187226816Y-85867219D02*
X187131578Y-85819600D01*
X187131578Y-85819600D02*
X187083959Y-85771980D01*
X189464911Y-85867219D02*
X189131578Y-85391028D01*
X188893483Y-85867219D02*
X188893483Y-84867219D01*
X188893483Y-84867219D02*
X189274435Y-84867219D01*
X189274435Y-84867219D02*
X189369673Y-84914838D01*
X189369673Y-84914838D02*
X189417292Y-84962457D01*
X189417292Y-84962457D02*
X189464911Y-85057695D01*
X189464911Y-85057695D02*
X189464911Y-85200552D01*
X189464911Y-85200552D02*
X189417292Y-85295790D01*
X189417292Y-85295790D02*
X189369673Y-85343409D01*
X189369673Y-85343409D02*
X189274435Y-85391028D01*
X189274435Y-85391028D02*
X188893483Y-85391028D01*
X190322054Y-85867219D02*
X190322054Y-85343409D01*
X190322054Y-85343409D02*
X190274435Y-85248171D01*
X190274435Y-85248171D02*
X190179197Y-85200552D01*
X190179197Y-85200552D02*
X189988721Y-85200552D01*
X189988721Y-85200552D02*
X189893483Y-85248171D01*
X190322054Y-85819600D02*
X190226816Y-85867219D01*
X190226816Y-85867219D02*
X189988721Y-85867219D01*
X189988721Y-85867219D02*
X189893483Y-85819600D01*
X189893483Y-85819600D02*
X189845864Y-85724361D01*
X189845864Y-85724361D02*
X189845864Y-85629123D01*
X189845864Y-85629123D02*
X189893483Y-85533885D01*
X189893483Y-85533885D02*
X189988721Y-85486266D01*
X189988721Y-85486266D02*
X190226816Y-85486266D01*
X190226816Y-85486266D02*
X190322054Y-85438647D01*
X190798245Y-85867219D02*
X190798245Y-85200552D01*
X190798245Y-84867219D02*
X190750626Y-84914838D01*
X190750626Y-84914838D02*
X190798245Y-84962457D01*
X190798245Y-84962457D02*
X190845864Y-84914838D01*
X190845864Y-84914838D02*
X190798245Y-84867219D01*
X190798245Y-84867219D02*
X190798245Y-84962457D01*
X191417292Y-85867219D02*
X191322054Y-85819600D01*
X191322054Y-85819600D02*
X191274435Y-85724361D01*
X191274435Y-85724361D02*
X191274435Y-84867219D01*
D10*
X219205826Y-92150414D02*
X219670112Y-92150414D01*
X219670112Y-92150414D02*
X219420112Y-92436128D01*
X219420112Y-92436128D02*
X219527255Y-92436128D01*
X219527255Y-92436128D02*
X219598684Y-92471842D01*
X219598684Y-92471842D02*
X219634398Y-92507557D01*
X219634398Y-92507557D02*
X219670112Y-92578985D01*
X219670112Y-92578985D02*
X219670112Y-92757557D01*
X219670112Y-92757557D02*
X219634398Y-92828985D01*
X219634398Y-92828985D02*
X219598684Y-92864700D01*
X219598684Y-92864700D02*
X219527255Y-92900414D01*
X219527255Y-92900414D02*
X219312969Y-92900414D01*
X219312969Y-92900414D02*
X219241541Y-92864700D01*
X219241541Y-92864700D02*
X219205826Y-92828985D01*
X219884398Y-92150414D02*
X220134398Y-92900414D01*
X220134398Y-92900414D02*
X220384398Y-92150414D01*
X220562969Y-92150414D02*
X221027255Y-92150414D01*
X221027255Y-92150414D02*
X220777255Y-92436128D01*
X220777255Y-92436128D02*
X220884398Y-92436128D01*
X220884398Y-92436128D02*
X220955827Y-92471842D01*
X220955827Y-92471842D02*
X220991541Y-92507557D01*
X220991541Y-92507557D02*
X221027255Y-92578985D01*
X221027255Y-92578985D02*
X221027255Y-92757557D01*
X221027255Y-92757557D02*
X220991541Y-92828985D01*
X220991541Y-92828985D02*
X220955827Y-92864700D01*
X220955827Y-92864700D02*
X220884398Y-92900414D01*
X220884398Y-92900414D02*
X220670112Y-92900414D01*
X220670112Y-92900414D02*
X220598684Y-92864700D01*
X220598684Y-92864700D02*
X220562969Y-92828985D01*
X219670112Y-91186128D02*
X219598684Y-91150414D01*
X219598684Y-91150414D02*
X219491541Y-91150414D01*
X219491541Y-91150414D02*
X219384398Y-91186128D01*
X219384398Y-91186128D02*
X219312969Y-91257557D01*
X219312969Y-91257557D02*
X219277255Y-91328985D01*
X219277255Y-91328985D02*
X219241541Y-91471842D01*
X219241541Y-91471842D02*
X219241541Y-91578985D01*
X219241541Y-91578985D02*
X219277255Y-91721842D01*
X219277255Y-91721842D02*
X219312969Y-91793271D01*
X219312969Y-91793271D02*
X219384398Y-91864700D01*
X219384398Y-91864700D02*
X219491541Y-91900414D01*
X219491541Y-91900414D02*
X219562969Y-91900414D01*
X219562969Y-91900414D02*
X219670112Y-91864700D01*
X219670112Y-91864700D02*
X219705826Y-91828985D01*
X219705826Y-91828985D02*
X219705826Y-91578985D01*
X219705826Y-91578985D02*
X219562969Y-91578985D01*
X220027255Y-91900414D02*
X220027255Y-91150414D01*
X220027255Y-91150414D02*
X220455826Y-91900414D01*
X220455826Y-91900414D02*
X220455826Y-91150414D01*
X220812969Y-91900414D02*
X220812969Y-91150414D01*
X220812969Y-91150414D02*
X220991540Y-91150414D01*
X220991540Y-91150414D02*
X221098683Y-91186128D01*
X221098683Y-91186128D02*
X221170112Y-91257557D01*
X221170112Y-91257557D02*
X221205826Y-91328985D01*
X221205826Y-91328985D02*
X221241540Y-91471842D01*
X221241540Y-91471842D02*
X221241540Y-91578985D01*
X221241540Y-91578985D02*
X221205826Y-91721842D01*
X221205826Y-91721842D02*
X221170112Y-91793271D01*
X221170112Y-91793271D02*
X221098683Y-91864700D01*
X221098683Y-91864700D02*
X220991540Y-91900414D01*
X220991540Y-91900414D02*
X220812969Y-91900414D01*
D12*
X185845863Y-101867219D02*
X185369673Y-101867219D01*
X185369673Y-101867219D02*
X185322054Y-102343409D01*
X185322054Y-102343409D02*
X185369673Y-102295790D01*
X185369673Y-102295790D02*
X185464911Y-102248171D01*
X185464911Y-102248171D02*
X185703006Y-102248171D01*
X185703006Y-102248171D02*
X185798244Y-102295790D01*
X185798244Y-102295790D02*
X185845863Y-102343409D01*
X185845863Y-102343409D02*
X185893482Y-102438647D01*
X185893482Y-102438647D02*
X185893482Y-102676742D01*
X185893482Y-102676742D02*
X185845863Y-102771980D01*
X185845863Y-102771980D02*
X185798244Y-102819600D01*
X185798244Y-102819600D02*
X185703006Y-102867219D01*
X185703006Y-102867219D02*
X185464911Y-102867219D01*
X185464911Y-102867219D02*
X185369673Y-102819600D01*
X185369673Y-102819600D02*
X185322054Y-102771980D01*
X186179197Y-101867219D02*
X186512530Y-102867219D01*
X186512530Y-102867219D02*
X186845863Y-101867219D01*
X188512530Y-102867219D02*
X188179197Y-102391028D01*
X187941102Y-102867219D02*
X187941102Y-101867219D01*
X187941102Y-101867219D02*
X188322054Y-101867219D01*
X188322054Y-101867219D02*
X188417292Y-101914838D01*
X188417292Y-101914838D02*
X188464911Y-101962457D01*
X188464911Y-101962457D02*
X188512530Y-102057695D01*
X188512530Y-102057695D02*
X188512530Y-102200552D01*
X188512530Y-102200552D02*
X188464911Y-102295790D01*
X188464911Y-102295790D02*
X188417292Y-102343409D01*
X188417292Y-102343409D02*
X188322054Y-102391028D01*
X188322054Y-102391028D02*
X187941102Y-102391028D01*
X189369673Y-102867219D02*
X189369673Y-102343409D01*
X189369673Y-102343409D02*
X189322054Y-102248171D01*
X189322054Y-102248171D02*
X189226816Y-102200552D01*
X189226816Y-102200552D02*
X189036340Y-102200552D01*
X189036340Y-102200552D02*
X188941102Y-102248171D01*
X189369673Y-102819600D02*
X189274435Y-102867219D01*
X189274435Y-102867219D02*
X189036340Y-102867219D01*
X189036340Y-102867219D02*
X188941102Y-102819600D01*
X188941102Y-102819600D02*
X188893483Y-102724361D01*
X188893483Y-102724361D02*
X188893483Y-102629123D01*
X188893483Y-102629123D02*
X188941102Y-102533885D01*
X188941102Y-102533885D02*
X189036340Y-102486266D01*
X189036340Y-102486266D02*
X189274435Y-102486266D01*
X189274435Y-102486266D02*
X189369673Y-102438647D01*
X189845864Y-102867219D02*
X189845864Y-102200552D01*
X189845864Y-101867219D02*
X189798245Y-101914838D01*
X189798245Y-101914838D02*
X189845864Y-101962457D01*
X189845864Y-101962457D02*
X189893483Y-101914838D01*
X189893483Y-101914838D02*
X189845864Y-101867219D01*
X189845864Y-101867219D02*
X189845864Y-101962457D01*
X190464911Y-102867219D02*
X190369673Y-102819600D01*
X190369673Y-102819600D02*
X190322054Y-102724361D01*
X190322054Y-102724361D02*
X190322054Y-101867219D01*
D10*
X219277255Y-99400414D02*
X219277255Y-98650414D01*
X219277255Y-98650414D02*
X219562969Y-98650414D01*
X219562969Y-98650414D02*
X219634398Y-98686128D01*
X219634398Y-98686128D02*
X219670112Y-98721842D01*
X219670112Y-98721842D02*
X219705826Y-98793271D01*
X219705826Y-98793271D02*
X219705826Y-98900414D01*
X219705826Y-98900414D02*
X219670112Y-98971842D01*
X219670112Y-98971842D02*
X219634398Y-99007557D01*
X219634398Y-99007557D02*
X219562969Y-99043271D01*
X219562969Y-99043271D02*
X219277255Y-99043271D01*
X219955826Y-98650414D02*
X220134398Y-99400414D01*
X220134398Y-99400414D02*
X220277255Y-98864700D01*
X220277255Y-98864700D02*
X220420112Y-99400414D01*
X220420112Y-99400414D02*
X220598684Y-98650414D01*
X220884398Y-99400414D02*
X220884398Y-98650414D01*
X220884398Y-98650414D02*
X221134398Y-99186128D01*
X221134398Y-99186128D02*
X221384398Y-98650414D01*
X221384398Y-98650414D02*
X221384398Y-99400414D01*
X109333333Y-112609580D02*
X109285714Y-112657200D01*
X109285714Y-112657200D02*
X109142857Y-112704819D01*
X109142857Y-112704819D02*
X109047619Y-112704819D01*
X109047619Y-112704819D02*
X108904762Y-112657200D01*
X108904762Y-112657200D02*
X108809524Y-112561961D01*
X108809524Y-112561961D02*
X108761905Y-112466723D01*
X108761905Y-112466723D02*
X108714286Y-112276247D01*
X108714286Y-112276247D02*
X108714286Y-112133390D01*
X108714286Y-112133390D02*
X108761905Y-111942914D01*
X108761905Y-111942914D02*
X108809524Y-111847676D01*
X108809524Y-111847676D02*
X108904762Y-111752438D01*
X108904762Y-111752438D02*
X109047619Y-111704819D01*
X109047619Y-111704819D02*
X109142857Y-111704819D01*
X109142857Y-111704819D02*
X109285714Y-111752438D01*
X109285714Y-111752438D02*
X109333333Y-111800057D01*
X110285714Y-112704819D02*
X109714286Y-112704819D01*
X110000000Y-112704819D02*
X110000000Y-111704819D01*
X110000000Y-111704819D02*
X109904762Y-111847676D01*
X109904762Y-111847676D02*
X109809524Y-111942914D01*
X109809524Y-111942914D02*
X109714286Y-111990533D01*
X111166666Y-85754819D02*
X111166666Y-86469104D01*
X111166666Y-86469104D02*
X111119047Y-86611961D01*
X111119047Y-86611961D02*
X111023809Y-86707200D01*
X111023809Y-86707200D02*
X110880952Y-86754819D01*
X110880952Y-86754819D02*
X110785714Y-86754819D01*
X112119047Y-85754819D02*
X111642857Y-85754819D01*
X111642857Y-85754819D02*
X111595238Y-86231009D01*
X111595238Y-86231009D02*
X111642857Y-86183390D01*
X111642857Y-86183390D02*
X111738095Y-86135771D01*
X111738095Y-86135771D02*
X111976190Y-86135771D01*
X111976190Y-86135771D02*
X112071428Y-86183390D01*
X112071428Y-86183390D02*
X112119047Y-86231009D01*
X112119047Y-86231009D02*
X112166666Y-86326247D01*
X112166666Y-86326247D02*
X112166666Y-86564342D01*
X112166666Y-86564342D02*
X112119047Y-86659580D01*
X112119047Y-86659580D02*
X112071428Y-86707200D01*
X112071428Y-86707200D02*
X111976190Y-86754819D01*
X111976190Y-86754819D02*
X111738095Y-86754819D01*
X111738095Y-86754819D02*
X111642857Y-86707200D01*
X111642857Y-86707200D02*
X111595238Y-86659580D01*
X174628221Y-89109580D02*
X174580602Y-89157200D01*
X174580602Y-89157200D02*
X174437745Y-89204819D01*
X174437745Y-89204819D02*
X174342507Y-89204819D01*
X174342507Y-89204819D02*
X174199650Y-89157200D01*
X174199650Y-89157200D02*
X174104412Y-89061961D01*
X174104412Y-89061961D02*
X174056793Y-88966723D01*
X174056793Y-88966723D02*
X174009174Y-88776247D01*
X174009174Y-88776247D02*
X174009174Y-88633390D01*
X174009174Y-88633390D02*
X174056793Y-88442914D01*
X174056793Y-88442914D02*
X174104412Y-88347676D01*
X174104412Y-88347676D02*
X174199650Y-88252438D01*
X174199650Y-88252438D02*
X174342507Y-88204819D01*
X174342507Y-88204819D02*
X174437745Y-88204819D01*
X174437745Y-88204819D02*
X174580602Y-88252438D01*
X174580602Y-88252438D02*
X174628221Y-88300057D01*
X174961555Y-88204819D02*
X175580602Y-88204819D01*
X175580602Y-88204819D02*
X175247269Y-88585771D01*
X175247269Y-88585771D02*
X175390126Y-88585771D01*
X175390126Y-88585771D02*
X175485364Y-88633390D01*
X175485364Y-88633390D02*
X175532983Y-88681009D01*
X175532983Y-88681009D02*
X175580602Y-88776247D01*
X175580602Y-88776247D02*
X175580602Y-89014342D01*
X175580602Y-89014342D02*
X175532983Y-89109580D01*
X175532983Y-89109580D02*
X175485364Y-89157200D01*
X175485364Y-89157200D02*
X175390126Y-89204819D01*
X175390126Y-89204819D02*
X175104412Y-89204819D01*
X175104412Y-89204819D02*
X175009174Y-89157200D01*
X175009174Y-89157200D02*
X174961555Y-89109580D01*
X108175595Y-97374819D02*
X108175595Y-98184342D01*
X108175595Y-98184342D02*
X108223214Y-98279580D01*
X108223214Y-98279580D02*
X108270833Y-98327200D01*
X108270833Y-98327200D02*
X108366071Y-98374819D01*
X108366071Y-98374819D02*
X108556547Y-98374819D01*
X108556547Y-98374819D02*
X108651785Y-98327200D01*
X108651785Y-98327200D02*
X108699404Y-98279580D01*
X108699404Y-98279580D02*
X108747023Y-98184342D01*
X108747023Y-98184342D02*
X108747023Y-97374819D01*
X109175595Y-97470057D02*
X109223214Y-97422438D01*
X109223214Y-97422438D02*
X109318452Y-97374819D01*
X109318452Y-97374819D02*
X109556547Y-97374819D01*
X109556547Y-97374819D02*
X109651785Y-97422438D01*
X109651785Y-97422438D02*
X109699404Y-97470057D01*
X109699404Y-97470057D02*
X109747023Y-97565295D01*
X109747023Y-97565295D02*
X109747023Y-97660533D01*
X109747023Y-97660533D02*
X109699404Y-97803390D01*
X109699404Y-97803390D02*
X109127976Y-98374819D01*
X109127976Y-98374819D02*
X109747023Y-98374819D01*
X165464761Y-118197557D02*
X165369523Y-118149938D01*
X165369523Y-118149938D02*
X165274285Y-118054700D01*
X165274285Y-118054700D02*
X165131428Y-117911842D01*
X165131428Y-117911842D02*
X165036190Y-117864223D01*
X165036190Y-117864223D02*
X164940952Y-117864223D01*
X164988571Y-118102319D02*
X164893333Y-118054700D01*
X164893333Y-118054700D02*
X164798095Y-117959461D01*
X164798095Y-117959461D02*
X164750476Y-117768985D01*
X164750476Y-117768985D02*
X164750476Y-117435652D01*
X164750476Y-117435652D02*
X164798095Y-117245176D01*
X164798095Y-117245176D02*
X164893333Y-117149938D01*
X164893333Y-117149938D02*
X164988571Y-117102319D01*
X164988571Y-117102319D02*
X165179047Y-117102319D01*
X165179047Y-117102319D02*
X165274285Y-117149938D01*
X165274285Y-117149938D02*
X165369523Y-117245176D01*
X165369523Y-117245176D02*
X165417142Y-117435652D01*
X165417142Y-117435652D02*
X165417142Y-117768985D01*
X165417142Y-117768985D02*
X165369523Y-117959461D01*
X165369523Y-117959461D02*
X165274285Y-118054700D01*
X165274285Y-118054700D02*
X165179047Y-118102319D01*
X165179047Y-118102319D02*
X164988571Y-118102319D01*
X166369523Y-118102319D02*
X165798095Y-118102319D01*
X166083809Y-118102319D02*
X166083809Y-117102319D01*
X166083809Y-117102319D02*
X165988571Y-117245176D01*
X165988571Y-117245176D02*
X165893333Y-117340414D01*
X165893333Y-117340414D02*
X165798095Y-117388033D01*
X216166666Y-89129819D02*
X216166666Y-89844104D01*
X216166666Y-89844104D02*
X216119047Y-89986961D01*
X216119047Y-89986961D02*
X216023809Y-90082200D01*
X216023809Y-90082200D02*
X215880952Y-90129819D01*
X215880952Y-90129819D02*
X215785714Y-90129819D01*
X216547619Y-89129819D02*
X217166666Y-89129819D01*
X217166666Y-89129819D02*
X216833333Y-89510771D01*
X216833333Y-89510771D02*
X216976190Y-89510771D01*
X216976190Y-89510771D02*
X217071428Y-89558390D01*
X217071428Y-89558390D02*
X217119047Y-89606009D01*
X217119047Y-89606009D02*
X217166666Y-89701247D01*
X217166666Y-89701247D02*
X217166666Y-89939342D01*
X217166666Y-89939342D02*
X217119047Y-90034580D01*
X217119047Y-90034580D02*
X217071428Y-90082200D01*
X217071428Y-90082200D02*
X216976190Y-90129819D01*
X216976190Y-90129819D02*
X216690476Y-90129819D01*
X216690476Y-90129819D02*
X216595238Y-90082200D01*
X216595238Y-90082200D02*
X216547619Y-90034580D01*
X145583333Y-93609580D02*
X145535714Y-93657200D01*
X145535714Y-93657200D02*
X145392857Y-93704819D01*
X145392857Y-93704819D02*
X145297619Y-93704819D01*
X145297619Y-93704819D02*
X145154762Y-93657200D01*
X145154762Y-93657200D02*
X145059524Y-93561961D01*
X145059524Y-93561961D02*
X145011905Y-93466723D01*
X145011905Y-93466723D02*
X144964286Y-93276247D01*
X144964286Y-93276247D02*
X144964286Y-93133390D01*
X144964286Y-93133390D02*
X145011905Y-92942914D01*
X145011905Y-92942914D02*
X145059524Y-92847676D01*
X145059524Y-92847676D02*
X145154762Y-92752438D01*
X145154762Y-92752438D02*
X145297619Y-92704819D01*
X145297619Y-92704819D02*
X145392857Y-92704819D01*
X145392857Y-92704819D02*
X145535714Y-92752438D01*
X145535714Y-92752438D02*
X145583333Y-92800057D01*
X145964286Y-92800057D02*
X146011905Y-92752438D01*
X146011905Y-92752438D02*
X146107143Y-92704819D01*
X146107143Y-92704819D02*
X146345238Y-92704819D01*
X146345238Y-92704819D02*
X146440476Y-92752438D01*
X146440476Y-92752438D02*
X146488095Y-92800057D01*
X146488095Y-92800057D02*
X146535714Y-92895295D01*
X146535714Y-92895295D02*
X146535714Y-92990533D01*
X146535714Y-92990533D02*
X146488095Y-93133390D01*
X146488095Y-93133390D02*
X145916667Y-93704819D01*
X145916667Y-93704819D02*
X146535714Y-93704819D01*
X133583333Y-105959580D02*
X133535714Y-106007200D01*
X133535714Y-106007200D02*
X133392857Y-106054819D01*
X133392857Y-106054819D02*
X133297619Y-106054819D01*
X133297619Y-106054819D02*
X133154762Y-106007200D01*
X133154762Y-106007200D02*
X133059524Y-105911961D01*
X133059524Y-105911961D02*
X133011905Y-105816723D01*
X133011905Y-105816723D02*
X132964286Y-105626247D01*
X132964286Y-105626247D02*
X132964286Y-105483390D01*
X132964286Y-105483390D02*
X133011905Y-105292914D01*
X133011905Y-105292914D02*
X133059524Y-105197676D01*
X133059524Y-105197676D02*
X133154762Y-105102438D01*
X133154762Y-105102438D02*
X133297619Y-105054819D01*
X133297619Y-105054819D02*
X133392857Y-105054819D01*
X133392857Y-105054819D02*
X133535714Y-105102438D01*
X133535714Y-105102438D02*
X133583333Y-105150057D01*
X134154762Y-105483390D02*
X134059524Y-105435771D01*
X134059524Y-105435771D02*
X134011905Y-105388152D01*
X134011905Y-105388152D02*
X133964286Y-105292914D01*
X133964286Y-105292914D02*
X133964286Y-105245295D01*
X133964286Y-105245295D02*
X134011905Y-105150057D01*
X134011905Y-105150057D02*
X134059524Y-105102438D01*
X134059524Y-105102438D02*
X134154762Y-105054819D01*
X134154762Y-105054819D02*
X134345238Y-105054819D01*
X134345238Y-105054819D02*
X134440476Y-105102438D01*
X134440476Y-105102438D02*
X134488095Y-105150057D01*
X134488095Y-105150057D02*
X134535714Y-105245295D01*
X134535714Y-105245295D02*
X134535714Y-105292914D01*
X134535714Y-105292914D02*
X134488095Y-105388152D01*
X134488095Y-105388152D02*
X134440476Y-105435771D01*
X134440476Y-105435771D02*
X134345238Y-105483390D01*
X134345238Y-105483390D02*
X134154762Y-105483390D01*
X134154762Y-105483390D02*
X134059524Y-105531009D01*
X134059524Y-105531009D02*
X134011905Y-105578628D01*
X134011905Y-105578628D02*
X133964286Y-105673866D01*
X133964286Y-105673866D02*
X133964286Y-105864342D01*
X133964286Y-105864342D02*
X134011905Y-105959580D01*
X134011905Y-105959580D02*
X134059524Y-106007200D01*
X134059524Y-106007200D02*
X134154762Y-106054819D01*
X134154762Y-106054819D02*
X134345238Y-106054819D01*
X134345238Y-106054819D02*
X134440476Y-106007200D01*
X134440476Y-106007200D02*
X134488095Y-105959580D01*
X134488095Y-105959580D02*
X134535714Y-105864342D01*
X134535714Y-105864342D02*
X134535714Y-105673866D01*
X134535714Y-105673866D02*
X134488095Y-105578628D01*
X134488095Y-105578628D02*
X134440476Y-105531009D01*
X134440476Y-105531009D02*
X134345238Y-105483390D01*
X120991905Y-104994819D02*
X120991905Y-103994819D01*
X120991905Y-103994819D02*
X121230000Y-103994819D01*
X121230000Y-103994819D02*
X121372857Y-104042438D01*
X121372857Y-104042438D02*
X121468095Y-104137676D01*
X121468095Y-104137676D02*
X121515714Y-104232914D01*
X121515714Y-104232914D02*
X121563333Y-104423390D01*
X121563333Y-104423390D02*
X121563333Y-104566247D01*
X121563333Y-104566247D02*
X121515714Y-104756723D01*
X121515714Y-104756723D02*
X121468095Y-104851961D01*
X121468095Y-104851961D02*
X121372857Y-104947200D01*
X121372857Y-104947200D02*
X121230000Y-104994819D01*
X121230000Y-104994819D02*
X120991905Y-104994819D01*
X121944286Y-104090057D02*
X121991905Y-104042438D01*
X121991905Y-104042438D02*
X122087143Y-103994819D01*
X122087143Y-103994819D02*
X122325238Y-103994819D01*
X122325238Y-103994819D02*
X122420476Y-104042438D01*
X122420476Y-104042438D02*
X122468095Y-104090057D01*
X122468095Y-104090057D02*
X122515714Y-104185295D01*
X122515714Y-104185295D02*
X122515714Y-104280533D01*
X122515714Y-104280533D02*
X122468095Y-104423390D01*
X122468095Y-104423390D02*
X121896667Y-104994819D01*
X121896667Y-104994819D02*
X122515714Y-104994819D01*
X159778095Y-100394819D02*
X159778095Y-101204342D01*
X159778095Y-101204342D02*
X159825714Y-101299580D01*
X159825714Y-101299580D02*
X159873333Y-101347200D01*
X159873333Y-101347200D02*
X159968571Y-101394819D01*
X159968571Y-101394819D02*
X160159047Y-101394819D01*
X160159047Y-101394819D02*
X160254285Y-101347200D01*
X160254285Y-101347200D02*
X160301904Y-101299580D01*
X160301904Y-101299580D02*
X160349523Y-101204342D01*
X160349523Y-101204342D02*
X160349523Y-100394819D01*
X160730476Y-100394819D02*
X161349523Y-100394819D01*
X161349523Y-100394819D02*
X161016190Y-100775771D01*
X161016190Y-100775771D02*
X161159047Y-100775771D01*
X161159047Y-100775771D02*
X161254285Y-100823390D01*
X161254285Y-100823390D02*
X161301904Y-100871009D01*
X161301904Y-100871009D02*
X161349523Y-100966247D01*
X161349523Y-100966247D02*
X161349523Y-101204342D01*
X161349523Y-101204342D02*
X161301904Y-101299580D01*
X161301904Y-101299580D02*
X161254285Y-101347200D01*
X161254285Y-101347200D02*
X161159047Y-101394819D01*
X161159047Y-101394819D02*
X160873333Y-101394819D01*
X160873333Y-101394819D02*
X160778095Y-101347200D01*
X160778095Y-101347200D02*
X160730476Y-101299580D01*
X216166666Y-105209819D02*
X216166666Y-105924104D01*
X216166666Y-105924104D02*
X216119047Y-106066961D01*
X216119047Y-106066961D02*
X216023809Y-106162200D01*
X216023809Y-106162200D02*
X215880952Y-106209819D01*
X215880952Y-106209819D02*
X215785714Y-106209819D01*
X217166666Y-106209819D02*
X216595238Y-106209819D01*
X216880952Y-106209819D02*
X216880952Y-105209819D01*
X216880952Y-105209819D02*
X216785714Y-105352676D01*
X216785714Y-105352676D02*
X216690476Y-105447914D01*
X216690476Y-105447914D02*
X216595238Y-105495533D01*
X216166666Y-116709819D02*
X216166666Y-117424104D01*
X216166666Y-117424104D02*
X216119047Y-117566961D01*
X216119047Y-117566961D02*
X216023809Y-117662200D01*
X216023809Y-117662200D02*
X215880952Y-117709819D01*
X215880952Y-117709819D02*
X215785714Y-117709819D01*
X217071428Y-117043152D02*
X217071428Y-117709819D01*
X216833333Y-116662200D02*
X216595238Y-117376485D01*
X216595238Y-117376485D02*
X217214285Y-117376485D01*
X200793333Y-112324819D02*
X200460000Y-111848628D01*
X200221905Y-112324819D02*
X200221905Y-111324819D01*
X200221905Y-111324819D02*
X200602857Y-111324819D01*
X200602857Y-111324819D02*
X200698095Y-111372438D01*
X200698095Y-111372438D02*
X200745714Y-111420057D01*
X200745714Y-111420057D02*
X200793333Y-111515295D01*
X200793333Y-111515295D02*
X200793333Y-111658152D01*
X200793333Y-111658152D02*
X200745714Y-111753390D01*
X200745714Y-111753390D02*
X200698095Y-111801009D01*
X200698095Y-111801009D02*
X200602857Y-111848628D01*
X200602857Y-111848628D02*
X200221905Y-111848628D01*
X201650476Y-111658152D02*
X201650476Y-112324819D01*
X201412381Y-111277200D02*
X201174286Y-111991485D01*
X201174286Y-111991485D02*
X201793333Y-111991485D01*
X174628221Y-105109580D02*
X174580602Y-105157200D01*
X174580602Y-105157200D02*
X174437745Y-105204819D01*
X174437745Y-105204819D02*
X174342507Y-105204819D01*
X174342507Y-105204819D02*
X174199650Y-105157200D01*
X174199650Y-105157200D02*
X174104412Y-105061961D01*
X174104412Y-105061961D02*
X174056793Y-104966723D01*
X174056793Y-104966723D02*
X174009174Y-104776247D01*
X174009174Y-104776247D02*
X174009174Y-104633390D01*
X174009174Y-104633390D02*
X174056793Y-104442914D01*
X174056793Y-104442914D02*
X174104412Y-104347676D01*
X174104412Y-104347676D02*
X174199650Y-104252438D01*
X174199650Y-104252438D02*
X174342507Y-104204819D01*
X174342507Y-104204819D02*
X174437745Y-104204819D01*
X174437745Y-104204819D02*
X174580602Y-104252438D01*
X174580602Y-104252438D02*
X174628221Y-104300057D01*
X175485364Y-104538152D02*
X175485364Y-105204819D01*
X175247269Y-104157200D02*
X175009174Y-104871485D01*
X175009174Y-104871485D02*
X175628221Y-104871485D01*
X185583333Y-104459580D02*
X185535714Y-104507200D01*
X185535714Y-104507200D02*
X185392857Y-104554819D01*
X185392857Y-104554819D02*
X185297619Y-104554819D01*
X185297619Y-104554819D02*
X185154762Y-104507200D01*
X185154762Y-104507200D02*
X185059524Y-104411961D01*
X185059524Y-104411961D02*
X185011905Y-104316723D01*
X185011905Y-104316723D02*
X184964286Y-104126247D01*
X184964286Y-104126247D02*
X184964286Y-103983390D01*
X184964286Y-103983390D02*
X185011905Y-103792914D01*
X185011905Y-103792914D02*
X185059524Y-103697676D01*
X185059524Y-103697676D02*
X185154762Y-103602438D01*
X185154762Y-103602438D02*
X185297619Y-103554819D01*
X185297619Y-103554819D02*
X185392857Y-103554819D01*
X185392857Y-103554819D02*
X185535714Y-103602438D01*
X185535714Y-103602438D02*
X185583333Y-103650057D01*
X186059524Y-104554819D02*
X186250000Y-104554819D01*
X186250000Y-104554819D02*
X186345238Y-104507200D01*
X186345238Y-104507200D02*
X186392857Y-104459580D01*
X186392857Y-104459580D02*
X186488095Y-104316723D01*
X186488095Y-104316723D02*
X186535714Y-104126247D01*
X186535714Y-104126247D02*
X186535714Y-103745295D01*
X186535714Y-103745295D02*
X186488095Y-103650057D01*
X186488095Y-103650057D02*
X186440476Y-103602438D01*
X186440476Y-103602438D02*
X186345238Y-103554819D01*
X186345238Y-103554819D02*
X186154762Y-103554819D01*
X186154762Y-103554819D02*
X186059524Y-103602438D01*
X186059524Y-103602438D02*
X186011905Y-103650057D01*
X186011905Y-103650057D02*
X185964286Y-103745295D01*
X185964286Y-103745295D02*
X185964286Y-103983390D01*
X185964286Y-103983390D02*
X186011905Y-104078628D01*
X186011905Y-104078628D02*
X186059524Y-104126247D01*
X186059524Y-104126247D02*
X186154762Y-104173866D01*
X186154762Y-104173866D02*
X186345238Y-104173866D01*
X186345238Y-104173866D02*
X186440476Y-104126247D01*
X186440476Y-104126247D02*
X186488095Y-104078628D01*
X186488095Y-104078628D02*
X186535714Y-103983390D01*
X99523333Y-91034819D02*
X99190000Y-90558628D01*
X98951905Y-91034819D02*
X98951905Y-90034819D01*
X98951905Y-90034819D02*
X99332857Y-90034819D01*
X99332857Y-90034819D02*
X99428095Y-90082438D01*
X99428095Y-90082438D02*
X99475714Y-90130057D01*
X99475714Y-90130057D02*
X99523333Y-90225295D01*
X99523333Y-90225295D02*
X99523333Y-90368152D01*
X99523333Y-90368152D02*
X99475714Y-90463390D01*
X99475714Y-90463390D02*
X99428095Y-90511009D01*
X99428095Y-90511009D02*
X99332857Y-90558628D01*
X99332857Y-90558628D02*
X98951905Y-90558628D01*
X100475714Y-91034819D02*
X99904286Y-91034819D01*
X100190000Y-91034819D02*
X100190000Y-90034819D01*
X100190000Y-90034819D02*
X100094762Y-90177676D01*
X100094762Y-90177676D02*
X99999524Y-90272914D01*
X99999524Y-90272914D02*
X99904286Y-90320533D01*
X120991905Y-113994819D02*
X120991905Y-112994819D01*
X120991905Y-112994819D02*
X121230000Y-112994819D01*
X121230000Y-112994819D02*
X121372857Y-113042438D01*
X121372857Y-113042438D02*
X121468095Y-113137676D01*
X121468095Y-113137676D02*
X121515714Y-113232914D01*
X121515714Y-113232914D02*
X121563333Y-113423390D01*
X121563333Y-113423390D02*
X121563333Y-113566247D01*
X121563333Y-113566247D02*
X121515714Y-113756723D01*
X121515714Y-113756723D02*
X121468095Y-113851961D01*
X121468095Y-113851961D02*
X121372857Y-113947200D01*
X121372857Y-113947200D02*
X121230000Y-113994819D01*
X121230000Y-113994819D02*
X120991905Y-113994819D01*
X122515714Y-113994819D02*
X121944286Y-113994819D01*
X122230000Y-113994819D02*
X122230000Y-112994819D01*
X122230000Y-112994819D02*
X122134762Y-113137676D01*
X122134762Y-113137676D02*
X122039524Y-113232914D01*
X122039524Y-113232914D02*
X121944286Y-113280533D01*
X121023333Y-92534819D02*
X120690000Y-92058628D01*
X120451905Y-92534819D02*
X120451905Y-91534819D01*
X120451905Y-91534819D02*
X120832857Y-91534819D01*
X120832857Y-91534819D02*
X120928095Y-91582438D01*
X120928095Y-91582438D02*
X120975714Y-91630057D01*
X120975714Y-91630057D02*
X121023333Y-91725295D01*
X121023333Y-91725295D02*
X121023333Y-91868152D01*
X121023333Y-91868152D02*
X120975714Y-91963390D01*
X120975714Y-91963390D02*
X120928095Y-92011009D01*
X120928095Y-92011009D02*
X120832857Y-92058628D01*
X120832857Y-92058628D02*
X120451905Y-92058628D01*
X121356667Y-91534819D02*
X121975714Y-91534819D01*
X121975714Y-91534819D02*
X121642381Y-91915771D01*
X121642381Y-91915771D02*
X121785238Y-91915771D01*
X121785238Y-91915771D02*
X121880476Y-91963390D01*
X121880476Y-91963390D02*
X121928095Y-92011009D01*
X121928095Y-92011009D02*
X121975714Y-92106247D01*
X121975714Y-92106247D02*
X121975714Y-92344342D01*
X121975714Y-92344342D02*
X121928095Y-92439580D01*
X121928095Y-92439580D02*
X121880476Y-92487200D01*
X121880476Y-92487200D02*
X121785238Y-92534819D01*
X121785238Y-92534819D02*
X121499524Y-92534819D01*
X121499524Y-92534819D02*
X121404286Y-92487200D01*
X121404286Y-92487200D02*
X121356667Y-92439580D01*
X97166666Y-100319819D02*
X97166666Y-101034104D01*
X97166666Y-101034104D02*
X97119047Y-101176961D01*
X97119047Y-101176961D02*
X97023809Y-101272200D01*
X97023809Y-101272200D02*
X96880952Y-101319819D01*
X96880952Y-101319819D02*
X96785714Y-101319819D01*
X97595238Y-100415057D02*
X97642857Y-100367438D01*
X97642857Y-100367438D02*
X97738095Y-100319819D01*
X97738095Y-100319819D02*
X97976190Y-100319819D01*
X97976190Y-100319819D02*
X98071428Y-100367438D01*
X98071428Y-100367438D02*
X98119047Y-100415057D01*
X98119047Y-100415057D02*
X98166666Y-100510295D01*
X98166666Y-100510295D02*
X98166666Y-100605533D01*
X98166666Y-100605533D02*
X98119047Y-100748390D01*
X98119047Y-100748390D02*
X97547619Y-101319819D01*
X97547619Y-101319819D02*
X98166666Y-101319819D01*
X146083333Y-106609580D02*
X146035714Y-106657200D01*
X146035714Y-106657200D02*
X145892857Y-106704819D01*
X145892857Y-106704819D02*
X145797619Y-106704819D01*
X145797619Y-106704819D02*
X145654762Y-106657200D01*
X145654762Y-106657200D02*
X145559524Y-106561961D01*
X145559524Y-106561961D02*
X145511905Y-106466723D01*
X145511905Y-106466723D02*
X145464286Y-106276247D01*
X145464286Y-106276247D02*
X145464286Y-106133390D01*
X145464286Y-106133390D02*
X145511905Y-105942914D01*
X145511905Y-105942914D02*
X145559524Y-105847676D01*
X145559524Y-105847676D02*
X145654762Y-105752438D01*
X145654762Y-105752438D02*
X145797619Y-105704819D01*
X145797619Y-105704819D02*
X145892857Y-105704819D01*
X145892857Y-105704819D02*
X146035714Y-105752438D01*
X146035714Y-105752438D02*
X146083333Y-105800057D01*
X146988095Y-105704819D02*
X146511905Y-105704819D01*
X146511905Y-105704819D02*
X146464286Y-106181009D01*
X146464286Y-106181009D02*
X146511905Y-106133390D01*
X146511905Y-106133390D02*
X146607143Y-106085771D01*
X146607143Y-106085771D02*
X146845238Y-106085771D01*
X146845238Y-106085771D02*
X146940476Y-106133390D01*
X146940476Y-106133390D02*
X146988095Y-106181009D01*
X146988095Y-106181009D02*
X147035714Y-106276247D01*
X147035714Y-106276247D02*
X147035714Y-106514342D01*
X147035714Y-106514342D02*
X146988095Y-106609580D01*
X146988095Y-106609580D02*
X146940476Y-106657200D01*
X146940476Y-106657200D02*
X146845238Y-106704819D01*
X146845238Y-106704819D02*
X146607143Y-106704819D01*
X146607143Y-106704819D02*
X146511905Y-106657200D01*
X146511905Y-106657200D02*
X146464286Y-106609580D01*
X185583333Y-88459580D02*
X185535714Y-88507200D01*
X185535714Y-88507200D02*
X185392857Y-88554819D01*
X185392857Y-88554819D02*
X185297619Y-88554819D01*
X185297619Y-88554819D02*
X185154762Y-88507200D01*
X185154762Y-88507200D02*
X185059524Y-88411961D01*
X185059524Y-88411961D02*
X185011905Y-88316723D01*
X185011905Y-88316723D02*
X184964286Y-88126247D01*
X184964286Y-88126247D02*
X184964286Y-87983390D01*
X184964286Y-87983390D02*
X185011905Y-87792914D01*
X185011905Y-87792914D02*
X185059524Y-87697676D01*
X185059524Y-87697676D02*
X185154762Y-87602438D01*
X185154762Y-87602438D02*
X185297619Y-87554819D01*
X185297619Y-87554819D02*
X185392857Y-87554819D01*
X185392857Y-87554819D02*
X185535714Y-87602438D01*
X185535714Y-87602438D02*
X185583333Y-87650057D01*
X185916667Y-87554819D02*
X186583333Y-87554819D01*
X186583333Y-87554819D02*
X186154762Y-88554819D01*
X160830595Y-84102319D02*
X160830595Y-84911842D01*
X160830595Y-84911842D02*
X160878214Y-85007080D01*
X160878214Y-85007080D02*
X160925833Y-85054700D01*
X160925833Y-85054700D02*
X161021071Y-85102319D01*
X161021071Y-85102319D02*
X161211547Y-85102319D01*
X161211547Y-85102319D02*
X161306785Y-85054700D01*
X161306785Y-85054700D02*
X161354404Y-85007080D01*
X161354404Y-85007080D02*
X161402023Y-84911842D01*
X161402023Y-84911842D02*
X161402023Y-84102319D01*
X162402023Y-85102319D02*
X161830595Y-85102319D01*
X162116309Y-85102319D02*
X162116309Y-84102319D01*
X162116309Y-84102319D02*
X162021071Y-84245176D01*
X162021071Y-84245176D02*
X161925833Y-84340414D01*
X161925833Y-84340414D02*
X161830595Y-84388033D01*
X121023333Y-98534819D02*
X120690000Y-98058628D01*
X120451905Y-98534819D02*
X120451905Y-97534819D01*
X120451905Y-97534819D02*
X120832857Y-97534819D01*
X120832857Y-97534819D02*
X120928095Y-97582438D01*
X120928095Y-97582438D02*
X120975714Y-97630057D01*
X120975714Y-97630057D02*
X121023333Y-97725295D01*
X121023333Y-97725295D02*
X121023333Y-97868152D01*
X121023333Y-97868152D02*
X120975714Y-97963390D01*
X120975714Y-97963390D02*
X120928095Y-98011009D01*
X120928095Y-98011009D02*
X120832857Y-98058628D01*
X120832857Y-98058628D02*
X120451905Y-98058628D01*
X121404286Y-97630057D02*
X121451905Y-97582438D01*
X121451905Y-97582438D02*
X121547143Y-97534819D01*
X121547143Y-97534819D02*
X121785238Y-97534819D01*
X121785238Y-97534819D02*
X121880476Y-97582438D01*
X121880476Y-97582438D02*
X121928095Y-97630057D01*
X121928095Y-97630057D02*
X121975714Y-97725295D01*
X121975714Y-97725295D02*
X121975714Y-97820533D01*
X121975714Y-97820533D02*
X121928095Y-97963390D01*
X121928095Y-97963390D02*
X121356667Y-98534819D01*
X121356667Y-98534819D02*
X121975714Y-98534819D01*
X201793333Y-89584819D02*
X201460000Y-89108628D01*
X201221905Y-89584819D02*
X201221905Y-88584819D01*
X201221905Y-88584819D02*
X201602857Y-88584819D01*
X201602857Y-88584819D02*
X201698095Y-88632438D01*
X201698095Y-88632438D02*
X201745714Y-88680057D01*
X201745714Y-88680057D02*
X201793333Y-88775295D01*
X201793333Y-88775295D02*
X201793333Y-88918152D01*
X201793333Y-88918152D02*
X201745714Y-89013390D01*
X201745714Y-89013390D02*
X201698095Y-89061009D01*
X201698095Y-89061009D02*
X201602857Y-89108628D01*
X201602857Y-89108628D02*
X201221905Y-89108628D01*
X202698095Y-88584819D02*
X202221905Y-88584819D01*
X202221905Y-88584819D02*
X202174286Y-89061009D01*
X202174286Y-89061009D02*
X202221905Y-89013390D01*
X202221905Y-89013390D02*
X202317143Y-88965771D01*
X202317143Y-88965771D02*
X202555238Y-88965771D01*
X202555238Y-88965771D02*
X202650476Y-89013390D01*
X202650476Y-89013390D02*
X202698095Y-89061009D01*
X202698095Y-89061009D02*
X202745714Y-89156247D01*
X202745714Y-89156247D02*
X202745714Y-89394342D01*
X202745714Y-89394342D02*
X202698095Y-89489580D01*
X202698095Y-89489580D02*
X202650476Y-89537200D01*
X202650476Y-89537200D02*
X202555238Y-89584819D01*
X202555238Y-89584819D02*
X202317143Y-89584819D01*
X202317143Y-89584819D02*
X202221905Y-89537200D01*
X202221905Y-89537200D02*
X202174286Y-89489580D01*
X133583333Y-92959580D02*
X133535714Y-93007200D01*
X133535714Y-93007200D02*
X133392857Y-93054819D01*
X133392857Y-93054819D02*
X133297619Y-93054819D01*
X133297619Y-93054819D02*
X133154762Y-93007200D01*
X133154762Y-93007200D02*
X133059524Y-92911961D01*
X133059524Y-92911961D02*
X133011905Y-92816723D01*
X133011905Y-92816723D02*
X132964286Y-92626247D01*
X132964286Y-92626247D02*
X132964286Y-92483390D01*
X132964286Y-92483390D02*
X133011905Y-92292914D01*
X133011905Y-92292914D02*
X133059524Y-92197676D01*
X133059524Y-92197676D02*
X133154762Y-92102438D01*
X133154762Y-92102438D02*
X133297619Y-92054819D01*
X133297619Y-92054819D02*
X133392857Y-92054819D01*
X133392857Y-92054819D02*
X133535714Y-92102438D01*
X133535714Y-92102438D02*
X133583333Y-92150057D01*
X134440476Y-92054819D02*
X134250000Y-92054819D01*
X134250000Y-92054819D02*
X134154762Y-92102438D01*
X134154762Y-92102438D02*
X134107143Y-92150057D01*
X134107143Y-92150057D02*
X134011905Y-92292914D01*
X134011905Y-92292914D02*
X133964286Y-92483390D01*
X133964286Y-92483390D02*
X133964286Y-92864342D01*
X133964286Y-92864342D02*
X134011905Y-92959580D01*
X134011905Y-92959580D02*
X134059524Y-93007200D01*
X134059524Y-93007200D02*
X134154762Y-93054819D01*
X134154762Y-93054819D02*
X134345238Y-93054819D01*
X134345238Y-93054819D02*
X134440476Y-93007200D01*
X134440476Y-93007200D02*
X134488095Y-92959580D01*
X134488095Y-92959580D02*
X134535714Y-92864342D01*
X134535714Y-92864342D02*
X134535714Y-92626247D01*
X134535714Y-92626247D02*
X134488095Y-92531009D01*
X134488095Y-92531009D02*
X134440476Y-92483390D01*
X134440476Y-92483390D02*
X134345238Y-92435771D01*
X134345238Y-92435771D02*
X134154762Y-92435771D01*
X134154762Y-92435771D02*
X134059524Y-92483390D01*
X134059524Y-92483390D02*
X134011905Y-92531009D01*
X134011905Y-92531009D02*
X133964286Y-92626247D01*
D13*
%TO.C,C1*%
X106695225Y-114525000D02*
X107195225Y-114525000D01*
X106945225Y-114275000D02*
X106945225Y-114775000D01*
X109500000Y-113420000D02*
X109500000Y-114960000D01*
X109500000Y-117040000D02*
X109500000Y-118580000D01*
X109540000Y-113420000D02*
X109540000Y-114960000D01*
X109540000Y-117040000D02*
X109540000Y-118580000D01*
X109580000Y-113421000D02*
X109580000Y-114960000D01*
X109580000Y-117040000D02*
X109580000Y-118579000D01*
X109620000Y-113423000D02*
X109620000Y-114960000D01*
X109620000Y-117040000D02*
X109620000Y-118577000D01*
X109660000Y-113425000D02*
X109660000Y-114960000D01*
X109660000Y-117040000D02*
X109660000Y-118575000D01*
X109700000Y-113428000D02*
X109700000Y-114960000D01*
X109700000Y-117040000D02*
X109700000Y-118572000D01*
X109740000Y-113431000D02*
X109740000Y-114960000D01*
X109740000Y-117040000D02*
X109740000Y-118569000D01*
X109780000Y-113435000D02*
X109780000Y-114960000D01*
X109780000Y-117040000D02*
X109780000Y-118565000D01*
X109820000Y-113440000D02*
X109820000Y-114960000D01*
X109820000Y-117040000D02*
X109820000Y-118560000D01*
X109860000Y-113445000D02*
X109860000Y-114960000D01*
X109860000Y-117040000D02*
X109860000Y-118555000D01*
X109900000Y-113451000D02*
X109900000Y-114960000D01*
X109900000Y-117040000D02*
X109900000Y-118549000D01*
X109940000Y-113457000D02*
X109940000Y-114960000D01*
X109940000Y-117040000D02*
X109940000Y-118543000D01*
X109980000Y-113464000D02*
X109980000Y-114960000D01*
X109980000Y-117040000D02*
X109980000Y-118536000D01*
X110020000Y-113472000D02*
X110020000Y-114960000D01*
X110020000Y-117040000D02*
X110020000Y-118528000D01*
X110060000Y-113481000D02*
X110060000Y-114960000D01*
X110060000Y-117040000D02*
X110060000Y-118519000D01*
X110100000Y-113490000D02*
X110100000Y-114960000D01*
X110100000Y-117040000D02*
X110100000Y-118510000D01*
X110140000Y-113499000D02*
X110140000Y-114960000D01*
X110140000Y-117040000D02*
X110140000Y-118501000D01*
X110180000Y-113510000D02*
X110180000Y-114960000D01*
X110180000Y-117040000D02*
X110180000Y-118490000D01*
X110220000Y-113521000D02*
X110220000Y-114960000D01*
X110220000Y-117040000D02*
X110220000Y-118479000D01*
X110260000Y-113533000D02*
X110260000Y-114960000D01*
X110260000Y-117040000D02*
X110260000Y-118467000D01*
X110300000Y-113545000D02*
X110300000Y-114960000D01*
X110300000Y-117040000D02*
X110300000Y-118455000D01*
X110340000Y-113558000D02*
X110340000Y-114960000D01*
X110340000Y-117040000D02*
X110340000Y-118442000D01*
X110380000Y-113572000D02*
X110380000Y-114960000D01*
X110380000Y-117040000D02*
X110380000Y-118428000D01*
X110420000Y-113587000D02*
X110420000Y-114960000D01*
X110420000Y-117040000D02*
X110420000Y-118413000D01*
X110460000Y-113602000D02*
X110460000Y-114960000D01*
X110460000Y-117040000D02*
X110460000Y-118398000D01*
X110500000Y-113618000D02*
X110500000Y-114960000D01*
X110500000Y-117040000D02*
X110500000Y-118382000D01*
X110540000Y-113635000D02*
X110540000Y-114960000D01*
X110540000Y-117040000D02*
X110540000Y-118365000D01*
X110580000Y-113653000D02*
X110580000Y-114960000D01*
X110580000Y-117040000D02*
X110580000Y-118347000D01*
X110620000Y-113671000D02*
X110620000Y-114960000D01*
X110620000Y-117040000D02*
X110620000Y-118329000D01*
X110660000Y-113691000D02*
X110660000Y-114960000D01*
X110660000Y-117040000D02*
X110660000Y-118309000D01*
X110700000Y-113711000D02*
X110700000Y-114960000D01*
X110700000Y-117040000D02*
X110700000Y-118289000D01*
X110740000Y-113732000D02*
X110740000Y-114960000D01*
X110740000Y-117040000D02*
X110740000Y-118268000D01*
X110780000Y-113754000D02*
X110780000Y-114960000D01*
X110780000Y-117040000D02*
X110780000Y-118246000D01*
X110820000Y-113777000D02*
X110820000Y-114960000D01*
X110820000Y-117040000D02*
X110820000Y-118223000D01*
X110860000Y-113801000D02*
X110860000Y-114960000D01*
X110860000Y-117040000D02*
X110860000Y-118199000D01*
X110900000Y-113825000D02*
X110900000Y-114960000D01*
X110900000Y-117040000D02*
X110900000Y-118175000D01*
X110940000Y-113851000D02*
X110940000Y-114960000D01*
X110940000Y-117040000D02*
X110940000Y-118149000D01*
X110980000Y-113878000D02*
X110980000Y-114960000D01*
X110980000Y-117040000D02*
X110980000Y-118122000D01*
X111020000Y-113906000D02*
X111020000Y-114960000D01*
X111020000Y-117040000D02*
X111020000Y-118094000D01*
X111060000Y-113935000D02*
X111060000Y-114960000D01*
X111060000Y-117040000D02*
X111060000Y-118065000D01*
X111100000Y-113965000D02*
X111100000Y-114960000D01*
X111100000Y-117040000D02*
X111100000Y-118035000D01*
X111140000Y-113997000D02*
X111140000Y-114960000D01*
X111140000Y-117040000D02*
X111140000Y-118003000D01*
X111180000Y-114030000D02*
X111180000Y-114960000D01*
X111180000Y-117040000D02*
X111180000Y-117970000D01*
X111220000Y-114064000D02*
X111220000Y-114960000D01*
X111220000Y-117040000D02*
X111220000Y-117936000D01*
X111260000Y-114099000D02*
X111260000Y-114960000D01*
X111260000Y-117040000D02*
X111260000Y-117901000D01*
X111300000Y-114136000D02*
X111300000Y-114960000D01*
X111300000Y-117040000D02*
X111300000Y-117864000D01*
X111340000Y-114175000D02*
X111340000Y-114960000D01*
X111340000Y-117040000D02*
X111340000Y-117825000D01*
X111380000Y-114215000D02*
X111380000Y-114960000D01*
X111380000Y-117040000D02*
X111380000Y-117785000D01*
X111420000Y-114257000D02*
X111420000Y-114960000D01*
X111420000Y-117040000D02*
X111420000Y-117743000D01*
X111460000Y-114301000D02*
X111460000Y-114960000D01*
X111460000Y-117040000D02*
X111460000Y-117699000D01*
X111500000Y-114348000D02*
X111500000Y-114960000D01*
X111500000Y-117040000D02*
X111500000Y-117652000D01*
X111540000Y-114396000D02*
X111540000Y-117604000D01*
X111580000Y-114447000D02*
X111580000Y-117553000D01*
X111620000Y-114501000D02*
X111620000Y-117499000D01*
X111660000Y-114557000D02*
X111660000Y-117443000D01*
X111700000Y-114617000D02*
X111700000Y-117383000D01*
X111740000Y-114681000D02*
X111740000Y-117319000D01*
X111780000Y-114749000D02*
X111780000Y-117251000D01*
X111820000Y-114823000D02*
X111820000Y-117177000D01*
X111860000Y-114902000D02*
X111860000Y-117098000D01*
X111900000Y-114989000D02*
X111900000Y-117011000D01*
X111940000Y-115086000D02*
X111940000Y-116914000D01*
X111980000Y-115195000D02*
X111980000Y-116805000D01*
X112020000Y-115323000D02*
X112020000Y-116677000D01*
X112060000Y-115483000D02*
X112060000Y-116517000D01*
X112100000Y-115717000D02*
X112100000Y-116283000D01*
X112120000Y-116000000D02*
G75*
G02*
X106880000Y-116000000I-2620000J0D01*
G01*
X106880000Y-116000000D02*
G75*
G02*
X112120000Y-116000000I2620000J0D01*
G01*
%TO.C,J5*%
X106390000Y-71890000D02*
X116610000Y-71890000D01*
X106390000Y-74950000D02*
X106390000Y-71890000D01*
X106390000Y-85110000D02*
X106390000Y-79050000D01*
X109200000Y-85110000D02*
X106390000Y-85110000D01*
X112500000Y-85300000D02*
X110500000Y-85300000D01*
X116610000Y-71890000D02*
X116610000Y-74950000D01*
X116610000Y-79050000D02*
X116610000Y-85110000D01*
X116610000Y-85110000D02*
X113800000Y-85110000D01*
%TO.C,C3*%
X171990113Y-91025000D02*
X172490113Y-91025000D01*
X172240113Y-90775000D02*
X172240113Y-91275000D01*
X174794888Y-89920000D02*
X174794888Y-95080000D01*
X174834888Y-89920000D02*
X174834888Y-95080000D01*
X174874888Y-89921000D02*
X174874888Y-95079000D01*
X174914888Y-89923000D02*
X174914888Y-95077000D01*
X174954888Y-89925000D02*
X174954888Y-95075000D01*
X174994888Y-89928000D02*
X174994888Y-95072000D01*
X175034888Y-89931000D02*
X175034888Y-91460000D01*
X175034888Y-93540000D02*
X175034888Y-95069000D01*
X175074888Y-89935000D02*
X175074888Y-91460000D01*
X175074888Y-93540000D02*
X175074888Y-95065000D01*
X175114888Y-89940000D02*
X175114888Y-91460000D01*
X175114888Y-93540000D02*
X175114888Y-95060000D01*
X175154888Y-89945000D02*
X175154888Y-91460000D01*
X175154888Y-93540000D02*
X175154888Y-95055000D01*
X175194888Y-89951000D02*
X175194888Y-91460000D01*
X175194888Y-93540000D02*
X175194888Y-95049000D01*
X175234888Y-89957000D02*
X175234888Y-91460000D01*
X175234888Y-93540000D02*
X175234888Y-95043000D01*
X175274888Y-89964000D02*
X175274888Y-91460000D01*
X175274888Y-93540000D02*
X175274888Y-95036000D01*
X175314888Y-89972000D02*
X175314888Y-91460000D01*
X175314888Y-93540000D02*
X175314888Y-95028000D01*
X175354888Y-89981000D02*
X175354888Y-91460000D01*
X175354888Y-93540000D02*
X175354888Y-95019000D01*
X175394888Y-89990000D02*
X175394888Y-91460000D01*
X175394888Y-93540000D02*
X175394888Y-95010000D01*
X175434888Y-89999000D02*
X175434888Y-91460000D01*
X175434888Y-93540000D02*
X175434888Y-95001000D01*
X175474888Y-90010000D02*
X175474888Y-91460000D01*
X175474888Y-93540000D02*
X175474888Y-94990000D01*
X175514888Y-90021000D02*
X175514888Y-91460000D01*
X175514888Y-93540000D02*
X175514888Y-94979000D01*
X175554888Y-90033000D02*
X175554888Y-91460000D01*
X175554888Y-93540000D02*
X175554888Y-94967000D01*
X175594888Y-90045000D02*
X175594888Y-91460000D01*
X175594888Y-93540000D02*
X175594888Y-94955000D01*
X175634888Y-90058000D02*
X175634888Y-91460000D01*
X175634888Y-93540000D02*
X175634888Y-94942000D01*
X175674888Y-90072000D02*
X175674888Y-91460000D01*
X175674888Y-93540000D02*
X175674888Y-94928000D01*
X175714888Y-90087000D02*
X175714888Y-91460000D01*
X175714888Y-93540000D02*
X175714888Y-94913000D01*
X175754888Y-90102000D02*
X175754888Y-91460000D01*
X175754888Y-93540000D02*
X175754888Y-94898000D01*
X175794888Y-90118000D02*
X175794888Y-91460000D01*
X175794888Y-93540000D02*
X175794888Y-94882000D01*
X175834888Y-90135000D02*
X175834888Y-91460000D01*
X175834888Y-93540000D02*
X175834888Y-94865000D01*
X175874888Y-90153000D02*
X175874888Y-91460000D01*
X175874888Y-93540000D02*
X175874888Y-94847000D01*
X175914888Y-90171000D02*
X175914888Y-91460000D01*
X175914888Y-93540000D02*
X175914888Y-94829000D01*
X175954888Y-90191000D02*
X175954888Y-91460000D01*
X175954888Y-93540000D02*
X175954888Y-94809000D01*
X175994888Y-90211000D02*
X175994888Y-91460000D01*
X175994888Y-93540000D02*
X175994888Y-94789000D01*
X176034888Y-90232000D02*
X176034888Y-91460000D01*
X176034888Y-93540000D02*
X176034888Y-94768000D01*
X176074888Y-90254000D02*
X176074888Y-91460000D01*
X176074888Y-93540000D02*
X176074888Y-94746000D01*
X176114888Y-90277000D02*
X176114888Y-91460000D01*
X176114888Y-93540000D02*
X176114888Y-94723000D01*
X176154888Y-90301000D02*
X176154888Y-91460000D01*
X176154888Y-93540000D02*
X176154888Y-94699000D01*
X176194888Y-90325000D02*
X176194888Y-91460000D01*
X176194888Y-93540000D02*
X176194888Y-94675000D01*
X176234888Y-90351000D02*
X176234888Y-91460000D01*
X176234888Y-93540000D02*
X176234888Y-94649000D01*
X176274888Y-90378000D02*
X176274888Y-91460000D01*
X176274888Y-93540000D02*
X176274888Y-94622000D01*
X176314888Y-90406000D02*
X176314888Y-91460000D01*
X176314888Y-93540000D02*
X176314888Y-94594000D01*
X176354888Y-90435000D02*
X176354888Y-91460000D01*
X176354888Y-93540000D02*
X176354888Y-94565000D01*
X176394888Y-90465000D02*
X176394888Y-91460000D01*
X176394888Y-93540000D02*
X176394888Y-94535000D01*
X176434888Y-90497000D02*
X176434888Y-91460000D01*
X176434888Y-93540000D02*
X176434888Y-94503000D01*
X176474888Y-90530000D02*
X176474888Y-91460000D01*
X176474888Y-93540000D02*
X176474888Y-94470000D01*
X176514888Y-90564000D02*
X176514888Y-91460000D01*
X176514888Y-93540000D02*
X176514888Y-94436000D01*
X176554888Y-90599000D02*
X176554888Y-91460000D01*
X176554888Y-93540000D02*
X176554888Y-94401000D01*
X176594888Y-90636000D02*
X176594888Y-91460000D01*
X176594888Y-93540000D02*
X176594888Y-94364000D01*
X176634888Y-90675000D02*
X176634888Y-91460000D01*
X176634888Y-93540000D02*
X176634888Y-94325000D01*
X176674888Y-90715000D02*
X176674888Y-91460000D01*
X176674888Y-93540000D02*
X176674888Y-94285000D01*
X176714888Y-90757000D02*
X176714888Y-91460000D01*
X176714888Y-93540000D02*
X176714888Y-94243000D01*
X176754888Y-90801000D02*
X176754888Y-91460000D01*
X176754888Y-93540000D02*
X176754888Y-94199000D01*
X176794888Y-90848000D02*
X176794888Y-91460000D01*
X176794888Y-93540000D02*
X176794888Y-94152000D01*
X176834888Y-90896000D02*
X176834888Y-91460000D01*
X176834888Y-93540000D02*
X176834888Y-94104000D01*
X176874888Y-90947000D02*
X176874888Y-91460000D01*
X176874888Y-93540000D02*
X176874888Y-94053000D01*
X176914888Y-91001000D02*
X176914888Y-91460000D01*
X176914888Y-93540000D02*
X176914888Y-93999000D01*
X176954888Y-91057000D02*
X176954888Y-91460000D01*
X176954888Y-93540000D02*
X176954888Y-93943000D01*
X176994888Y-91117000D02*
X176994888Y-91460000D01*
X176994888Y-93540000D02*
X176994888Y-93883000D01*
X177034888Y-91181000D02*
X177034888Y-91460000D01*
X177034888Y-93540000D02*
X177034888Y-93819000D01*
X177074888Y-91249000D02*
X177074888Y-91460000D01*
X177074888Y-93540000D02*
X177074888Y-93751000D01*
X177114888Y-91323000D02*
X177114888Y-93677000D01*
X177154888Y-91402000D02*
X177154888Y-93598000D01*
X177194888Y-91489000D02*
X177194888Y-93511000D01*
X177234888Y-91586000D02*
X177234888Y-93414000D01*
X177274888Y-91695000D02*
X177274888Y-93305000D01*
X177314888Y-91823000D02*
X177314888Y-93177000D01*
X177354888Y-91983000D02*
X177354888Y-93017000D01*
X177394888Y-92217000D02*
X177394888Y-92783000D01*
X177414888Y-92500000D02*
G75*
G02*
X172174888Y-92500000I-2620000J0D01*
G01*
X172174888Y-92500000D02*
G75*
G02*
X177414888Y-92500000I2620000J0D01*
G01*
%TO.C,U2*%
X107327500Y-99140000D02*
X107802500Y-99140000D01*
X107327500Y-99615000D02*
X107327500Y-99140000D01*
X107327500Y-102360000D02*
X107327500Y-101885000D01*
X107802500Y-102360000D02*
X107327500Y-102360000D01*
X110072500Y-99140000D02*
X110547500Y-99140000D01*
X110547500Y-99140000D02*
X110547500Y-99615000D01*
X110547500Y-101885000D02*
X110547500Y-102360000D01*
X110547500Y-102360000D02*
X110072500Y-102360000D01*
X106797500Y-100000000D02*
X106467500Y-100240000D01*
X106467500Y-99760000D01*
X106797500Y-100000000D01*
G36*
X106797500Y-100000000D02*
G01*
X106467500Y-100240000D01*
X106467500Y-99760000D01*
X106797500Y-100000000D01*
G37*
%TO.C,Q1*%
X164800000Y-118487500D02*
X166320000Y-118487500D01*
X164800000Y-118537500D02*
X164800000Y-118487500D01*
X164800000Y-120437500D02*
X164800000Y-119657500D01*
X164800000Y-121607500D02*
X164800000Y-121557500D01*
X166320000Y-118487500D02*
X166320000Y-119487500D01*
X166320000Y-120607500D02*
X166320000Y-121607500D01*
X166320000Y-121607500D02*
X164800000Y-121607500D01*
X164500000Y-119997500D02*
X164020000Y-119997500D01*
X164260000Y-119667500D01*
X164500000Y-119997500D01*
G36*
X164500000Y-119997500D02*
G01*
X164020000Y-119997500D01*
X164260000Y-119667500D01*
X164500000Y-119997500D01*
G37*
%TO.C,J3*%
X215340000Y-90610000D02*
X216500000Y-90610000D01*
X215340000Y-91420000D02*
X215340000Y-90610000D01*
X215340000Y-92230000D02*
X215340000Y-101055000D01*
X215340000Y-92230000D02*
X215833292Y-92230000D01*
X215340000Y-101055000D02*
X216182077Y-101055000D01*
X216817923Y-101055000D02*
X217660000Y-101055000D01*
X217166708Y-92230000D02*
X217660000Y-92230000D01*
X217660000Y-92230000D02*
X217660000Y-101055000D01*
%TO.C,C2*%
X142945225Y-95525000D02*
X143445225Y-95525000D01*
X143195225Y-95275000D02*
X143195225Y-95775000D01*
X145750000Y-94420000D02*
X145750000Y-99580000D01*
X145790000Y-94420000D02*
X145790000Y-99580000D01*
X145830000Y-94421000D02*
X145830000Y-99579000D01*
X145870000Y-94423000D02*
X145870000Y-99577000D01*
X145910000Y-94425000D02*
X145910000Y-99575000D01*
X145950000Y-94428000D02*
X145950000Y-99572000D01*
X145990000Y-94431000D02*
X145990000Y-95960000D01*
X145990000Y-98040000D02*
X145990000Y-99569000D01*
X146030000Y-94435000D02*
X146030000Y-95960000D01*
X146030000Y-98040000D02*
X146030000Y-99565000D01*
X146070000Y-94440000D02*
X146070000Y-95960000D01*
X146070000Y-98040000D02*
X146070000Y-99560000D01*
X146110000Y-94445000D02*
X146110000Y-95960000D01*
X146110000Y-98040000D02*
X146110000Y-99555000D01*
X146150000Y-94451000D02*
X146150000Y-95960000D01*
X146150000Y-98040000D02*
X146150000Y-99549000D01*
X146190000Y-94457000D02*
X146190000Y-95960000D01*
X146190000Y-98040000D02*
X146190000Y-99543000D01*
X146230000Y-94464000D02*
X146230000Y-95960000D01*
X146230000Y-98040000D02*
X146230000Y-99536000D01*
X146270000Y-94472000D02*
X146270000Y-95960000D01*
X146270000Y-98040000D02*
X146270000Y-99528000D01*
X146310000Y-94481000D02*
X146310000Y-95960000D01*
X146310000Y-98040000D02*
X146310000Y-99519000D01*
X146350000Y-94490000D02*
X146350000Y-95960000D01*
X146350000Y-98040000D02*
X146350000Y-99510000D01*
X146390000Y-94499000D02*
X146390000Y-95960000D01*
X146390000Y-98040000D02*
X146390000Y-99501000D01*
X146430000Y-94510000D02*
X146430000Y-95960000D01*
X146430000Y-98040000D02*
X146430000Y-99490000D01*
X146470000Y-94521000D02*
X146470000Y-95960000D01*
X146470000Y-98040000D02*
X146470000Y-99479000D01*
X146510000Y-94533000D02*
X146510000Y-95960000D01*
X146510000Y-98040000D02*
X146510000Y-99467000D01*
X146550000Y-94545000D02*
X146550000Y-95960000D01*
X146550000Y-98040000D02*
X146550000Y-99455000D01*
X146590000Y-94558000D02*
X146590000Y-95960000D01*
X146590000Y-98040000D02*
X146590000Y-99442000D01*
X146630000Y-94572000D02*
X146630000Y-95960000D01*
X146630000Y-98040000D02*
X146630000Y-99428000D01*
X146670000Y-94587000D02*
X146670000Y-95960000D01*
X146670000Y-98040000D02*
X146670000Y-99413000D01*
X146710000Y-94602000D02*
X146710000Y-95960000D01*
X146710000Y-98040000D02*
X146710000Y-99398000D01*
X146750000Y-94618000D02*
X146750000Y-95960000D01*
X146750000Y-98040000D02*
X146750000Y-99382000D01*
X146790000Y-94635000D02*
X146790000Y-95960000D01*
X146790000Y-98040000D02*
X146790000Y-99365000D01*
X146830000Y-94653000D02*
X146830000Y-95960000D01*
X146830000Y-98040000D02*
X146830000Y-99347000D01*
X146870000Y-94671000D02*
X146870000Y-95960000D01*
X146870000Y-98040000D02*
X146870000Y-99329000D01*
X146910000Y-94691000D02*
X146910000Y-95960000D01*
X146910000Y-98040000D02*
X146910000Y-99309000D01*
X146950000Y-94711000D02*
X146950000Y-95960000D01*
X146950000Y-98040000D02*
X146950000Y-99289000D01*
X146990000Y-94732000D02*
X146990000Y-95960000D01*
X146990000Y-98040000D02*
X146990000Y-99268000D01*
X147030000Y-94754000D02*
X147030000Y-95960000D01*
X147030000Y-98040000D02*
X147030000Y-99246000D01*
X147070000Y-94777000D02*
X147070000Y-95960000D01*
X147070000Y-98040000D02*
X147070000Y-99223000D01*
X147110000Y-94801000D02*
X147110000Y-95960000D01*
X147110000Y-98040000D02*
X147110000Y-99199000D01*
X147150000Y-94825000D02*
X147150000Y-95960000D01*
X147150000Y-98040000D02*
X147150000Y-99175000D01*
X147190000Y-94851000D02*
X147190000Y-95960000D01*
X147190000Y-98040000D02*
X147190000Y-99149000D01*
X147230000Y-94878000D02*
X147230000Y-95960000D01*
X147230000Y-98040000D02*
X147230000Y-99122000D01*
X147270000Y-94906000D02*
X147270000Y-95960000D01*
X147270000Y-98040000D02*
X147270000Y-99094000D01*
X147310000Y-94935000D02*
X147310000Y-95960000D01*
X147310000Y-98040000D02*
X147310000Y-99065000D01*
X147350000Y-94965000D02*
X147350000Y-95960000D01*
X147350000Y-98040000D02*
X147350000Y-99035000D01*
X147390000Y-94997000D02*
X147390000Y-95960000D01*
X147390000Y-98040000D02*
X147390000Y-99003000D01*
X147430000Y-95030000D02*
X147430000Y-95960000D01*
X147430000Y-98040000D02*
X147430000Y-98970000D01*
X147470000Y-95064000D02*
X147470000Y-95960000D01*
X147470000Y-98040000D02*
X147470000Y-98936000D01*
X147510000Y-95099000D02*
X147510000Y-95960000D01*
X147510000Y-98040000D02*
X147510000Y-98901000D01*
X147550000Y-95136000D02*
X147550000Y-95960000D01*
X147550000Y-98040000D02*
X147550000Y-98864000D01*
X147590000Y-95175000D02*
X147590000Y-95960000D01*
X147590000Y-98040000D02*
X147590000Y-98825000D01*
X147630000Y-95215000D02*
X147630000Y-95960000D01*
X147630000Y-98040000D02*
X147630000Y-98785000D01*
X147670000Y-95257000D02*
X147670000Y-95960000D01*
X147670000Y-98040000D02*
X147670000Y-98743000D01*
X147710000Y-95301000D02*
X147710000Y-95960000D01*
X147710000Y-98040000D02*
X147710000Y-98699000D01*
X147750000Y-95348000D02*
X147750000Y-95960000D01*
X147750000Y-98040000D02*
X147750000Y-98652000D01*
X147790000Y-95396000D02*
X147790000Y-95960000D01*
X147790000Y-98040000D02*
X147790000Y-98604000D01*
X147830000Y-95447000D02*
X147830000Y-95960000D01*
X147830000Y-98040000D02*
X147830000Y-98553000D01*
X147870000Y-95501000D02*
X147870000Y-95960000D01*
X147870000Y-98040000D02*
X147870000Y-98499000D01*
X147910000Y-95557000D02*
X147910000Y-95960000D01*
X147910000Y-98040000D02*
X147910000Y-98443000D01*
X147950000Y-95617000D02*
X147950000Y-95960000D01*
X147950000Y-98040000D02*
X147950000Y-98383000D01*
X147990000Y-95681000D02*
X147990000Y-95960000D01*
X147990000Y-98040000D02*
X147990000Y-98319000D01*
X148030000Y-95749000D02*
X148030000Y-95960000D01*
X148030000Y-98040000D02*
X148030000Y-98251000D01*
X148070000Y-95823000D02*
X148070000Y-98177000D01*
X148110000Y-95902000D02*
X148110000Y-98098000D01*
X148150000Y-95989000D02*
X148150000Y-98011000D01*
X148190000Y-96086000D02*
X148190000Y-97914000D01*
X148230000Y-96195000D02*
X148230000Y-97805000D01*
X148270000Y-96323000D02*
X148270000Y-97677000D01*
X148310000Y-96483000D02*
X148310000Y-97517000D01*
X148350000Y-96717000D02*
X148350000Y-97283000D01*
X148370000Y-97000000D02*
G75*
G02*
X143130000Y-97000000I-2620000J0D01*
G01*
X143130000Y-97000000D02*
G75*
G02*
X148370000Y-97000000I2620000J0D01*
G01*
%TO.C,C8*%
X130249759Y-108161000D02*
X130879759Y-108161000D01*
X130564759Y-107846000D02*
X130564759Y-108476000D01*
X133750000Y-106770000D02*
X133750000Y-113230000D01*
X133790000Y-106770000D02*
X133790000Y-113230000D01*
X133830000Y-106771000D02*
X133830000Y-113229000D01*
X133870000Y-106772000D02*
X133870000Y-113228000D01*
X133910000Y-106774000D02*
X133910000Y-113226000D01*
X133950000Y-106776000D02*
X133950000Y-113224000D01*
X133990000Y-106779000D02*
X133990000Y-108960000D01*
X133990000Y-111040000D02*
X133990000Y-113221000D01*
X134030000Y-106782000D02*
X134030000Y-108960000D01*
X134030000Y-111040000D02*
X134030000Y-113218000D01*
X134070000Y-106786000D02*
X134070000Y-108960000D01*
X134070000Y-111040000D02*
X134070000Y-113214000D01*
X134110000Y-106790000D02*
X134110000Y-108960000D01*
X134110000Y-111040000D02*
X134110000Y-113210000D01*
X134150000Y-106795000D02*
X134150000Y-108960000D01*
X134150000Y-111040000D02*
X134150000Y-113205000D01*
X134190000Y-106800000D02*
X134190000Y-108960000D01*
X134190000Y-111040000D02*
X134190000Y-113200000D01*
X134230000Y-106805000D02*
X134230000Y-108960000D01*
X134230000Y-111040000D02*
X134230000Y-113195000D01*
X134270000Y-106812000D02*
X134270000Y-108960000D01*
X134270000Y-111040000D02*
X134270000Y-113188000D01*
X134310000Y-106818000D02*
X134310000Y-108960000D01*
X134310000Y-111040000D02*
X134310000Y-113182000D01*
X134350000Y-106826000D02*
X134350000Y-108960000D01*
X134350000Y-111040000D02*
X134350000Y-113174000D01*
X134390000Y-106833000D02*
X134390000Y-108960000D01*
X134390000Y-111040000D02*
X134390000Y-113167000D01*
X134430000Y-106841000D02*
X134430000Y-108960000D01*
X134430000Y-111040000D02*
X134430000Y-113159000D01*
X134470000Y-106850000D02*
X134470000Y-108960000D01*
X134470000Y-111040000D02*
X134470000Y-113150000D01*
X134510000Y-106860000D02*
X134510000Y-108960000D01*
X134510000Y-111040000D02*
X134510000Y-113140000D01*
X134550000Y-106869000D02*
X134550000Y-108960000D01*
X134550000Y-111040000D02*
X134550000Y-113131000D01*
X134590000Y-106880000D02*
X134590000Y-108960000D01*
X134590000Y-111040000D02*
X134590000Y-113120000D01*
X134630000Y-106891000D02*
X134630000Y-108960000D01*
X134630000Y-111040000D02*
X134630000Y-113109000D01*
X134670000Y-106902000D02*
X134670000Y-108960000D01*
X134670000Y-111040000D02*
X134670000Y-113098000D01*
X134710000Y-106914000D02*
X134710000Y-108960000D01*
X134710000Y-111040000D02*
X134710000Y-113086000D01*
X134750000Y-106927000D02*
X134750000Y-108960000D01*
X134750000Y-111040000D02*
X134750000Y-113073000D01*
X134790000Y-106940000D02*
X134790000Y-108960000D01*
X134790000Y-111040000D02*
X134790000Y-113060000D01*
X134830000Y-106953000D02*
X134830000Y-108960000D01*
X134830000Y-111040000D02*
X134830000Y-113047000D01*
X134870000Y-106968000D02*
X134870000Y-108960000D01*
X134870000Y-111040000D02*
X134870000Y-113032000D01*
X134910000Y-106983000D02*
X134910000Y-108960000D01*
X134910000Y-111040000D02*
X134910000Y-113017000D01*
X134950000Y-106998000D02*
X134950000Y-108960000D01*
X134950000Y-111040000D02*
X134950000Y-113002000D01*
X134990000Y-107014000D02*
X134990000Y-108960000D01*
X134990000Y-111040000D02*
X134990000Y-112986000D01*
X135030000Y-107031000D02*
X135030000Y-108960000D01*
X135030000Y-111040000D02*
X135030000Y-112969000D01*
X135070000Y-107048000D02*
X135070000Y-108960000D01*
X135070000Y-111040000D02*
X135070000Y-112952000D01*
X135110000Y-107066000D02*
X135110000Y-108960000D01*
X135110000Y-111040000D02*
X135110000Y-112934000D01*
X135150000Y-107085000D02*
X135150000Y-108960000D01*
X135150000Y-111040000D02*
X135150000Y-112915000D01*
X135190000Y-107104000D02*
X135190000Y-108960000D01*
X135190000Y-111040000D02*
X135190000Y-112896000D01*
X135230000Y-107124000D02*
X135230000Y-108960000D01*
X135230000Y-111040000D02*
X135230000Y-112876000D01*
X135270000Y-107145000D02*
X135270000Y-108960000D01*
X135270000Y-111040000D02*
X135270000Y-112855000D01*
X135310000Y-107166000D02*
X135310000Y-108960000D01*
X135310000Y-111040000D02*
X135310000Y-112834000D01*
X135350000Y-107188000D02*
X135350000Y-108960000D01*
X135350000Y-111040000D02*
X135350000Y-112812000D01*
X135390000Y-107211000D02*
X135390000Y-108960000D01*
X135390000Y-111040000D02*
X135390000Y-112789000D01*
X135430000Y-107235000D02*
X135430000Y-108960000D01*
X135430000Y-111040000D02*
X135430000Y-112765000D01*
X135470000Y-107259000D02*
X135470000Y-108960000D01*
X135470000Y-111040000D02*
X135470000Y-112741000D01*
X135510000Y-107284000D02*
X135510000Y-108960000D01*
X135510000Y-111040000D02*
X135510000Y-112716000D01*
X135550000Y-107310000D02*
X135550000Y-108960000D01*
X135550000Y-111040000D02*
X135550000Y-112690000D01*
X135590000Y-107337000D02*
X135590000Y-108960000D01*
X135590000Y-111040000D02*
X135590000Y-112663000D01*
X135630000Y-107364000D02*
X135630000Y-108960000D01*
X135630000Y-111040000D02*
X135630000Y-112636000D01*
X135670000Y-107393000D02*
X135670000Y-108960000D01*
X135670000Y-111040000D02*
X135670000Y-112607000D01*
X135710000Y-107423000D02*
X135710000Y-108960000D01*
X135710000Y-111040000D02*
X135710000Y-112577000D01*
X135750000Y-107453000D02*
X135750000Y-108960000D01*
X135750000Y-111040000D02*
X135750000Y-112547000D01*
X135790000Y-107484000D02*
X135790000Y-108960000D01*
X135790000Y-111040000D02*
X135790000Y-112516000D01*
X135830000Y-107517000D02*
X135830000Y-108960000D01*
X135830000Y-111040000D02*
X135830000Y-112483000D01*
X135870000Y-107550000D02*
X135870000Y-108960000D01*
X135870000Y-111040000D02*
X135870000Y-112450000D01*
X135910000Y-107585000D02*
X135910000Y-108960000D01*
X135910000Y-111040000D02*
X135910000Y-112415000D01*
X135950000Y-107621000D02*
X135950000Y-108960000D01*
X135950000Y-111040000D02*
X135950000Y-112379000D01*
X135990000Y-107658000D02*
X135990000Y-108960000D01*
X135990000Y-111040000D02*
X135990000Y-112342000D01*
X136030000Y-107696000D02*
X136030000Y-108960000D01*
X136030000Y-111040000D02*
X136030000Y-112304000D01*
X136070000Y-107736000D02*
X136070000Y-112264000D01*
X136110000Y-107777000D02*
X136110000Y-112223000D01*
X136150000Y-107819000D02*
X136150000Y-112181000D01*
X136190000Y-107863000D02*
X136190000Y-112137000D01*
X136230000Y-107909000D02*
X136230000Y-112091000D01*
X136270000Y-107956000D02*
X136270000Y-112044000D01*
X136310000Y-108005000D02*
X136310000Y-111995000D01*
X136350000Y-108057000D02*
X136350000Y-111943000D01*
X136390000Y-108110000D02*
X136390000Y-111890000D01*
X136430000Y-108166000D02*
X136430000Y-111834000D01*
X136470000Y-108225000D02*
X136470000Y-111775000D01*
X136510000Y-108286000D02*
X136510000Y-111714000D01*
X136550000Y-108351000D02*
X136550000Y-111649000D01*
X136590000Y-108419000D02*
X136590000Y-111581000D01*
X136630000Y-108491000D02*
X136630000Y-111509000D01*
X136670000Y-108568000D02*
X136670000Y-111432000D01*
X136710000Y-108650000D02*
X136710000Y-111350000D01*
X136750000Y-108739000D02*
X136750000Y-111261000D01*
X136790000Y-108835000D02*
X136790000Y-111165000D01*
X136830000Y-108942000D02*
X136830000Y-111058000D01*
X136870000Y-109061000D02*
X136870000Y-110939000D01*
X136910000Y-109199000D02*
X136910000Y-110801000D01*
X136950000Y-109367000D02*
X136950000Y-110633000D01*
X136990000Y-109598000D02*
X136990000Y-110402000D01*
X137020000Y-110000000D02*
G75*
G02*
X130480000Y-110000000I-3270000J0D01*
G01*
X130480000Y-110000000D02*
G75*
G02*
X137020000Y-110000000I3270000J0D01*
G01*
%TO.C,D2*%
X119170000Y-106955000D02*
X119170000Y-110045000D01*
X119170000Y-106955170D02*
G75*
G02*
X124720000Y-108500000I2560000J-1544830D01*
G01*
X124720000Y-108500000D02*
G75*
G02*
X119170000Y-110044830I-2990000J0D01*
G01*
X124230000Y-108500000D02*
G75*
G02*
X119230000Y-108500000I-2500000J0D01*
G01*
X119230000Y-108500000D02*
G75*
G02*
X124230000Y-108500000I2500000J0D01*
G01*
%TO.C,U3*%
X154390000Y-109560000D02*
X154390000Y-110800000D01*
X154390000Y-110800000D02*
X155630000Y-110800000D01*
X154630000Y-101940000D02*
X166350000Y-101940000D01*
X154630000Y-110560000D02*
X154630000Y-101940000D01*
X166350000Y-101940000D02*
X166350000Y-110560000D01*
X166350000Y-110560000D02*
X154630000Y-110560000D01*
%TO.C,J1*%
X215340000Y-106690000D02*
X216500000Y-106690000D01*
X215340000Y-107500000D02*
X215340000Y-106690000D01*
X215340000Y-108310000D02*
X215340000Y-110785000D01*
X215340000Y-108310000D02*
X215833292Y-108310000D01*
X215340000Y-110785000D02*
X216182077Y-110785000D01*
X216817923Y-110785000D02*
X217660000Y-110785000D01*
X217166708Y-108310000D02*
X217660000Y-108310000D01*
X217660000Y-108310000D02*
X217660000Y-110785000D01*
%TO.C,J4*%
X215340000Y-118190000D02*
X216500000Y-118190000D01*
X215340000Y-119000000D02*
X215340000Y-118190000D01*
X215340000Y-119810000D02*
X215340000Y-121015000D01*
X215340000Y-119810000D02*
X215833292Y-119810000D01*
X215340000Y-121015000D02*
X216182077Y-121015000D01*
X216817923Y-121015000D02*
X217660000Y-121015000D01*
X217166708Y-119810000D02*
X217660000Y-119810000D01*
X217660000Y-119810000D02*
X217660000Y-121015000D01*
%TO.C,R4*%
X201130000Y-108500000D02*
X199920000Y-108500000D01*
X205870000Y-108500000D02*
G75*
G02*
X201130000Y-108500000I-2370000J0D01*
G01*
X201130000Y-108500000D02*
G75*
G02*
X205870000Y-108500000I2370000J0D01*
G01*
%TO.C,C4*%
X171990113Y-107025000D02*
X172490113Y-107025000D01*
X172240113Y-106775000D02*
X172240113Y-107275000D01*
X174794888Y-105920000D02*
X174794888Y-111080000D01*
X174834888Y-105920000D02*
X174834888Y-111080000D01*
X174874888Y-105921000D02*
X174874888Y-111079000D01*
X174914888Y-105923000D02*
X174914888Y-111077000D01*
X174954888Y-105925000D02*
X174954888Y-111075000D01*
X174994888Y-105928000D02*
X174994888Y-111072000D01*
X175034888Y-105931000D02*
X175034888Y-107460000D01*
X175034888Y-109540000D02*
X175034888Y-111069000D01*
X175074888Y-105935000D02*
X175074888Y-107460000D01*
X175074888Y-109540000D02*
X175074888Y-111065000D01*
X175114888Y-105940000D02*
X175114888Y-107460000D01*
X175114888Y-109540000D02*
X175114888Y-111060000D01*
X175154888Y-105945000D02*
X175154888Y-107460000D01*
X175154888Y-109540000D02*
X175154888Y-111055000D01*
X175194888Y-105951000D02*
X175194888Y-107460000D01*
X175194888Y-109540000D02*
X175194888Y-111049000D01*
X175234888Y-105957000D02*
X175234888Y-107460000D01*
X175234888Y-109540000D02*
X175234888Y-111043000D01*
X175274888Y-105964000D02*
X175274888Y-107460000D01*
X175274888Y-109540000D02*
X175274888Y-111036000D01*
X175314888Y-105972000D02*
X175314888Y-107460000D01*
X175314888Y-109540000D02*
X175314888Y-111028000D01*
X175354888Y-105981000D02*
X175354888Y-107460000D01*
X175354888Y-109540000D02*
X175354888Y-111019000D01*
X175394888Y-105990000D02*
X175394888Y-107460000D01*
X175394888Y-109540000D02*
X175394888Y-111010000D01*
X175434888Y-105999000D02*
X175434888Y-107460000D01*
X175434888Y-109540000D02*
X175434888Y-111001000D01*
X175474888Y-106010000D02*
X175474888Y-107460000D01*
X175474888Y-109540000D02*
X175474888Y-110990000D01*
X175514888Y-106021000D02*
X175514888Y-107460000D01*
X175514888Y-109540000D02*
X175514888Y-110979000D01*
X175554888Y-106033000D02*
X175554888Y-107460000D01*
X175554888Y-109540000D02*
X175554888Y-110967000D01*
X175594888Y-106045000D02*
X175594888Y-107460000D01*
X175594888Y-109540000D02*
X175594888Y-110955000D01*
X175634888Y-106058000D02*
X175634888Y-107460000D01*
X175634888Y-109540000D02*
X175634888Y-110942000D01*
X175674888Y-106072000D02*
X175674888Y-107460000D01*
X175674888Y-109540000D02*
X175674888Y-110928000D01*
X175714888Y-106087000D02*
X175714888Y-107460000D01*
X175714888Y-109540000D02*
X175714888Y-110913000D01*
X175754888Y-106102000D02*
X175754888Y-107460000D01*
X175754888Y-109540000D02*
X175754888Y-110898000D01*
X175794888Y-106118000D02*
X175794888Y-107460000D01*
X175794888Y-109540000D02*
X175794888Y-110882000D01*
X175834888Y-106135000D02*
X175834888Y-107460000D01*
X175834888Y-109540000D02*
X175834888Y-110865000D01*
X175874888Y-106153000D02*
X175874888Y-107460000D01*
X175874888Y-109540000D02*
X175874888Y-110847000D01*
X175914888Y-106171000D02*
X175914888Y-107460000D01*
X175914888Y-109540000D02*
X175914888Y-110829000D01*
X175954888Y-106191000D02*
X175954888Y-107460000D01*
X175954888Y-109540000D02*
X175954888Y-110809000D01*
X175994888Y-106211000D02*
X175994888Y-107460000D01*
X175994888Y-109540000D02*
X175994888Y-110789000D01*
X176034888Y-106232000D02*
X176034888Y-107460000D01*
X176034888Y-109540000D02*
X176034888Y-110768000D01*
X176074888Y-106254000D02*
X176074888Y-107460000D01*
X176074888Y-109540000D02*
X176074888Y-110746000D01*
X176114888Y-106277000D02*
X176114888Y-107460000D01*
X176114888Y-109540000D02*
X176114888Y-110723000D01*
X176154888Y-106301000D02*
X176154888Y-107460000D01*
X176154888Y-109540000D02*
X176154888Y-110699000D01*
X176194888Y-106325000D02*
X176194888Y-107460000D01*
X176194888Y-109540000D02*
X176194888Y-110675000D01*
X176234888Y-106351000D02*
X176234888Y-107460000D01*
X176234888Y-109540000D02*
X176234888Y-110649000D01*
X176274888Y-106378000D02*
X176274888Y-107460000D01*
X176274888Y-109540000D02*
X176274888Y-110622000D01*
X176314888Y-106406000D02*
X176314888Y-107460000D01*
X176314888Y-109540000D02*
X176314888Y-110594000D01*
X176354888Y-106435000D02*
X176354888Y-107460000D01*
X176354888Y-109540000D02*
X176354888Y-110565000D01*
X176394888Y-106465000D02*
X176394888Y-107460000D01*
X176394888Y-109540000D02*
X176394888Y-110535000D01*
X176434888Y-106497000D02*
X176434888Y-107460000D01*
X176434888Y-109540000D02*
X176434888Y-110503000D01*
X176474888Y-106530000D02*
X176474888Y-107460000D01*
X176474888Y-109540000D02*
X176474888Y-110470000D01*
X176514888Y-106564000D02*
X176514888Y-107460000D01*
X176514888Y-109540000D02*
X176514888Y-110436000D01*
X176554888Y-106599000D02*
X176554888Y-107460000D01*
X176554888Y-109540000D02*
X176554888Y-110401000D01*
X176594888Y-106636000D02*
X176594888Y-107460000D01*
X176594888Y-109540000D02*
X176594888Y-110364000D01*
X176634888Y-106675000D02*
X176634888Y-107460000D01*
X176634888Y-109540000D02*
X176634888Y-110325000D01*
X176674888Y-106715000D02*
X176674888Y-107460000D01*
X176674888Y-109540000D02*
X176674888Y-110285000D01*
X176714888Y-106757000D02*
X176714888Y-107460000D01*
X176714888Y-109540000D02*
X176714888Y-110243000D01*
X176754888Y-106801000D02*
X176754888Y-107460000D01*
X176754888Y-109540000D02*
X176754888Y-110199000D01*
X176794888Y-106848000D02*
X176794888Y-107460000D01*
X176794888Y-109540000D02*
X176794888Y-110152000D01*
X176834888Y-106896000D02*
X176834888Y-107460000D01*
X176834888Y-109540000D02*
X176834888Y-110104000D01*
X176874888Y-106947000D02*
X176874888Y-107460000D01*
X176874888Y-109540000D02*
X176874888Y-110053000D01*
X176914888Y-107001000D02*
X176914888Y-107460000D01*
X176914888Y-109540000D02*
X176914888Y-109999000D01*
X176954888Y-107057000D02*
X176954888Y-107460000D01*
X176954888Y-109540000D02*
X176954888Y-109943000D01*
X176994888Y-107117000D02*
X176994888Y-107460000D01*
X176994888Y-109540000D02*
X176994888Y-109883000D01*
X177034888Y-107181000D02*
X177034888Y-107460000D01*
X177034888Y-109540000D02*
X177034888Y-109819000D01*
X177074888Y-107249000D02*
X177074888Y-107460000D01*
X177074888Y-109540000D02*
X177074888Y-109751000D01*
X177114888Y-107323000D02*
X177114888Y-109677000D01*
X177154888Y-107402000D02*
X177154888Y-109598000D01*
X177194888Y-107489000D02*
X177194888Y-109511000D01*
X177234888Y-107586000D02*
X177234888Y-109414000D01*
X177274888Y-107695000D02*
X177274888Y-109305000D01*
X177314888Y-107823000D02*
X177314888Y-109177000D01*
X177354888Y-107983000D02*
X177354888Y-109017000D01*
X177394888Y-108217000D02*
X177394888Y-108783000D01*
X177414888Y-108500000D02*
G75*
G02*
X172174888Y-108500000I-2620000J0D01*
G01*
X172174888Y-108500000D02*
G75*
G02*
X177414888Y-108500000I2620000J0D01*
G01*
%TO.C,C9*%
X182249759Y-106661000D02*
X182879759Y-106661000D01*
X182564759Y-106346000D02*
X182564759Y-106976000D01*
X185750000Y-105270000D02*
X185750000Y-111730000D01*
X185790000Y-105270000D02*
X185790000Y-111730000D01*
X185830000Y-105271000D02*
X185830000Y-111729000D01*
X185870000Y-105272000D02*
X185870000Y-111728000D01*
X185910000Y-105274000D02*
X185910000Y-111726000D01*
X185950000Y-105276000D02*
X185950000Y-111724000D01*
X185990000Y-105279000D02*
X185990000Y-107460000D01*
X185990000Y-109540000D02*
X185990000Y-111721000D01*
X186030000Y-105282000D02*
X186030000Y-107460000D01*
X186030000Y-109540000D02*
X186030000Y-111718000D01*
X186070000Y-105286000D02*
X186070000Y-107460000D01*
X186070000Y-109540000D02*
X186070000Y-111714000D01*
X186110000Y-105290000D02*
X186110000Y-107460000D01*
X186110000Y-109540000D02*
X186110000Y-111710000D01*
X186150000Y-105295000D02*
X186150000Y-107460000D01*
X186150000Y-109540000D02*
X186150000Y-111705000D01*
X186190000Y-105300000D02*
X186190000Y-107460000D01*
X186190000Y-109540000D02*
X186190000Y-111700000D01*
X186230000Y-105305000D02*
X186230000Y-107460000D01*
X186230000Y-109540000D02*
X186230000Y-111695000D01*
X186270000Y-105312000D02*
X186270000Y-107460000D01*
X186270000Y-109540000D02*
X186270000Y-111688000D01*
X186310000Y-105318000D02*
X186310000Y-107460000D01*
X186310000Y-109540000D02*
X186310000Y-111682000D01*
X186350000Y-105326000D02*
X186350000Y-107460000D01*
X186350000Y-109540000D02*
X186350000Y-111674000D01*
X186390000Y-105333000D02*
X186390000Y-107460000D01*
X186390000Y-109540000D02*
X186390000Y-111667000D01*
X186430000Y-105341000D02*
X186430000Y-107460000D01*
X186430000Y-109540000D02*
X186430000Y-111659000D01*
X186470000Y-105350000D02*
X186470000Y-107460000D01*
X186470000Y-109540000D02*
X186470000Y-111650000D01*
X186510000Y-105360000D02*
X186510000Y-107460000D01*
X186510000Y-109540000D02*
X186510000Y-111640000D01*
X186550000Y-105369000D02*
X186550000Y-107460000D01*
X186550000Y-109540000D02*
X186550000Y-111631000D01*
X186590000Y-105380000D02*
X186590000Y-107460000D01*
X186590000Y-109540000D02*
X186590000Y-111620000D01*
X186630000Y-105391000D02*
X186630000Y-107460000D01*
X186630000Y-109540000D02*
X186630000Y-111609000D01*
X186670000Y-105402000D02*
X186670000Y-107460000D01*
X186670000Y-109540000D02*
X186670000Y-111598000D01*
X186710000Y-105414000D02*
X186710000Y-107460000D01*
X186710000Y-109540000D02*
X186710000Y-111586000D01*
X186750000Y-105427000D02*
X186750000Y-107460000D01*
X186750000Y-109540000D02*
X186750000Y-111573000D01*
X186790000Y-105440000D02*
X186790000Y-107460000D01*
X186790000Y-109540000D02*
X186790000Y-111560000D01*
X186830000Y-105453000D02*
X186830000Y-107460000D01*
X186830000Y-109540000D02*
X186830000Y-111547000D01*
X186870000Y-105468000D02*
X186870000Y-107460000D01*
X186870000Y-109540000D02*
X186870000Y-111532000D01*
X186910000Y-105483000D02*
X186910000Y-107460000D01*
X186910000Y-109540000D02*
X186910000Y-111517000D01*
X186950000Y-105498000D02*
X186950000Y-107460000D01*
X186950000Y-109540000D02*
X186950000Y-111502000D01*
X186990000Y-105514000D02*
X186990000Y-107460000D01*
X186990000Y-109540000D02*
X186990000Y-111486000D01*
X187030000Y-105531000D02*
X187030000Y-107460000D01*
X187030000Y-109540000D02*
X187030000Y-111469000D01*
X187070000Y-105548000D02*
X187070000Y-107460000D01*
X187070000Y-109540000D02*
X187070000Y-111452000D01*
X187110000Y-105566000D02*
X187110000Y-107460000D01*
X187110000Y-109540000D02*
X187110000Y-111434000D01*
X187150000Y-105585000D02*
X187150000Y-107460000D01*
X187150000Y-109540000D02*
X187150000Y-111415000D01*
X187190000Y-105604000D02*
X187190000Y-107460000D01*
X187190000Y-109540000D02*
X187190000Y-111396000D01*
X187230000Y-105624000D02*
X187230000Y-107460000D01*
X187230000Y-109540000D02*
X187230000Y-111376000D01*
X187270000Y-105645000D02*
X187270000Y-107460000D01*
X187270000Y-109540000D02*
X187270000Y-111355000D01*
X187310000Y-105666000D02*
X187310000Y-107460000D01*
X187310000Y-109540000D02*
X187310000Y-111334000D01*
X187350000Y-105688000D02*
X187350000Y-107460000D01*
X187350000Y-109540000D02*
X187350000Y-111312000D01*
X187390000Y-105711000D02*
X187390000Y-107460000D01*
X187390000Y-109540000D02*
X187390000Y-111289000D01*
X187430000Y-105735000D02*
X187430000Y-107460000D01*
X187430000Y-109540000D02*
X187430000Y-111265000D01*
X187470000Y-105759000D02*
X187470000Y-107460000D01*
X187470000Y-109540000D02*
X187470000Y-111241000D01*
X187510000Y-105784000D02*
X187510000Y-107460000D01*
X187510000Y-109540000D02*
X187510000Y-111216000D01*
X187550000Y-105810000D02*
X187550000Y-107460000D01*
X187550000Y-109540000D02*
X187550000Y-111190000D01*
X187590000Y-105837000D02*
X187590000Y-107460000D01*
X187590000Y-109540000D02*
X187590000Y-111163000D01*
X187630000Y-105864000D02*
X187630000Y-107460000D01*
X187630000Y-109540000D02*
X187630000Y-111136000D01*
X187670000Y-105893000D02*
X187670000Y-107460000D01*
X187670000Y-109540000D02*
X187670000Y-111107000D01*
X187710000Y-105923000D02*
X187710000Y-107460000D01*
X187710000Y-109540000D02*
X187710000Y-111077000D01*
X187750000Y-105953000D02*
X187750000Y-107460000D01*
X187750000Y-109540000D02*
X187750000Y-111047000D01*
X187790000Y-105984000D02*
X187790000Y-107460000D01*
X187790000Y-109540000D02*
X187790000Y-111016000D01*
X187830000Y-106017000D02*
X187830000Y-107460000D01*
X187830000Y-109540000D02*
X187830000Y-110983000D01*
X187870000Y-106050000D02*
X187870000Y-107460000D01*
X187870000Y-109540000D02*
X187870000Y-110950000D01*
X187910000Y-106085000D02*
X187910000Y-107460000D01*
X187910000Y-109540000D02*
X187910000Y-110915000D01*
X187950000Y-106121000D02*
X187950000Y-107460000D01*
X187950000Y-109540000D02*
X187950000Y-110879000D01*
X187990000Y-106158000D02*
X187990000Y-107460000D01*
X187990000Y-109540000D02*
X187990000Y-110842000D01*
X188030000Y-106196000D02*
X188030000Y-107460000D01*
X188030000Y-109540000D02*
X188030000Y-110804000D01*
X188070000Y-106236000D02*
X188070000Y-110764000D01*
X188110000Y-106277000D02*
X188110000Y-110723000D01*
X188150000Y-106319000D02*
X188150000Y-110681000D01*
X188190000Y-106363000D02*
X188190000Y-110637000D01*
X188230000Y-106409000D02*
X188230000Y-110591000D01*
X188270000Y-106456000D02*
X188270000Y-110544000D01*
X188310000Y-106505000D02*
X188310000Y-110495000D01*
X188350000Y-106557000D02*
X188350000Y-110443000D01*
X188390000Y-106610000D02*
X188390000Y-110390000D01*
X188430000Y-106666000D02*
X188430000Y-110334000D01*
X188470000Y-106725000D02*
X188470000Y-110275000D01*
X188510000Y-106786000D02*
X188510000Y-110214000D01*
X188550000Y-106851000D02*
X188550000Y-110149000D01*
X188590000Y-106919000D02*
X188590000Y-110081000D01*
X188630000Y-106991000D02*
X188630000Y-110009000D01*
X188670000Y-107068000D02*
X188670000Y-109932000D01*
X188710000Y-107150000D02*
X188710000Y-109850000D01*
X188750000Y-107239000D02*
X188750000Y-109761000D01*
X188790000Y-107335000D02*
X188790000Y-109665000D01*
X188830000Y-107442000D02*
X188830000Y-109558000D01*
X188870000Y-107561000D02*
X188870000Y-109439000D01*
X188910000Y-107699000D02*
X188910000Y-109301000D01*
X188950000Y-107867000D02*
X188950000Y-109133000D01*
X188990000Y-108098000D02*
X188990000Y-108902000D01*
X189020000Y-108500000D02*
G75*
G02*
X182480000Y-108500000I-3270000J0D01*
G01*
X182480000Y-108500000D02*
G75*
G02*
X189020000Y-108500000I3270000J0D01*
G01*
%TO.C,R1*%
X96820000Y-92500000D02*
X97770000Y-92500000D01*
X102560000Y-92500000D02*
X101610000Y-92500000D01*
X97770000Y-91580000D02*
X101610000Y-91580000D01*
X101610000Y-93420000D01*
X97770000Y-93420000D01*
X97770000Y-91580000D01*
%TO.C,D1*%
X119170000Y-115955000D02*
X119170000Y-119045000D01*
X119170000Y-115955170D02*
G75*
G02*
X124720000Y-117500000I2560000J-1544830D01*
G01*
X124720000Y-117500000D02*
G75*
G02*
X119170000Y-119044830I-2990000J0D01*
G01*
X124230000Y-117500000D02*
G75*
G02*
X119230000Y-117500000I-2500000J0D01*
G01*
X119230000Y-117500000D02*
G75*
G02*
X124230000Y-117500000I2500000J0D01*
G01*
%TO.C,R3*%
X118320000Y-94000000D02*
X119270000Y-94000000D01*
X124060000Y-94000000D02*
X123110000Y-94000000D01*
X119270000Y-93080000D02*
X123110000Y-93080000D01*
X123110000Y-94920000D01*
X119270000Y-94920000D01*
X119270000Y-93080000D01*
%TO.C,J2*%
X96170000Y-103635000D02*
X96170000Y-104965000D01*
X96170000Y-103635000D02*
X96740000Y-103635000D01*
X96170000Y-104965000D02*
X97192470Y-104965000D01*
X97500000Y-102240000D02*
X98830000Y-102240000D01*
X97807530Y-104965000D02*
X98830000Y-104965000D01*
X98260000Y-103635000D02*
X98830000Y-103635000D01*
X98830000Y-102240000D02*
X98830000Y-103000000D01*
X98830000Y-103635000D02*
X98830000Y-104965000D01*
%TO.C,C5*%
X143445225Y-108525000D02*
X143945225Y-108525000D01*
X143695225Y-108275000D02*
X143695225Y-108775000D01*
X146250000Y-107420000D02*
X146250000Y-112580000D01*
X146290000Y-107420000D02*
X146290000Y-112580000D01*
X146330000Y-107421000D02*
X146330000Y-112579000D01*
X146370000Y-107423000D02*
X146370000Y-112577000D01*
X146410000Y-107425000D02*
X146410000Y-112575000D01*
X146450000Y-107428000D02*
X146450000Y-112572000D01*
X146490000Y-107431000D02*
X146490000Y-108960000D01*
X146490000Y-111040000D02*
X146490000Y-112569000D01*
X146530000Y-107435000D02*
X146530000Y-108960000D01*
X146530000Y-111040000D02*
X146530000Y-112565000D01*
X146570000Y-107440000D02*
X146570000Y-108960000D01*
X146570000Y-111040000D02*
X146570000Y-112560000D01*
X146610000Y-107445000D02*
X146610000Y-108960000D01*
X146610000Y-111040000D02*
X146610000Y-112555000D01*
X146650000Y-107451000D02*
X146650000Y-108960000D01*
X146650000Y-111040000D02*
X146650000Y-112549000D01*
X146690000Y-107457000D02*
X146690000Y-108960000D01*
X146690000Y-111040000D02*
X146690000Y-112543000D01*
X146730000Y-107464000D02*
X146730000Y-108960000D01*
X146730000Y-111040000D02*
X146730000Y-112536000D01*
X146770000Y-107472000D02*
X146770000Y-108960000D01*
X146770000Y-111040000D02*
X146770000Y-112528000D01*
X146810000Y-107481000D02*
X146810000Y-108960000D01*
X146810000Y-111040000D02*
X146810000Y-112519000D01*
X146850000Y-107490000D02*
X146850000Y-108960000D01*
X146850000Y-111040000D02*
X146850000Y-112510000D01*
X146890000Y-107499000D02*
X146890000Y-108960000D01*
X146890000Y-111040000D02*
X146890000Y-112501000D01*
X146930000Y-107510000D02*
X146930000Y-108960000D01*
X146930000Y-111040000D02*
X146930000Y-112490000D01*
X146970000Y-107521000D02*
X146970000Y-108960000D01*
X146970000Y-111040000D02*
X146970000Y-112479000D01*
X147010000Y-107533000D02*
X147010000Y-108960000D01*
X147010000Y-111040000D02*
X147010000Y-112467000D01*
X147050000Y-107545000D02*
X147050000Y-108960000D01*
X147050000Y-111040000D02*
X147050000Y-112455000D01*
X147090000Y-107558000D02*
X147090000Y-108960000D01*
X147090000Y-111040000D02*
X147090000Y-112442000D01*
X147130000Y-107572000D02*
X147130000Y-108960000D01*
X147130000Y-111040000D02*
X147130000Y-112428000D01*
X147170000Y-107587000D02*
X147170000Y-108960000D01*
X147170000Y-111040000D02*
X147170000Y-112413000D01*
X147210000Y-107602000D02*
X147210000Y-108960000D01*
X147210000Y-111040000D02*
X147210000Y-112398000D01*
X147250000Y-107618000D02*
X147250000Y-108960000D01*
X147250000Y-111040000D02*
X147250000Y-112382000D01*
X147290000Y-107635000D02*
X147290000Y-108960000D01*
X147290000Y-111040000D02*
X147290000Y-112365000D01*
X147330000Y-107653000D02*
X147330000Y-108960000D01*
X147330000Y-111040000D02*
X147330000Y-112347000D01*
X147370000Y-107671000D02*
X147370000Y-108960000D01*
X147370000Y-111040000D02*
X147370000Y-112329000D01*
X147410000Y-107691000D02*
X147410000Y-108960000D01*
X147410000Y-111040000D02*
X147410000Y-112309000D01*
X147450000Y-107711000D02*
X147450000Y-108960000D01*
X147450000Y-111040000D02*
X147450000Y-112289000D01*
X147490000Y-107732000D02*
X147490000Y-108960000D01*
X147490000Y-111040000D02*
X147490000Y-112268000D01*
X147530000Y-107754000D02*
X147530000Y-108960000D01*
X147530000Y-111040000D02*
X147530000Y-112246000D01*
X147570000Y-107777000D02*
X147570000Y-108960000D01*
X147570000Y-111040000D02*
X147570000Y-112223000D01*
X147610000Y-107801000D02*
X147610000Y-108960000D01*
X147610000Y-111040000D02*
X147610000Y-112199000D01*
X147650000Y-107825000D02*
X147650000Y-108960000D01*
X147650000Y-111040000D02*
X147650000Y-112175000D01*
X147690000Y-107851000D02*
X147690000Y-108960000D01*
X147690000Y-111040000D02*
X147690000Y-112149000D01*
X147730000Y-107878000D02*
X147730000Y-108960000D01*
X147730000Y-111040000D02*
X147730000Y-112122000D01*
X147770000Y-107906000D02*
X147770000Y-108960000D01*
X147770000Y-111040000D02*
X147770000Y-112094000D01*
X147810000Y-107935000D02*
X147810000Y-108960000D01*
X147810000Y-111040000D02*
X147810000Y-112065000D01*
X147850000Y-107965000D02*
X147850000Y-108960000D01*
X147850000Y-111040000D02*
X147850000Y-112035000D01*
X147890000Y-107997000D02*
X147890000Y-108960000D01*
X147890000Y-111040000D02*
X147890000Y-112003000D01*
X147930000Y-108030000D02*
X147930000Y-108960000D01*
X147930000Y-111040000D02*
X147930000Y-111970000D01*
X147970000Y-108064000D02*
X147970000Y-108960000D01*
X147970000Y-111040000D02*
X147970000Y-111936000D01*
X148010000Y-108099000D02*
X148010000Y-108960000D01*
X148010000Y-111040000D02*
X148010000Y-111901000D01*
X148050000Y-108136000D02*
X148050000Y-108960000D01*
X148050000Y-111040000D02*
X148050000Y-111864000D01*
X148090000Y-108175000D02*
X148090000Y-108960000D01*
X148090000Y-111040000D02*
X148090000Y-111825000D01*
X148130000Y-108215000D02*
X148130000Y-108960000D01*
X148130000Y-111040000D02*
X148130000Y-111785000D01*
X148170000Y-108257000D02*
X148170000Y-108960000D01*
X148170000Y-111040000D02*
X148170000Y-111743000D01*
X148210000Y-108301000D02*
X148210000Y-108960000D01*
X148210000Y-111040000D02*
X148210000Y-111699000D01*
X148250000Y-108348000D02*
X148250000Y-108960000D01*
X148250000Y-111040000D02*
X148250000Y-111652000D01*
X148290000Y-108396000D02*
X148290000Y-108960000D01*
X148290000Y-111040000D02*
X148290000Y-111604000D01*
X148330000Y-108447000D02*
X148330000Y-108960000D01*
X148330000Y-111040000D02*
X148330000Y-111553000D01*
X148370000Y-108501000D02*
X148370000Y-108960000D01*
X148370000Y-111040000D02*
X148370000Y-111499000D01*
X148410000Y-108557000D02*
X148410000Y-108960000D01*
X148410000Y-111040000D02*
X148410000Y-111443000D01*
X148450000Y-108617000D02*
X148450000Y-108960000D01*
X148450000Y-111040000D02*
X148450000Y-111383000D01*
X148490000Y-108681000D02*
X148490000Y-108960000D01*
X148490000Y-111040000D02*
X148490000Y-111319000D01*
X148530000Y-108749000D02*
X148530000Y-108960000D01*
X148530000Y-111040000D02*
X148530000Y-111251000D01*
X148570000Y-108823000D02*
X148570000Y-111177000D01*
X148610000Y-108902000D02*
X148610000Y-111098000D01*
X148650000Y-108989000D02*
X148650000Y-111011000D01*
X148690000Y-109086000D02*
X148690000Y-110914000D01*
X148730000Y-109195000D02*
X148730000Y-110805000D01*
X148770000Y-109323000D02*
X148770000Y-110677000D01*
X148810000Y-109483000D02*
X148810000Y-110517000D01*
X148850000Y-109717000D02*
X148850000Y-110283000D01*
X148870000Y-110000000D02*
G75*
G02*
X143630000Y-110000000I-2620000J0D01*
G01*
X143630000Y-110000000D02*
G75*
G02*
X148870000Y-110000000I2620000J0D01*
G01*
%TO.C,C7*%
X182249759Y-90661000D02*
X182879759Y-90661000D01*
X182564759Y-90346000D02*
X182564759Y-90976000D01*
X185750000Y-89270000D02*
X185750000Y-95730000D01*
X185790000Y-89270000D02*
X185790000Y-95730000D01*
X185830000Y-89271000D02*
X185830000Y-95729000D01*
X185870000Y-89272000D02*
X185870000Y-95728000D01*
X185910000Y-89274000D02*
X185910000Y-95726000D01*
X185950000Y-89276000D02*
X185950000Y-95724000D01*
X185990000Y-89279000D02*
X185990000Y-91460000D01*
X185990000Y-93540000D02*
X185990000Y-95721000D01*
X186030000Y-89282000D02*
X186030000Y-91460000D01*
X186030000Y-93540000D02*
X186030000Y-95718000D01*
X186070000Y-89286000D02*
X186070000Y-91460000D01*
X186070000Y-93540000D02*
X186070000Y-95714000D01*
X186110000Y-89290000D02*
X186110000Y-91460000D01*
X186110000Y-93540000D02*
X186110000Y-95710000D01*
X186150000Y-89295000D02*
X186150000Y-91460000D01*
X186150000Y-93540000D02*
X186150000Y-95705000D01*
X186190000Y-89300000D02*
X186190000Y-91460000D01*
X186190000Y-93540000D02*
X186190000Y-95700000D01*
X186230000Y-89305000D02*
X186230000Y-91460000D01*
X186230000Y-93540000D02*
X186230000Y-95695000D01*
X186270000Y-89312000D02*
X186270000Y-91460000D01*
X186270000Y-93540000D02*
X186270000Y-95688000D01*
X186310000Y-89318000D02*
X186310000Y-91460000D01*
X186310000Y-93540000D02*
X186310000Y-95682000D01*
X186350000Y-89326000D02*
X186350000Y-91460000D01*
X186350000Y-93540000D02*
X186350000Y-95674000D01*
X186390000Y-89333000D02*
X186390000Y-91460000D01*
X186390000Y-93540000D02*
X186390000Y-95667000D01*
X186430000Y-89341000D02*
X186430000Y-91460000D01*
X186430000Y-93540000D02*
X186430000Y-95659000D01*
X186470000Y-89350000D02*
X186470000Y-91460000D01*
X186470000Y-93540000D02*
X186470000Y-95650000D01*
X186510000Y-89360000D02*
X186510000Y-91460000D01*
X186510000Y-93540000D02*
X186510000Y-95640000D01*
X186550000Y-89369000D02*
X186550000Y-91460000D01*
X186550000Y-93540000D02*
X186550000Y-95631000D01*
X186590000Y-89380000D02*
X186590000Y-91460000D01*
X186590000Y-93540000D02*
X186590000Y-95620000D01*
X186630000Y-89391000D02*
X186630000Y-91460000D01*
X186630000Y-93540000D02*
X186630000Y-95609000D01*
X186670000Y-89402000D02*
X186670000Y-91460000D01*
X186670000Y-93540000D02*
X186670000Y-95598000D01*
X186710000Y-89414000D02*
X186710000Y-91460000D01*
X186710000Y-93540000D02*
X186710000Y-95586000D01*
X186750000Y-89427000D02*
X186750000Y-91460000D01*
X186750000Y-93540000D02*
X186750000Y-95573000D01*
X186790000Y-89440000D02*
X186790000Y-91460000D01*
X186790000Y-93540000D02*
X186790000Y-95560000D01*
X186830000Y-89453000D02*
X186830000Y-91460000D01*
X186830000Y-93540000D02*
X186830000Y-95547000D01*
X186870000Y-89468000D02*
X186870000Y-91460000D01*
X186870000Y-93540000D02*
X186870000Y-95532000D01*
X186910000Y-89483000D02*
X186910000Y-91460000D01*
X186910000Y-93540000D02*
X186910000Y-95517000D01*
X186950000Y-89498000D02*
X186950000Y-91460000D01*
X186950000Y-93540000D02*
X186950000Y-95502000D01*
X186990000Y-89514000D02*
X186990000Y-91460000D01*
X186990000Y-93540000D02*
X186990000Y-95486000D01*
X187030000Y-89531000D02*
X187030000Y-91460000D01*
X187030000Y-93540000D02*
X187030000Y-95469000D01*
X187070000Y-89548000D02*
X187070000Y-91460000D01*
X187070000Y-93540000D02*
X187070000Y-95452000D01*
X187110000Y-89566000D02*
X187110000Y-91460000D01*
X187110000Y-93540000D02*
X187110000Y-95434000D01*
X187150000Y-89585000D02*
X187150000Y-91460000D01*
X187150000Y-93540000D02*
X187150000Y-95415000D01*
X187190000Y-89604000D02*
X187190000Y-91460000D01*
X187190000Y-93540000D02*
X187190000Y-95396000D01*
X187230000Y-89624000D02*
X187230000Y-91460000D01*
X187230000Y-93540000D02*
X187230000Y-95376000D01*
X187270000Y-89645000D02*
X187270000Y-91460000D01*
X187270000Y-93540000D02*
X187270000Y-95355000D01*
X187310000Y-89666000D02*
X187310000Y-91460000D01*
X187310000Y-93540000D02*
X187310000Y-95334000D01*
X187350000Y-89688000D02*
X187350000Y-91460000D01*
X187350000Y-93540000D02*
X187350000Y-95312000D01*
X187390000Y-89711000D02*
X187390000Y-91460000D01*
X187390000Y-93540000D02*
X187390000Y-95289000D01*
X187430000Y-89735000D02*
X187430000Y-91460000D01*
X187430000Y-93540000D02*
X187430000Y-95265000D01*
X187470000Y-89759000D02*
X187470000Y-91460000D01*
X187470000Y-93540000D02*
X187470000Y-95241000D01*
X187510000Y-89784000D02*
X187510000Y-91460000D01*
X187510000Y-93540000D02*
X187510000Y-95216000D01*
X187550000Y-89810000D02*
X187550000Y-91460000D01*
X187550000Y-93540000D02*
X187550000Y-95190000D01*
X187590000Y-89837000D02*
X187590000Y-91460000D01*
X187590000Y-93540000D02*
X187590000Y-95163000D01*
X187630000Y-89864000D02*
X187630000Y-91460000D01*
X187630000Y-93540000D02*
X187630000Y-95136000D01*
X187670000Y-89893000D02*
X187670000Y-91460000D01*
X187670000Y-93540000D02*
X187670000Y-95107000D01*
X187710000Y-89923000D02*
X187710000Y-91460000D01*
X187710000Y-93540000D02*
X187710000Y-95077000D01*
X187750000Y-89953000D02*
X187750000Y-91460000D01*
X187750000Y-93540000D02*
X187750000Y-95047000D01*
X187790000Y-89984000D02*
X187790000Y-91460000D01*
X187790000Y-93540000D02*
X187790000Y-95016000D01*
X187830000Y-90017000D02*
X187830000Y-91460000D01*
X187830000Y-93540000D02*
X187830000Y-94983000D01*
X187870000Y-90050000D02*
X187870000Y-91460000D01*
X187870000Y-93540000D02*
X187870000Y-94950000D01*
X187910000Y-90085000D02*
X187910000Y-91460000D01*
X187910000Y-93540000D02*
X187910000Y-94915000D01*
X187950000Y-90121000D02*
X187950000Y-91460000D01*
X187950000Y-93540000D02*
X187950000Y-94879000D01*
X187990000Y-90158000D02*
X187990000Y-91460000D01*
X187990000Y-93540000D02*
X187990000Y-94842000D01*
X188030000Y-90196000D02*
X188030000Y-91460000D01*
X188030000Y-93540000D02*
X188030000Y-94804000D01*
X188070000Y-90236000D02*
X188070000Y-94764000D01*
X188110000Y-90277000D02*
X188110000Y-94723000D01*
X188150000Y-90319000D02*
X188150000Y-94681000D01*
X188190000Y-90363000D02*
X188190000Y-94637000D01*
X188230000Y-90409000D02*
X188230000Y-94591000D01*
X188270000Y-90456000D02*
X188270000Y-94544000D01*
X188310000Y-90505000D02*
X188310000Y-94495000D01*
X188350000Y-90557000D02*
X188350000Y-94443000D01*
X188390000Y-90610000D02*
X188390000Y-94390000D01*
X188430000Y-90666000D02*
X188430000Y-94334000D01*
X188470000Y-90725000D02*
X188470000Y-94275000D01*
X188510000Y-90786000D02*
X188510000Y-94214000D01*
X188550000Y-90851000D02*
X188550000Y-94149000D01*
X188590000Y-90919000D02*
X188590000Y-94081000D01*
X188630000Y-90991000D02*
X188630000Y-94009000D01*
X188670000Y-91068000D02*
X188670000Y-93932000D01*
X188710000Y-91150000D02*
X188710000Y-93850000D01*
X188750000Y-91239000D02*
X188750000Y-93761000D01*
X188790000Y-91335000D02*
X188790000Y-93665000D01*
X188830000Y-91442000D02*
X188830000Y-93558000D01*
X188870000Y-91561000D02*
X188870000Y-93439000D01*
X188910000Y-91699000D02*
X188910000Y-93301000D01*
X188950000Y-91867000D02*
X188950000Y-93133000D01*
X188990000Y-92098000D02*
X188990000Y-92902000D01*
X189020000Y-92500000D02*
G75*
G02*
X182480000Y-92500000I-3270000J0D01*
G01*
X182480000Y-92500000D02*
G75*
G02*
X189020000Y-92500000I3270000J0D01*
G01*
%TO.C,U1*%
X155442500Y-93267500D02*
X155442500Y-94507500D01*
X155442500Y-94507500D02*
X156682500Y-94507500D01*
X155682500Y-85647500D02*
X167402500Y-85647500D01*
X155682500Y-94267500D02*
X155682500Y-85647500D01*
X167402500Y-85647500D02*
X167402500Y-94267500D01*
X167402500Y-94267500D02*
X155682500Y-94267500D01*
%TO.C,R2*%
X118320000Y-100000000D02*
X119270000Y-100000000D01*
X124060000Y-100000000D02*
X123110000Y-100000000D01*
X119270000Y-99080000D02*
X123110000Y-99080000D01*
X123110000Y-100920000D01*
X119270000Y-100920000D01*
X119270000Y-99080000D01*
%TO.C,R5*%
X201790000Y-92500000D02*
X203000000Y-92500000D01*
X201790000Y-92500000D02*
G75*
G02*
X197050000Y-92500000I-2370000J0D01*
G01*
X197050000Y-92500000D02*
G75*
G02*
X201790000Y-92500000I2370000J0D01*
G01*
%TO.C,C6*%
X130249759Y-95161000D02*
X130879759Y-95161000D01*
X130564759Y-94846000D02*
X130564759Y-95476000D01*
X133750000Y-93770000D02*
X133750000Y-100230000D01*
X133790000Y-93770000D02*
X133790000Y-100230000D01*
X133830000Y-93771000D02*
X133830000Y-100229000D01*
X133870000Y-93772000D02*
X133870000Y-100228000D01*
X133910000Y-93774000D02*
X133910000Y-100226000D01*
X133950000Y-93776000D02*
X133950000Y-100224000D01*
X133990000Y-93779000D02*
X133990000Y-95960000D01*
X133990000Y-98040000D02*
X133990000Y-100221000D01*
X134030000Y-93782000D02*
X134030000Y-95960000D01*
X134030000Y-98040000D02*
X134030000Y-100218000D01*
X134070000Y-93786000D02*
X134070000Y-95960000D01*
X134070000Y-98040000D02*
X134070000Y-100214000D01*
X134110000Y-93790000D02*
X134110000Y-95960000D01*
X134110000Y-98040000D02*
X134110000Y-100210000D01*
X134150000Y-93795000D02*
X134150000Y-95960000D01*
X134150000Y-98040000D02*
X134150000Y-100205000D01*
X134190000Y-93800000D02*
X134190000Y-95960000D01*
X134190000Y-98040000D02*
X134190000Y-100200000D01*
X134230000Y-93805000D02*
X134230000Y-95960000D01*
X134230000Y-98040000D02*
X134230000Y-100195000D01*
X134270000Y-93812000D02*
X134270000Y-95960000D01*
X134270000Y-98040000D02*
X134270000Y-100188000D01*
X134310000Y-93818000D02*
X134310000Y-95960000D01*
X134310000Y-98040000D02*
X134310000Y-100182000D01*
X134350000Y-93826000D02*
X134350000Y-95960000D01*
X134350000Y-98040000D02*
X134350000Y-100174000D01*
X134390000Y-93833000D02*
X134390000Y-95960000D01*
X134390000Y-98040000D02*
X134390000Y-100167000D01*
X134430000Y-93841000D02*
X134430000Y-95960000D01*
X134430000Y-98040000D02*
X134430000Y-100159000D01*
X134470000Y-93850000D02*
X134470000Y-95960000D01*
X134470000Y-98040000D02*
X134470000Y-100150000D01*
X134510000Y-93860000D02*
X134510000Y-95960000D01*
X134510000Y-98040000D02*
X134510000Y-100140000D01*
X134550000Y-93869000D02*
X134550000Y-95960000D01*
X134550000Y-98040000D02*
X134550000Y-100131000D01*
X134590000Y-93880000D02*
X134590000Y-95960000D01*
X134590000Y-98040000D02*
X134590000Y-100120000D01*
X134630000Y-93891000D02*
X134630000Y-95960000D01*
X134630000Y-98040000D02*
X134630000Y-100109000D01*
X134670000Y-93902000D02*
X134670000Y-95960000D01*
X134670000Y-98040000D02*
X134670000Y-100098000D01*
X134710000Y-93914000D02*
X134710000Y-95960000D01*
X134710000Y-98040000D02*
X134710000Y-100086000D01*
X134750000Y-93927000D02*
X134750000Y-95960000D01*
X134750000Y-98040000D02*
X134750000Y-100073000D01*
X134790000Y-93940000D02*
X134790000Y-95960000D01*
X134790000Y-98040000D02*
X134790000Y-100060000D01*
X134830000Y-93953000D02*
X134830000Y-95960000D01*
X134830000Y-98040000D02*
X134830000Y-100047000D01*
X134870000Y-93968000D02*
X134870000Y-95960000D01*
X134870000Y-98040000D02*
X134870000Y-100032000D01*
X134910000Y-93983000D02*
X134910000Y-95960000D01*
X134910000Y-98040000D02*
X134910000Y-100017000D01*
X134950000Y-93998000D02*
X134950000Y-95960000D01*
X134950000Y-98040000D02*
X134950000Y-100002000D01*
X134990000Y-94014000D02*
X134990000Y-95960000D01*
X134990000Y-98040000D02*
X134990000Y-99986000D01*
X135030000Y-94031000D02*
X135030000Y-95960000D01*
X135030000Y-98040000D02*
X135030000Y-99969000D01*
X135070000Y-94048000D02*
X135070000Y-95960000D01*
X135070000Y-98040000D02*
X135070000Y-99952000D01*
X135110000Y-94066000D02*
X135110000Y-95960000D01*
X135110000Y-98040000D02*
X135110000Y-99934000D01*
X135150000Y-94085000D02*
X135150000Y-95960000D01*
X135150000Y-98040000D02*
X135150000Y-99915000D01*
X135190000Y-94104000D02*
X135190000Y-95960000D01*
X135190000Y-98040000D02*
X135190000Y-99896000D01*
X135230000Y-94124000D02*
X135230000Y-95960000D01*
X135230000Y-98040000D02*
X135230000Y-99876000D01*
X135270000Y-94145000D02*
X135270000Y-95960000D01*
X135270000Y-98040000D02*
X135270000Y-99855000D01*
X135310000Y-94166000D02*
X135310000Y-95960000D01*
X135310000Y-98040000D02*
X135310000Y-99834000D01*
X135350000Y-94188000D02*
X135350000Y-95960000D01*
X135350000Y-98040000D02*
X135350000Y-99812000D01*
X135390000Y-94211000D02*
X135390000Y-95960000D01*
X135390000Y-98040000D02*
X135390000Y-99789000D01*
X135430000Y-94235000D02*
X135430000Y-95960000D01*
X135430000Y-98040000D02*
X135430000Y-99765000D01*
X135470000Y-94259000D02*
X135470000Y-95960000D01*
X135470000Y-98040000D02*
X135470000Y-99741000D01*
X135510000Y-94284000D02*
X135510000Y-95960000D01*
X135510000Y-98040000D02*
X135510000Y-99716000D01*
X135550000Y-94310000D02*
X135550000Y-95960000D01*
X135550000Y-98040000D02*
X135550000Y-99690000D01*
X135590000Y-94337000D02*
X135590000Y-95960000D01*
X135590000Y-98040000D02*
X135590000Y-99663000D01*
X135630000Y-94364000D02*
X135630000Y-95960000D01*
X135630000Y-98040000D02*
X135630000Y-99636000D01*
X135670000Y-94393000D02*
X135670000Y-95960000D01*
X135670000Y-98040000D02*
X135670000Y-99607000D01*
X135710000Y-94423000D02*
X135710000Y-95960000D01*
X135710000Y-98040000D02*
X135710000Y-99577000D01*
X135750000Y-94453000D02*
X135750000Y-95960000D01*
X135750000Y-98040000D02*
X135750000Y-99547000D01*
X135790000Y-94484000D02*
X135790000Y-95960000D01*
X135790000Y-98040000D02*
X135790000Y-99516000D01*
X135830000Y-94517000D02*
X135830000Y-95960000D01*
X135830000Y-98040000D02*
X135830000Y-99483000D01*
X135870000Y-94550000D02*
X135870000Y-95960000D01*
X135870000Y-98040000D02*
X135870000Y-99450000D01*
X135910000Y-94585000D02*
X135910000Y-95960000D01*
X135910000Y-98040000D02*
X135910000Y-99415000D01*
X135950000Y-94621000D02*
X135950000Y-95960000D01*
X135950000Y-98040000D02*
X135950000Y-99379000D01*
X135990000Y-94658000D02*
X135990000Y-95960000D01*
X135990000Y-98040000D02*
X135990000Y-99342000D01*
X136030000Y-94696000D02*
X136030000Y-95960000D01*
X136030000Y-98040000D02*
X136030000Y-99304000D01*
X136070000Y-94736000D02*
X136070000Y-99264000D01*
X136110000Y-94777000D02*
X136110000Y-99223000D01*
X136150000Y-94819000D02*
X136150000Y-99181000D01*
X136190000Y-94863000D02*
X136190000Y-99137000D01*
X136230000Y-94909000D02*
X136230000Y-99091000D01*
X136270000Y-94956000D02*
X136270000Y-99044000D01*
X136310000Y-95005000D02*
X136310000Y-98995000D01*
X136350000Y-95057000D02*
X136350000Y-98943000D01*
X136390000Y-95110000D02*
X136390000Y-98890000D01*
X136430000Y-95166000D02*
X136430000Y-98834000D01*
X136470000Y-95225000D02*
X136470000Y-98775000D01*
X136510000Y-95286000D02*
X136510000Y-98714000D01*
X136550000Y-95351000D02*
X136550000Y-98649000D01*
X136590000Y-95419000D02*
X136590000Y-98581000D01*
X136630000Y-95491000D02*
X136630000Y-98509000D01*
X136670000Y-95568000D02*
X136670000Y-98432000D01*
X136710000Y-95650000D02*
X136710000Y-98350000D01*
X136750000Y-95739000D02*
X136750000Y-98261000D01*
X136790000Y-95835000D02*
X136790000Y-98165000D01*
X136830000Y-95942000D02*
X136830000Y-98058000D01*
X136870000Y-96061000D02*
X136870000Y-97939000D01*
X136910000Y-96199000D02*
X136910000Y-97801000D01*
X136950000Y-96367000D02*
X136950000Y-97633000D01*
X136990000Y-96598000D02*
X136990000Y-97402000D01*
X137020000Y-97000000D02*
G75*
G02*
X130480000Y-97000000I-3270000J0D01*
G01*
X130480000Y-97000000D02*
G75*
G02*
X137020000Y-97000000I3270000J0D01*
G01*
%TD*%
M02*
