%TF.GenerationSoftware,KiCad,Pcbnew,9.0.6*%
%TF.CreationDate,2026-01-20T17:25:10-06:00*%
%TF.ProjectId,MobileArkhamAsylum,4d6f6269-6c65-4417-926b-68616d417379,rev?*%
%TF.SameCoordinates,Original*%
%TF.FileFunction,Copper,L1,Top*%
%TF.FilePolarity,Positive*%
%FSLAX46Y46*%
G04 Gerber Fmt 4.6, Leading zero omitted, Abs format (unit mm)*
G04 Created by KiCad (PCBNEW 9.0.6) date 2026-01-20 17:25:10*
%MOMM*%
%LPD*%
G01*
G04 APERTURE LIST*
G04 Aperture macros list*
%AMRoundRect*
0 Rectangle with rounded corners*
0 $1 Rounding radius*
0 $2 $3 $4 $5 $6 $7 $8 $9 X,Y pos of 4 corners*
0 Add a 4 corners polygon primitive as box body*
4,1,4,$2,$3,$4,$5,$6,$7,$8,$9,$2,$3,0*
0 Add four circle primitives for the rounded corners*
1,1,$1+$1,$2,$3*
1,1,$1+$1,$4,$5*
1,1,$1+$1,$6,$7*
1,1,$1+$1,$8,$9*
0 Add four rect primitives between the rounded corners*
20,1,$1+$1,$2,$3,$4,$5,0*
20,1,$1+$1,$4,$5,$6,$7,0*
20,1,$1+$1,$6,$7,$8,$9,0*
20,1,$1+$1,$8,$9,$2,$3,0*%
G04 Aperture macros list end*
%TA.AperFunction,ComponentPad*%
%ADD10RoundRect,0.250000X-0.550000X-0.550000X0.550000X-0.550000X0.550000X0.550000X-0.550000X0.550000X0*%
%TD*%
%TA.AperFunction,ComponentPad*%
%ADD11C,1.600000*%
%TD*%
%TA.AperFunction,ComponentPad*%
%ADD12R,4.000000X2.000000*%
%TD*%
%TA.AperFunction,ComponentPad*%
%ADD13O,3.300000X2.000000*%
%TD*%
%TA.AperFunction,ComponentPad*%
%ADD14O,2.000000X3.500000*%
%TD*%
%TA.AperFunction,SMDPad,CuDef*%
%ADD15RoundRect,0.062500X-0.375000X-0.062500X0.375000X-0.062500X0.375000X0.062500X-0.375000X0.062500X0*%
%TD*%
%TA.AperFunction,SMDPad,CuDef*%
%ADD16RoundRect,0.062500X-0.062500X-0.375000X0.062500X-0.375000X0.062500X0.375000X-0.062500X0.375000X0*%
%TD*%
%TA.AperFunction,HeatsinkPad*%
%ADD17R,1.600000X1.600000*%
%TD*%
%TA.AperFunction,SMDPad,CuDef*%
%ADD18RoundRect,0.150000X-0.587500X-0.150000X0.587500X-0.150000X0.587500X0.150000X-0.587500X0.150000X0*%
%TD*%
%TA.AperFunction,ComponentPad*%
%ADD19R,1.000000X1.000000*%
%TD*%
%TA.AperFunction,ComponentPad*%
%ADD20C,1.000000*%
%TD*%
%TA.AperFunction,ComponentPad*%
%ADD21R,1.800000X1.800000*%
%TD*%
%TA.AperFunction,ComponentPad*%
%ADD22C,1.800000*%
%TD*%
%TA.AperFunction,ComponentPad*%
%ADD23R,1.500000X2.300000*%
%TD*%
%TA.AperFunction,ComponentPad*%
%ADD24O,1.500000X2.300000*%
%TD*%
%TA.AperFunction,ComponentPad*%
%ADD25C,2.400000*%
%TD*%
%TA.AperFunction,ComponentPad*%
%ADD26C,1.400000*%
%TD*%
%TA.AperFunction,ViaPad*%
%ADD27C,0.600000*%
%TD*%
%TA.AperFunction,Conductor*%
%ADD28C,0.200000*%
%TD*%
G04 APERTURE END LIST*
D10*
%TO.P,C1,1*%
%TO.N,GND*%
X108500000Y-116000000D03*
D11*
%TO.P,C1,2*%
%TO.N,Net-(C1-Pad2)*%
X110500000Y-116000000D03*
%TD*%
D12*
%TO.P,J5,1,L*%
%TO.N,Net-(J5-L)*%
X111500000Y-84000000D03*
D13*
%TO.P,J5,2,N*%
%TO.N,GND*%
X111500000Y-78000000D03*
D14*
%TO.P,J5,MP*%
%TO.N,N/C*%
X116000000Y-77000000D03*
X107000000Y-77000000D03*
%TD*%
D10*
%TO.P,C3,1*%
%TO.N,Net-(C3-Pad1)*%
X173544888Y-92500000D03*
D11*
%TO.P,C3,2*%
%TO.N,Net-(U1-OUT)*%
X176044888Y-92500000D03*
%TD*%
D15*
%TO.P,U2,1,TS*%
%TO.N,Net-(U2-TS)*%
X107500000Y-100000000D03*
%TO.P,U2,2,BAT*%
%TO.N,Net-(J2-Pin_1)*%
X107500000Y-100500000D03*
%TO.P,U2,3,BAT*%
X107500000Y-101000000D03*
%TO.P,U2,4,~{CE}*%
%TO.N,GND*%
X107500000Y-101500000D03*
D16*
%TO.P,U2,5,EN2*%
%TO.N,Net-(J5-L)*%
X108187500Y-102187500D03*
%TO.P,U2,6,EN1*%
%TO.N,GND*%
X108687500Y-102187500D03*
%TO.P,U2,7,~{PGOOD}*%
%TO.N,Net-(D1-K)*%
X109187500Y-102187500D03*
%TO.P,U2,8,VSS*%
%TO.N,Net-(C1-Pad2)*%
X109687500Y-102187500D03*
D15*
%TO.P,U2,9,~{CHG}*%
%TO.N,Net-(D2-K)*%
X110375000Y-101500000D03*
%TO.P,U2,10,OUT*%
%TO.N,Net-(C6-Pad1)*%
X110375000Y-101000000D03*
%TO.P,U2,11,OUT*%
X110375000Y-100500000D03*
%TO.P,U2,12,ILIM*%
%TO.N,Net-(U2-ILIM)*%
X110375000Y-100000000D03*
D16*
%TO.P,U2,13,IN*%
%TO.N,Net-(J5-L)*%
X109687500Y-99312500D03*
%TO.P,U2,14,TMR*%
%TO.N,unconnected-(U2-TMR-Pad14)*%
X109187500Y-99312500D03*
%TO.P,U2,15,SYSOFF*%
%TO.N,GND*%
X108687500Y-99312500D03*
%TO.P,U2,16,ISET*%
%TO.N,Net-(U2-ISET)*%
X108187500Y-99312500D03*
D17*
%TO.P,U2,17,VSS*%
%TO.N,Net-(C1-Pad2)*%
X108937500Y-100750000D03*
%TD*%
D18*
%TO.P,Q1,1,D*%
%TO.N,GND*%
X164622500Y-119097500D03*
%TO.P,Q1,2,G*%
%TO.N,/NMOS G*%
X164622500Y-120997500D03*
%TO.P,Q1,3,S*%
%TO.N,GND*%
X166497500Y-120047500D03*
%TD*%
D19*
%TO.P,J3,1,Pin_1*%
%TO.N,GND*%
X216500000Y-91420000D03*
D20*
%TO.P,J3,2,Pin_2*%
%TO.N,/Power ESP32*%
X216500000Y-92690000D03*
%TO.P,J3,3,Pin_3*%
%TO.N,unconnected-(J3-Pin_3-Pad3)*%
X216500000Y-93960000D03*
%TO.P,J3,4,Pin_4*%
%TO.N,unconnected-(J3-Pin_4-Pad4)*%
X216500000Y-95230000D03*
%TO.P,J3,5,Pin_5*%
%TO.N,/ADC Readings for 3.3V*%
X216500000Y-96500000D03*
%TO.P,J3,6,Pin_6*%
%TO.N,/ADC Readings for 5V*%
X216500000Y-97770000D03*
%TO.P,J3,7,Pin_7*%
%TO.N,/Servo PWM*%
X216500000Y-99040000D03*
%TO.P,J3,8,Pin_8*%
%TO.N,/NMOS G*%
X216500000Y-100310000D03*
%TD*%
D10*
%TO.P,C2,1*%
%TO.N,Net-(U1-IN)*%
X144500000Y-97000000D03*
D11*
%TO.P,C2,2*%
%TO.N,Net-(C2-Pad2)*%
X147000000Y-97000000D03*
%TD*%
D10*
%TO.P,C8,1*%
%TO.N,Net-(U1-IN)*%
X132500000Y-110000000D03*
D11*
%TO.P,C8,2*%
%TO.N,Net-(C5-Pad1)*%
X135000000Y-110000000D03*
%TD*%
D21*
%TO.P,D2,1,K*%
%TO.N,Net-(D2-K)*%
X120460000Y-108500000D03*
D22*
%TO.P,D2,2,A*%
%TO.N,GND*%
X123000000Y-108500000D03*
%TD*%
D23*
%TO.P,U3,1,IN*%
%TO.N,Net-(U3-IN)*%
X158000000Y-108500000D03*
D24*
%TO.P,U3,2,GND*%
%TO.N,GND*%
X160540000Y-108500000D03*
%TO.P,U3,3,OUT*%
%TO.N,Net-(U3-OUT)*%
X163080000Y-108500000D03*
%TD*%
D19*
%TO.P,J1,1,Pin_1*%
%TO.N,GND*%
X216500000Y-107500000D03*
D20*
%TO.P,J1,2,Pin_2*%
%TO.N,Net-(J1-Pin_2)*%
X216500000Y-108770000D03*
%TO.P,J1,3,Pin_3*%
%TO.N,/Servo PWM*%
X216500000Y-110040000D03*
%TD*%
D19*
%TO.P,J4,1,Pin_1*%
%TO.N,GND*%
X216500000Y-119000000D03*
D20*
%TO.P,J4,2,Pin_2*%
%TO.N,Net-(J1-Pin_2)*%
X216500000Y-120270000D03*
%TD*%
D25*
%TO.P,R4,1*%
%TO.N,Net-(J1-Pin_2)*%
X203500000Y-108500000D03*
%TO.P,R4,2*%
%TO.N,/ADC Readings for 5V*%
X198420000Y-108500000D03*
%TD*%
D10*
%TO.P,C4,1*%
%TO.N,Net-(U3-OUT)*%
X173544888Y-108500000D03*
D11*
%TO.P,C4,2*%
%TO.N,Net-(C4-Pad2)*%
X176044888Y-108500000D03*
%TD*%
D10*
%TO.P,C9,1*%
%TO.N,Net-(C4-Pad2)*%
X184500000Y-108500000D03*
D11*
%TO.P,C9,2*%
%TO.N,Net-(J1-Pin_2)*%
X187000000Y-108500000D03*
%TD*%
D26*
%TO.P,R1,1*%
%TO.N,Net-(U2-TS)*%
X95880000Y-92500000D03*
%TO.P,R1,2*%
%TO.N,GND*%
X103500000Y-92500000D03*
%TD*%
D21*
%TO.P,D1,1,K*%
%TO.N,Net-(D1-K)*%
X120460000Y-117500000D03*
D22*
%TO.P,D1,2,A*%
%TO.N,GND*%
X123000000Y-117500000D03*
%TD*%
D26*
%TO.P,R3,1*%
%TO.N,Net-(U2-ISET)*%
X117380000Y-94000000D03*
%TO.P,R3,2*%
%TO.N,GND*%
X125000000Y-94000000D03*
%TD*%
D19*
%TO.P,J2,1,Pin_1*%
%TO.N,Net-(J2-Pin_1)*%
X97500000Y-103000000D03*
D20*
%TO.P,J2,2,Pin_2*%
%TO.N,GND*%
X97500000Y-104270000D03*
%TD*%
D10*
%TO.P,C5,1*%
%TO.N,Net-(C5-Pad1)*%
X145000000Y-110000000D03*
D11*
%TO.P,C5,2*%
%TO.N,Net-(U3-IN)*%
X147500000Y-110000000D03*
%TD*%
D10*
%TO.P,C7,1*%
%TO.N,Net-(C3-Pad1)*%
X184500000Y-92500000D03*
D11*
%TO.P,C7,2*%
%TO.N,/Power ESP32*%
X187000000Y-92500000D03*
%TD*%
D23*
%TO.P,U1,1,IN*%
%TO.N,Net-(U1-IN)*%
X159052500Y-92207500D03*
D24*
%TO.P,U1,2,GND*%
%TO.N,GND*%
X161592500Y-92207500D03*
%TO.P,U1,3,OUT*%
%TO.N,Net-(U1-OUT)*%
X164132500Y-92207500D03*
%TD*%
D26*
%TO.P,R2,1*%
%TO.N,Net-(U2-ILIM)*%
X117380000Y-100000000D03*
%TO.P,R2,2*%
%TO.N,GND*%
X125000000Y-100000000D03*
%TD*%
D25*
%TO.P,R5,1*%
%TO.N,/Power ESP32*%
X199420000Y-92500000D03*
%TO.P,R5,2*%
%TO.N,/ADC Readings for 3.3V*%
X204500000Y-92500000D03*
%TD*%
D10*
%TO.P,C6,1*%
%TO.N,Net-(C6-Pad1)*%
X132500000Y-97000000D03*
D11*
%TO.P,C6,2*%
%TO.N,Net-(C2-Pad2)*%
X135000000Y-97000000D03*
%TD*%
D27*
%TO.N,GND*%
X106500000Y-101500000D03*
X107000000Y-98600000D03*
X111500000Y-89500000D03*
X219000000Y-107500000D03*
X106500000Y-92000000D03*
%TO.N,Net-(U2-ISET)*%
X108087500Y-97000000D03*
X110500000Y-94000000D03*
%TO.N,Net-(D1-K)*%
X111500000Y-111000000D03*
X109500000Y-111000000D03*
%TO.N,Net-(C6-Pad1)*%
X112500000Y-100600000D03*
X126500000Y-97000000D03*
%TO.N,Net-(J1-Pin_2)*%
X212500000Y-117000000D03*
%TO.N,Net-(J5-L)*%
X109287500Y-98000000D03*
X108000000Y-103500000D03*
%TD*%
D28*
%TO.N,GND*%
X161592500Y-99407500D02*
X160500000Y-100500000D01*
X103500000Y-92500000D02*
X106250000Y-95250000D01*
X108687500Y-99312500D02*
X108687500Y-95687500D01*
X108500000Y-116000000D02*
X108687500Y-115812500D01*
X160500000Y-100500000D02*
X160540000Y-100540000D01*
X106000000Y-104500000D02*
X106000000Y-106812500D01*
X107201000Y-118701000D02*
X105500000Y-117000000D01*
X160141500Y-90756500D02*
X129243500Y-90756500D01*
X212580000Y-87500000D02*
X164000000Y-87500000D01*
X219000000Y-107500000D02*
X219000000Y-117000000D01*
X161592500Y-92207500D02*
X160141500Y-90756500D01*
X106000000Y-92500000D02*
X103500000Y-92500000D01*
X164000000Y-87500000D02*
X161592500Y-89907500D01*
X126000000Y-94000000D02*
X125000000Y-94000000D01*
X216500000Y-91420000D02*
X212580000Y-87500000D01*
X164210000Y-119097500D02*
X164699990Y-119097500D01*
X107000000Y-96500000D02*
X108250000Y-95250000D01*
X106500000Y-92000000D02*
X106000000Y-92500000D01*
X161592500Y-92207500D02*
X161592500Y-99407500D01*
X108687500Y-109500000D02*
X108687500Y-102187500D01*
X97500000Y-104270000D02*
X105770000Y-104270000D01*
X107000000Y-98600000D02*
X107000000Y-96500000D01*
X164622500Y-119097500D02*
X165547500Y-119097500D01*
X165547500Y-119097500D02*
X166497500Y-120047500D01*
X121661000Y-118701000D02*
X107201000Y-118701000D01*
X129243500Y-90756500D02*
X126000000Y-94000000D01*
X105500000Y-107312500D02*
X106000000Y-106812500D01*
X123000000Y-108500000D02*
X123000000Y-117500000D01*
X161592500Y-89907500D02*
X161592500Y-92207500D01*
X217000000Y-119000000D02*
X216500000Y-119000000D01*
X107500000Y-101500000D02*
X106000000Y-103000000D01*
X160540000Y-100540000D02*
X160540000Y-108500000D01*
X125000000Y-100000000D02*
X125000000Y-106500000D01*
X164210000Y-119097500D02*
X160540000Y-115427500D01*
X160540000Y-115427500D02*
X160540000Y-108500000D01*
X108687500Y-95687500D02*
X108250000Y-95250000D01*
X106000000Y-106812500D02*
X108687500Y-109500000D01*
X219000000Y-93920000D02*
X219000000Y-107500000D01*
X125000000Y-94000000D02*
X125000000Y-100000000D01*
X219000000Y-117000000D02*
X217000000Y-119000000D01*
X123000000Y-108500000D02*
X123000000Y-117362000D01*
X108687500Y-115812500D02*
X108687500Y-109500000D01*
X105770000Y-104270000D02*
X106000000Y-104500000D01*
X123000000Y-117362000D02*
X121661000Y-118701000D01*
X105500000Y-117000000D02*
X105500000Y-107312500D01*
X125000000Y-106500000D02*
X123000000Y-108500000D01*
X107500000Y-101500000D02*
X106500000Y-101500000D01*
X106250000Y-95250000D02*
X108250000Y-95250000D01*
X106000000Y-103000000D02*
X106000000Y-104500000D01*
X216500000Y-91420000D02*
X219000000Y-93920000D01*
%TO.N,Net-(U1-OUT)*%
X165526000Y-93601000D02*
X164132500Y-92207500D01*
X174443888Y-93601000D02*
X165526000Y-93601000D01*
X175544888Y-92500000D02*
X174443888Y-93601000D01*
%TO.N,Net-(U1-IN)*%
X144500000Y-98000000D02*
X132500000Y-110000000D01*
X149292500Y-92207500D02*
X144500000Y-97000000D01*
X159052500Y-92207500D02*
X149292500Y-92207500D01*
X144500000Y-97000000D02*
X144500000Y-98000000D01*
%TO.N,Net-(U2-ILIM)*%
X117380000Y-100000000D02*
X110375000Y-100000000D01*
%TO.N,Net-(C1-Pad2)*%
X110500000Y-116000000D02*
X110500000Y-108500000D01*
X110500000Y-108500000D02*
X109687500Y-107687500D01*
X109687500Y-102187500D02*
X109636500Y-102136500D01*
X109636500Y-101449000D02*
X108937500Y-100750000D01*
X109636500Y-102136500D02*
X109636500Y-101449000D01*
X109687500Y-107687500D02*
X109687500Y-102187500D01*
X109687500Y-102187500D02*
X109687500Y-102500000D01*
%TO.N,Net-(D2-K)*%
X112500000Y-101500000D02*
X110375000Y-101500000D01*
X120460000Y-108500000D02*
X119500000Y-108500000D01*
X119500000Y-108500000D02*
X112500000Y-101500000D01*
%TO.N,Net-(U2-ISET)*%
X108187500Y-97100000D02*
X108087500Y-97000000D01*
X110500000Y-94000000D02*
X117380000Y-94000000D01*
X108187500Y-99312500D02*
X108187500Y-97100000D01*
%TO.N,Net-(U2-TS)*%
X95880000Y-98380000D02*
X95880000Y-92500000D01*
X107500000Y-100000000D02*
X97500000Y-100000000D01*
X97500000Y-100000000D02*
X95880000Y-98380000D01*
%TO.N,Net-(U3-OUT)*%
X173544888Y-108500000D02*
X163080000Y-108500000D01*
%TO.N,Net-(D1-K)*%
X113500000Y-111000000D02*
X111500000Y-111000000D01*
X109500000Y-111000000D02*
X109187500Y-110687500D01*
X120460000Y-117500000D02*
X120000000Y-117500000D01*
X120000000Y-117500000D02*
X113500000Y-111000000D01*
X109187500Y-110687500D02*
X109187500Y-102187500D01*
%TO.N,Net-(C4-Pad2)*%
X184500000Y-108500000D02*
X175544888Y-108500000D01*
%TO.N,Net-(U3-IN)*%
X152500000Y-108500000D02*
X151000000Y-110000000D01*
X158000000Y-108500000D02*
X152500000Y-108500000D01*
X151000000Y-110000000D02*
X147000000Y-110000000D01*
%TO.N,Net-(C5-Pad1)*%
X135000000Y-110000000D02*
X145000000Y-110000000D01*
%TO.N,Net-(C6-Pad1)*%
X110375000Y-100500000D02*
X110375000Y-101000000D01*
X110375000Y-100500000D02*
X112400000Y-100500000D01*
X112400000Y-100500000D02*
X112500000Y-100600000D01*
X132500000Y-97000000D02*
X126500000Y-97000000D01*
%TO.N,/Power ESP32*%
X208690000Y-92690000D02*
X206999000Y-90999000D01*
X216500000Y-92690000D02*
X208690000Y-92690000D01*
X199420000Y-92500000D02*
X187000000Y-92500000D01*
X206999000Y-90999000D02*
X200921000Y-90999000D01*
X200921000Y-90999000D02*
X199420000Y-92500000D01*
%TO.N,/Servo PWM*%
X216500000Y-110040000D02*
X217301000Y-109239000D01*
X217301000Y-99841000D02*
X216500000Y-99040000D01*
X217301000Y-109239000D02*
X217301000Y-99841000D01*
%TO.N,Net-(J1-Pin_2)*%
X212500000Y-117000000D02*
X215770000Y-120270000D01*
X201999000Y-110001000D02*
X203500000Y-108500000D01*
X215770000Y-120270000D02*
X216500000Y-120270000D01*
X187000000Y-108500000D02*
X188501000Y-110001000D01*
X188501000Y-110001000D02*
X201999000Y-110001000D01*
%TO.N,Net-(J2-Pin_1)*%
X97500000Y-103000000D02*
X97500000Y-101500000D01*
X107500000Y-101000000D02*
X107500000Y-100500000D01*
X97500000Y-101500000D02*
X98500000Y-100500000D01*
X98500000Y-100500000D02*
X107500000Y-100500000D01*
%TO.N,/NMOS G*%
X164622500Y-120997500D02*
X164622500Y-124377500D01*
X164500000Y-124500000D02*
X166500000Y-126500000D01*
X190310000Y-126500000D02*
X166500000Y-126500000D01*
X164989999Y-120997500D02*
X164210000Y-120997500D01*
X216500000Y-100310000D02*
X190310000Y-126500000D01*
X164622500Y-124377500D02*
X164500000Y-124500000D01*
%TO.N,/ADC Readings for 3.3V*%
X204500000Y-92500000D02*
X208500000Y-96500000D01*
X208500000Y-96500000D02*
X216500000Y-96500000D01*
%TO.N,/ADC Readings for 5V*%
X209150000Y-97770000D02*
X216500000Y-97770000D01*
X198420000Y-108500000D02*
X209150000Y-97770000D01*
%TO.N,Net-(J5-L)*%
X108000000Y-102375000D02*
X108187500Y-102187500D01*
X108187500Y-102187500D02*
X108187500Y-102812500D01*
X109687500Y-85812500D02*
X109687500Y-99312500D01*
X109687500Y-98400000D02*
X109287500Y-98000000D01*
X108000000Y-103500000D02*
X108000000Y-102375000D01*
X109687500Y-99312500D02*
X109687500Y-98400000D01*
X111500000Y-84000000D02*
X109687500Y-85812500D01*
%TD*%
M02*
