%TF.GenerationSoftware,KiCad,Pcbnew,9.0.6*%
%TF.CreationDate,2026-01-20T17:25:10-06:00*%
%TF.ProjectId,MobileArkhamAsylum,4d6f6269-6c65-4417-926b-68616d417379,rev?*%
%TF.SameCoordinates,Original*%
%TF.FileFunction,Soldermask,Top*%
%TF.FilePolarity,Negative*%
%FSLAX46Y46*%
G04 Gerber Fmt 4.6, Leading zero omitted, Abs format (unit mm)*
G04 Created by KiCad (PCBNEW 9.0.6) date 2026-01-20 17:25:10*
%MOMM*%
%LPD*%
G01*
G04 APERTURE LIST*
G04 Aperture macros list*
%AMRoundRect*
0 Rectangle with rounded corners*
0 $1 Rounding radius*
0 $2 $3 $4 $5 $6 $7 $8 $9 X,Y pos of 4 corners*
0 Add a 4 corners polygon primitive as box body*
4,1,4,$2,$3,$4,$5,$6,$7,$8,$9,$2,$3,0*
0 Add four circle primitives for the rounded corners*
1,1,$1+$1,$2,$3*
1,1,$1+$1,$4,$5*
1,1,$1+$1,$6,$7*
1,1,$1+$1,$8,$9*
0 Add four rect primitives between the rounded corners*
20,1,$1+$1,$2,$3,$4,$5,0*
20,1,$1+$1,$4,$5,$6,$7,0*
20,1,$1+$1,$6,$7,$8,$9,0*
20,1,$1+$1,$8,$9,$2,$3,0*%
G04 Aperture macros list end*
%ADD10RoundRect,0.250000X-0.550000X-0.550000X0.550000X-0.550000X0.550000X0.550000X-0.550000X0.550000X0*%
%ADD11C,1.600000*%
%ADD12R,4.000000X2.000000*%
%ADD13O,3.300000X2.000000*%
%ADD14O,2.000000X3.500000*%
%ADD15RoundRect,0.062500X-0.375000X-0.062500X0.375000X-0.062500X0.375000X0.062500X-0.375000X0.062500X0*%
%ADD16RoundRect,0.062500X-0.062500X-0.375000X0.062500X-0.375000X0.062500X0.375000X-0.062500X0.375000X0*%
%ADD17R,1.600000X1.600000*%
%ADD18RoundRect,0.150000X-0.587500X-0.150000X0.587500X-0.150000X0.587500X0.150000X-0.587500X0.150000X0*%
%ADD19R,1.000000X1.000000*%
%ADD20C,1.000000*%
%ADD21R,1.800000X1.800000*%
%ADD22C,1.800000*%
%ADD23R,1.500000X2.300000*%
%ADD24O,1.500000X2.300000*%
%ADD25C,2.400000*%
%ADD26C,1.400000*%
G04 APERTURE END LIST*
D10*
%TO.C,C1*%
X108500000Y-116000000D03*
D11*
X110500000Y-116000000D03*
%TD*%
%TO.C,J5*%
X111500000Y-75000000D03*
D12*
X111500000Y-84000000D03*
D13*
X111500000Y-78000000D03*
D14*
X116000000Y-77000000D03*
X107000000Y-77000000D03*
%TD*%
D10*
%TO.C,C3*%
X173544888Y-92500000D03*
D11*
X176044888Y-92500000D03*
%TD*%
D15*
%TO.C,U2*%
X107500000Y-100000000D03*
X107500000Y-100500000D03*
X107500000Y-101000000D03*
X107500000Y-101500000D03*
D16*
X108187500Y-102187500D03*
X108687500Y-102187500D03*
X109187500Y-102187500D03*
X109687500Y-102187500D03*
D15*
X110375000Y-101500000D03*
X110375000Y-101000000D03*
X110375000Y-100500000D03*
X110375000Y-100000000D03*
D16*
X109687500Y-99312500D03*
X109187500Y-99312500D03*
X108687500Y-99312500D03*
X108187500Y-99312500D03*
D17*
X108937500Y-100750000D03*
%TD*%
D18*
%TO.C,Q1*%
X164622500Y-119097500D03*
X164622500Y-120997500D03*
X166497500Y-120047500D03*
%TD*%
D19*
%TO.C,J3*%
X216500000Y-91420000D03*
D20*
X216500000Y-92690000D03*
X216500000Y-93960000D03*
X216500000Y-95230000D03*
X216500000Y-96500000D03*
X216500000Y-97770000D03*
X216500000Y-99040000D03*
X216500000Y-100310000D03*
%TD*%
D10*
%TO.C,C2*%
X144500000Y-97000000D03*
D11*
X147000000Y-97000000D03*
%TD*%
D10*
%TO.C,C8*%
X132500000Y-110000000D03*
D11*
X135000000Y-110000000D03*
%TD*%
D21*
%TO.C,D2*%
X120460000Y-108500000D03*
D22*
X123000000Y-108500000D03*
%TD*%
D23*
%TO.C,U3*%
X158000000Y-108500000D03*
D24*
X160540000Y-108500000D03*
X163080000Y-108500000D03*
%TD*%
D19*
%TO.C,J1*%
X216500000Y-107500000D03*
D20*
X216500000Y-108770000D03*
X216500000Y-110040000D03*
%TD*%
D19*
%TO.C,J4*%
X216500000Y-119000000D03*
D20*
X216500000Y-120270000D03*
%TD*%
D25*
%TO.C,R4*%
X203500000Y-108500000D03*
X198420000Y-108500000D03*
%TD*%
D10*
%TO.C,C4*%
X173544888Y-108500000D03*
D11*
X176044888Y-108500000D03*
%TD*%
D10*
%TO.C,C9*%
X184500000Y-108500000D03*
D11*
X187000000Y-108500000D03*
%TD*%
D26*
%TO.C,R1*%
X95880000Y-92500000D03*
X103500000Y-92500000D03*
%TD*%
D21*
%TO.C,D1*%
X120460000Y-117500000D03*
D22*
X123000000Y-117500000D03*
%TD*%
D26*
%TO.C,R3*%
X117380000Y-94000000D03*
X125000000Y-94000000D03*
%TD*%
D19*
%TO.C,J2*%
X97500000Y-103000000D03*
D20*
X97500000Y-104270000D03*
%TD*%
D10*
%TO.C,C5*%
X145000000Y-110000000D03*
D11*
X147500000Y-110000000D03*
%TD*%
D10*
%TO.C,C7*%
X184500000Y-92500000D03*
D11*
X187000000Y-92500000D03*
%TD*%
D23*
%TO.C,U1*%
X159052500Y-92207500D03*
D24*
X161592500Y-92207500D03*
X164132500Y-92207500D03*
%TD*%
D26*
%TO.C,R2*%
X117380000Y-100000000D03*
X125000000Y-100000000D03*
%TD*%
D25*
%TO.C,R5*%
X199420000Y-92500000D03*
X204500000Y-92500000D03*
%TD*%
D10*
%TO.C,C6*%
X132500000Y-97000000D03*
D11*
X135000000Y-97000000D03*
%TD*%
M02*
