M48
; DRILL file {KiCad 9.0.6} date 2026-01-17T19:34:33-0600
; FORMAT={-:-/ absolute / metric / decimal}
; #@! TF.CreationDate,2026-01-17T19:34:33-06:00
; #@! TF.GenerationSoftware,Kicad,Pcbnew,9.0.6
; #@! TF.FileFunction,Plated,1,2,PTH
FMAT,2
METRIC
; #@! TA.AperFunction,Plated,PTH,ViaDrill
T1C0.300
; #@! TA.AperFunction,Plated,PTH,ComponentDrill
T2C0.650
; #@! TA.AperFunction,Plated,PTH,ComponentDrill
T3C0.700
; #@! TA.AperFunction,Plated,PTH,ComponentDrill
T4C0.800
; #@! TA.AperFunction,Plated,PTH,ComponentDrill
T5C0.900
; #@! TA.AperFunction,Plated,PTH,ComponentDrill
T6C1.000
; #@! TA.AperFunction,Plated,PTH,ComponentDrill
T7C1.200
%
G90
G05
T1
X98.0Y-113.5
X106.5Y-92.0
X106.5Y-101.5
X107.0Y-98.6
X107.5Y-103.5
X107.5Y-106.0
X108.087Y-97.0
X109.287Y-98.0
X109.5Y-111.0
X110.5Y-94.0
X111.5Y-89.5
X111.5Y-111.0
X112.5Y-100.6
X126.5Y-97.0
X212.5Y-117.0
X219.0Y-107.5
T2
X216.5Y-91.42
X216.5Y-92.69
X216.5Y-93.96
X216.5Y-95.23
X216.5Y-96.5
X216.5Y-97.77
X216.5Y-99.04
X216.5Y-100.31
X216.5Y-107.5
X216.5Y-108.77
X216.5Y-110.04
X216.5Y-119.0
X216.5Y-120.27
T3
X95.88Y-92.5
X97.5Y-103.0
X97.5Y-104.27
X103.5Y-92.5
X117.38Y-94.0
X117.38Y-100.0
X125.0Y-94.0
X125.0Y-100.0
T4
X108.5Y-116.0
X110.5Y-116.0
X132.5Y-97.0
X132.5Y-110.0
X135.0Y-97.0
X135.0Y-110.0
X144.5Y-97.0
X145.0Y-110.0
X146.5Y-97.0
X147.0Y-110.0
X173.545Y-92.5
X173.545Y-108.5
X175.545Y-92.5
X175.545Y-108.5
X184.5Y-92.5
X184.5Y-108.5
X187.0Y-92.5
X187.0Y-108.5
T5
X120.46Y-108.5
X120.46Y-117.5
X123.0Y-108.5
X123.0Y-117.5
T6
X158.0Y-108.5
X159.052Y-92.207
X160.54Y-108.5
X161.593Y-92.207
X163.08Y-108.5
X164.132Y-92.207
T7
X198.42Y-108.5
X199.42Y-92.5
X203.5Y-108.5
X204.5Y-92.5
T6
G00X107.0Y-77.75
M15
G01X107.0Y-76.25
M16
G05
G00X112.15Y-78.0
M15
G01X110.85Y-78.0
M16
G05
G00X112.5Y-84.0
M15
G01X110.5Y-84.0
M16
G05
G00X116.0Y-77.75
M15
G01X116.0Y-76.25
M16
G05
M30
