%TF.GenerationSoftware,KiCad,Pcbnew,9.0.6*%
%TF.CreationDate,2026-01-17T19:33:41-06:00*%
%TF.ProjectId,MobileArkhamAsylum,4d6f6269-6c65-4417-926b-68616d417379,rev?*%
%TF.SameCoordinates,Original*%
%TF.FileFunction,Copper,L2,Bot*%
%TF.FilePolarity,Positive*%
%FSLAX46Y46*%
G04 Gerber Fmt 4.6, Leading zero omitted, Abs format (unit mm)*
G04 Created by KiCad (PCBNEW 9.0.6) date 2026-01-17 19:33:41*
%MOMM*%
%LPD*%
G01*
G04 APERTURE LIST*
G04 Aperture macros list*
%AMRoundRect*
0 Rectangle with rounded corners*
0 $1 Rounding radius*
0 $2 $3 $4 $5 $6 $7 $8 $9 X,Y pos of 4 corners*
0 Add a 4 corners polygon primitive as box body*
4,1,4,$2,$3,$4,$5,$6,$7,$8,$9,$2,$3,0*
0 Add four circle primitives for the rounded corners*
1,1,$1+$1,$2,$3*
1,1,$1+$1,$4,$5*
1,1,$1+$1,$6,$7*
1,1,$1+$1,$8,$9*
0 Add four rect primitives between the rounded corners*
20,1,$1+$1,$2,$3,$4,$5,0*
20,1,$1+$1,$4,$5,$6,$7,0*
20,1,$1+$1,$6,$7,$8,$9,0*
20,1,$1+$1,$8,$9,$2,$3,0*%
G04 Aperture macros list end*
%TA.AperFunction,ComponentPad*%
%ADD10R,4.000000X2.000000*%
%TD*%
%TA.AperFunction,ComponentPad*%
%ADD11O,3.300000X2.000000*%
%TD*%
%TA.AperFunction,ComponentPad*%
%ADD12O,2.000000X3.500000*%
%TD*%
%TA.AperFunction,ComponentPad*%
%ADD13C,1.000000*%
%TD*%
%TA.AperFunction,ComponentPad*%
%ADD14R,1.000000X1.000000*%
%TD*%
%TA.AperFunction,ComponentPad*%
%ADD15C,1.400000*%
%TD*%
%TA.AperFunction,ComponentPad*%
%ADD16C,1.600000*%
%TD*%
%TA.AperFunction,ComponentPad*%
%ADD17RoundRect,0.250000X-0.550000X-0.550000X0.550000X-0.550000X0.550000X0.550000X-0.550000X0.550000X0*%
%TD*%
%TA.AperFunction,ComponentPad*%
%ADD18C,2.400000*%
%TD*%
%TA.AperFunction,ComponentPad*%
%ADD19R,1.500000X2.300000*%
%TD*%
%TA.AperFunction,ComponentPad*%
%ADD20O,1.500000X2.300000*%
%TD*%
%TA.AperFunction,ComponentPad*%
%ADD21R,1.800000X1.800000*%
%TD*%
%TA.AperFunction,ComponentPad*%
%ADD22C,1.800000*%
%TD*%
%TA.AperFunction,ViaPad*%
%ADD23C,0.600000*%
%TD*%
%TA.AperFunction,Conductor*%
%ADD24C,0.200000*%
%TD*%
G04 APERTURE END LIST*
D10*
%TO.P,J5,1,L*%
%TO.N,Net-(J5-L)*%
X111500000Y-84000000D03*
D11*
%TO.P,J5,2,N*%
%TO.N,GND*%
X111500000Y-78000000D03*
D12*
%TO.P,J5,MP*%
%TO.N,N/C*%
X116000000Y-77000000D03*
X107000000Y-77000000D03*
%TD*%
D13*
%TO.P,J2,2,Pin_2*%
%TO.N,GND*%
X97500000Y-104270000D03*
D14*
%TO.P,J2,1,Pin_1*%
%TO.N,Net-(J2-Pin_1)*%
X97500000Y-103000000D03*
%TD*%
D15*
%TO.P,R1,2*%
%TO.N,GND*%
X103500000Y-92500000D03*
%TO.P,R1,1*%
%TO.N,Net-(U2-TS)*%
X95880000Y-92500000D03*
%TD*%
%TO.P,R3,2*%
%TO.N,GND*%
X125000000Y-94000000D03*
%TO.P,R3,1*%
%TO.N,Net-(U2-ISET)*%
X117380000Y-94000000D03*
%TD*%
D16*
%TO.P,C1,2*%
%TO.N,Net-(C1-Pad2)*%
X110500000Y-116000000D03*
D17*
%TO.P,C1,1*%
%TO.N,GND*%
X108500000Y-116000000D03*
%TD*%
%TO.P,C7,1*%
%TO.N,Net-(C3-Pad1)*%
X184500000Y-92500000D03*
D16*
%TO.P,C7,2*%
%TO.N,/Power ESP32*%
X187000000Y-92500000D03*
%TD*%
D18*
%TO.P,R5,1*%
%TO.N,/Power ESP32*%
X199420000Y-92500000D03*
%TO.P,R5,2*%
%TO.N,/ADC Readings for 3.3V*%
X204500000Y-92500000D03*
%TD*%
%TO.P,R4,1*%
%TO.N,Net-(J1-Pin_2)*%
X203500000Y-108500000D03*
%TO.P,R4,2*%
%TO.N,/ADC Readings for 5V*%
X198420000Y-108500000D03*
%TD*%
D14*
%TO.P,J4,1,Pin_1*%
%TO.N,GND*%
X216500000Y-119000000D03*
D13*
%TO.P,J4,2,Pin_2*%
%TO.N,Net-(J1-Pin_2)*%
X216500000Y-120270000D03*
%TD*%
D14*
%TO.P,J3,1,Pin_1*%
%TO.N,GND*%
X216500000Y-91420000D03*
D13*
%TO.P,J3,2,Pin_2*%
%TO.N,/Power ESP32*%
X216500000Y-92690000D03*
%TO.P,J3,3,Pin_3*%
%TO.N,unconnected-(J3-Pin_3-Pad3)*%
X216500000Y-93960000D03*
%TO.P,J3,4,Pin_4*%
%TO.N,unconnected-(J3-Pin_4-Pad4)*%
X216500000Y-95230000D03*
%TO.P,J3,5,Pin_5*%
%TO.N,/ADC Readings for 3.3V*%
X216500000Y-96500000D03*
%TO.P,J3,6,Pin_6*%
%TO.N,/ADC Readings for 5V*%
X216500000Y-97770000D03*
%TO.P,J3,7,Pin_7*%
%TO.N,/Servo PWM*%
X216500000Y-99040000D03*
%TO.P,J3,8,Pin_8*%
%TO.N,/NMOS G*%
X216500000Y-100310000D03*
%TD*%
D14*
%TO.P,J1,1,Pin_1*%
%TO.N,GND*%
X216500000Y-107500000D03*
D13*
%TO.P,J1,2,Pin_2*%
%TO.N,Net-(J1-Pin_2)*%
X216500000Y-108770000D03*
%TO.P,J1,3,Pin_3*%
%TO.N,/Servo PWM*%
X216500000Y-110040000D03*
%TD*%
D17*
%TO.P,C5,1*%
%TO.N,Net-(C5-Pad1)*%
X145000000Y-110000000D03*
D16*
%TO.P,C5,2*%
%TO.N,Net-(U3-IN)*%
X147000000Y-110000000D03*
%TD*%
D17*
%TO.P,C3,1*%
%TO.N,Net-(C3-Pad1)*%
X173544888Y-92500000D03*
D16*
%TO.P,C3,2*%
%TO.N,Net-(U1-OUT)*%
X175544888Y-92500000D03*
%TD*%
D17*
%TO.P,C2,1*%
%TO.N,Net-(U1-IN)*%
X144500000Y-97000000D03*
D16*
%TO.P,C2,2*%
%TO.N,Net-(C2-Pad2)*%
X146500000Y-97000000D03*
%TD*%
D17*
%TO.P,C8,1*%
%TO.N,Net-(U1-IN)*%
X132500000Y-110000000D03*
D16*
%TO.P,C8,2*%
%TO.N,Net-(C5-Pad1)*%
X135000000Y-110000000D03*
%TD*%
D19*
%TO.P,U3,1,IN*%
%TO.N,Net-(U3-IN)*%
X158000000Y-108500000D03*
D20*
%TO.P,U3,2,GND*%
%TO.N,GND*%
X160540000Y-108500000D03*
%TO.P,U3,3,OUT*%
%TO.N,Net-(U3-OUT)*%
X163080000Y-108500000D03*
%TD*%
D17*
%TO.P,C4,1*%
%TO.N,Net-(U3-OUT)*%
X173544888Y-108500000D03*
D16*
%TO.P,C4,2*%
%TO.N,Net-(C4-Pad2)*%
X175544888Y-108500000D03*
%TD*%
D17*
%TO.P,C9,1*%
%TO.N,Net-(C4-Pad2)*%
X184500000Y-108500000D03*
D16*
%TO.P,C9,2*%
%TO.N,Net-(J1-Pin_2)*%
X187000000Y-108500000D03*
%TD*%
D21*
%TO.P,D1,1,K*%
%TO.N,Net-(D1-K)*%
X120460000Y-117500000D03*
D22*
%TO.P,D1,2,A*%
%TO.N,GND*%
X123000000Y-117500000D03*
%TD*%
D19*
%TO.P,U1,1,IN*%
%TO.N,Net-(U1-IN)*%
X159052500Y-92207500D03*
D20*
%TO.P,U1,2,GND*%
%TO.N,GND*%
X161592500Y-92207500D03*
%TO.P,U1,3,OUT*%
%TO.N,Net-(U1-OUT)*%
X164132500Y-92207500D03*
%TD*%
D15*
%TO.P,R2,1*%
%TO.N,Net-(U2-ILIM)*%
X117380000Y-100000000D03*
%TO.P,R2,2*%
%TO.N,GND*%
X125000000Y-100000000D03*
%TD*%
D17*
%TO.P,C6,1*%
%TO.N,Net-(C6-Pad1)*%
X132500000Y-97000000D03*
D16*
%TO.P,C6,2*%
%TO.N,Net-(C2-Pad2)*%
X135000000Y-97000000D03*
%TD*%
D21*
%TO.P,D2,1,K*%
%TO.N,Net-(D2-K)*%
X120460000Y-108500000D03*
D22*
%TO.P,D2,2,A*%
%TO.N,GND*%
X123000000Y-108500000D03*
%TD*%
D23*
%TO.N,Net-(J5-L)*%
X109287500Y-98000000D03*
%TO.N,Net-(J1-Pin_2)*%
X212500000Y-117000000D03*
%TO.N,GND*%
X106500000Y-92000000D03*
X111500000Y-89500000D03*
%TO.N,Net-(J5-L)*%
X98000000Y-113500000D03*
X107500000Y-106000000D03*
%TO.N,GND*%
X106500000Y-101500000D03*
X107000000Y-98600000D03*
%TO.N,Net-(J5-L)*%
X107500000Y-103500000D03*
%TO.N,GND*%
X219000000Y-107500000D03*
%TO.N,Net-(C6-Pad1)*%
X126500000Y-97000000D03*
%TO.N,Net-(U2-ISET)*%
X110500000Y-94000000D03*
%TO.N,Net-(D1-K)*%
X109500000Y-111000000D03*
X111500000Y-111000000D03*
%TO.N,Net-(U2-ISET)*%
X108087500Y-97000000D03*
%TO.N,Net-(C6-Pad1)*%
X112500000Y-100600000D03*
%TD*%
D24*
%TO.N,GND*%
X113801000Y-87199000D02*
X111500000Y-89500000D01*
X113801000Y-80301000D02*
X113801000Y-87199000D01*
X111500000Y-78000000D02*
X113801000Y-80301000D01*
%TO.N,Net-(J1-Pin_2)*%
X212500000Y-116977106D02*
X212500000Y-117000000D01*
X211000000Y-115477106D02*
X212500000Y-116977106D01*
%TO.N,GND*%
X109000000Y-92000000D02*
X106500000Y-92000000D01*
X111500000Y-89500000D02*
X109000000Y-92000000D01*
%TO.N,Net-(J5-L)*%
X103000000Y-113000000D02*
X102500000Y-113500000D01*
X107500000Y-106000000D02*
X107500000Y-108500000D01*
X102500000Y-113500000D02*
X98000000Y-113500000D01*
X107500000Y-108500000D02*
X103000000Y-113000000D01*
%TO.N,GND*%
X106500000Y-99100000D02*
X107000000Y-98600000D01*
X106500000Y-101500000D02*
X106500000Y-99100000D01*
%TO.N,Net-(J5-L)*%
X105500000Y-99000000D02*
X106500000Y-98000000D01*
X105500000Y-101500000D02*
X105500000Y-99000000D01*
X107500000Y-103500000D02*
X105500000Y-101500000D01*
X106500000Y-98000000D02*
X109500000Y-98000000D01*
%TO.N,Net-(J1-Pin_2)*%
X211270000Y-108770000D02*
X211000000Y-108500000D01*
X216500000Y-108770000D02*
X211270000Y-108770000D01*
X211000000Y-115477106D02*
X211000000Y-108500000D01*
X216500000Y-120270000D02*
X215792894Y-120270000D01*
%TO.N,GND*%
X216500000Y-107500000D02*
X219000000Y-107500000D01*
%TO.N,Net-(J1-Pin_2)*%
X216230000Y-108500000D02*
X216500000Y-108770000D01*
X203500000Y-108500000D02*
X211000000Y-108500000D01*
%TO.N,Net-(C3-Pad1)*%
X174645888Y-91399000D02*
X183399000Y-91399000D01*
X183399000Y-91399000D02*
X184500000Y-92500000D01*
X173544888Y-92500000D02*
X174645888Y-91399000D01*
%TO.N,Net-(C2-Pad2)*%
X145399000Y-98101000D02*
X146500000Y-97000000D01*
X136101000Y-98101000D02*
X145399000Y-98101000D01*
X135000000Y-97000000D02*
X136101000Y-98101000D01*
%TO.N,Net-(C6-Pad1)*%
X126500000Y-97000000D02*
X116100000Y-97000000D01*
X116100000Y-97000000D02*
X112500000Y-100600000D01*
%TO.N,Net-(U2-ISET)*%
X108087500Y-96412500D02*
X110500000Y-94000000D01*
%TO.N,Net-(D1-K)*%
X111500000Y-111000000D02*
X109500000Y-111000000D01*
%TO.N,Net-(U2-ISET)*%
X108087500Y-97000000D02*
X108087500Y-96412500D01*
%TD*%
M02*
